<svg xmlns="http://www.w3.org/2000/svg" xmlns:xlink="http://www.w3.org/1999/xlink" width="500" zoomAndPan="magnify" viewBox="0 0 375 374.999991" height="500" preserveAspectRatio="xMidYMid meet" version="1.0"><defs><clipPath id="ea475c26f3"><path d="M 66 19.21875 L 306 19.21875 L 306 355.96875 L 66 355.96875 Z M 66 19.21875 " clip-rule="nonzero"/></clipPath></defs><g clip-path="url(#ea475c26f3)"><path fill="#000000" d="M 276.945312 356.105469 L 94.84375 356.105469 C 93.917969 356.105469 92.992188 356.058594 92.070312 355.964844 C 91.148438 355.875 90.230469 355.738281 89.320312 355.554688 C 88.414062 355.375 87.515625 355.148438 86.628906 354.878906 C 85.742188 354.609375 84.867188 354.296875 84.011719 353.941406 C 83.15625 353.585938 82.320312 353.1875 81.5 352.75 C 80.683594 352.3125 79.890625 351.835938 79.117188 351.320312 C 78.347656 350.804688 77.605469 350.253906 76.886719 349.664062 C 76.171875 349.078125 75.484375 348.453125 74.828125 347.796875 C 74.175781 347.144531 73.550781 346.457031 72.964844 345.738281 C 72.375 345.023438 71.824219 344.277344 71.308594 343.507812 C 70.792969 342.734375 70.316406 341.941406 69.878906 341.121094 C 69.441406 340.304688 69.046875 339.46875 68.691406 338.609375 C 68.335938 337.753906 68.023438 336.882812 67.753906 335.992188 C 67.484375 335.105469 67.257812 334.207031 67.078125 333.296875 C 66.894531 332.386719 66.757812 331.472656 66.667969 330.546875 C 66.574219 329.625 66.527344 328.699219 66.527344 327.773438 L 66.527344 47.789062 C 66.527344 46.863281 66.574219 45.9375 66.667969 45.015625 C 66.757812 44.089844 66.894531 43.175781 67.078125 42.265625 C 67.257812 41.355469 67.484375 40.457031 67.753906 39.570312 C 68.023438 38.679688 68.335938 37.808594 68.691406 36.953125 C 69.046875 36.09375 69.441406 35.257812 69.878906 34.441406 C 70.316406 33.621094 70.792969 32.828125 71.308594 32.054688 C 71.824219 31.285156 72.375 30.539062 72.964844 29.824219 C 73.550781 29.105469 74.175781 28.421875 74.828125 27.765625 C 75.484375 27.109375 76.171875 26.484375 76.886719 25.898438 C 77.605469 25.308594 78.347656 24.757812 79.117188 24.242188 C 79.890625 23.726562 80.683594 23.25 81.5 22.8125 C 82.320312 22.375 83.15625 21.976562 84.011719 21.621094 C 84.867188 21.265625 85.742188 20.953125 86.628906 20.683594 C 87.515625 20.414062 88.414062 20.1875 89.320312 20.007812 C 90.230469 19.824219 91.148438 19.6875 92.070312 19.597656 C 92.992188 19.503906 93.917969 19.457031 94.84375 19.457031 L 276.945312 19.457031 C 277.871094 19.457031 278.796875 19.503906 279.71875 19.597656 C 280.640625 19.6875 281.558594 19.824219 282.46875 20.007812 C 283.375 20.1875 284.273438 20.414062 285.160156 20.683594 C 286.050781 20.953125 286.921875 21.265625 287.777344 21.621094 C 288.632812 21.976562 289.46875 22.375 290.289062 22.8125 C 291.105469 23.25 291.898438 23.726562 292.671875 24.242188 C 293.441406 24.757812 294.183594 25.308594 294.902344 25.898438 C 295.617188 26.484375 296.304688 27.109375 296.960938 27.765625 C 297.617188 28.421875 298.238281 29.105469 298.824219 29.824219 C 299.414062 30.539062 299.964844 31.285156 300.480469 32.054688 C 300.996094 32.828125 301.472656 33.621094 301.910156 34.441406 C 302.347656 35.257812 302.742188 36.09375 303.097656 36.953125 C 303.453125 37.808594 303.765625 38.679688 304.035156 39.570312 C 304.304688 40.457031 304.53125 41.355469 304.714844 42.265625 C 304.894531 43.175781 305.03125 44.089844 305.121094 45.015625 C 305.214844 45.9375 305.261719 46.863281 305.261719 47.789062 L 305.261719 327.78125 C 305.261719 328.707031 305.214844 329.632812 305.121094 330.554688 C 305.03125 331.480469 304.894531 332.394531 304.710938 333.304688 C 304.53125 334.214844 304.304688 335.113281 304.035156 336 C 303.765625 336.886719 303.453125 337.757812 303.097656 338.617188 C 302.742188 339.472656 302.34375 340.308594 301.90625 341.128906 C 301.46875 341.945312 300.992188 342.738281 300.476562 343.511719 C 299.964844 344.28125 299.410156 345.027344 298.824219 345.742188 C 298.234375 346.460938 297.613281 347.144531 296.957031 347.800781 C 296.300781 348.457031 295.617188 349.078125 294.898438 349.667969 C 294.183594 350.257812 293.4375 350.808594 292.667969 351.324219 C 291.898438 351.839844 291.101562 352.316406 290.285156 352.753906 C 289.46875 353.191406 288.632812 353.585938 287.773438 353.941406 C 286.917969 354.296875 286.046875 354.609375 285.160156 354.878906 C 284.273438 355.148438 283.375 355.375 282.464844 355.554688 C 281.558594 355.738281 280.640625 355.875 279.71875 355.964844 C 278.796875 356.058594 277.871094 356.105469 276.945312 356.105469 Z M 94.84375 27.121094 C 94.167969 27.121094 93.492188 27.15625 92.820312 27.222656 C 92.144531 27.289062 91.476562 27.386719 90.8125 27.519531 C 90.148438 27.652344 89.492188 27.816406 88.847656 28.011719 C 88.199219 28.210938 87.5625 28.4375 86.9375 28.695312 C 86.3125 28.957031 85.699219 29.246094 85.105469 29.5625 C 84.507812 29.882812 83.925781 30.230469 83.363281 30.605469 C 82.800781 30.984375 82.257812 31.386719 81.734375 31.816406 C 81.210938 32.246094 80.710938 32.699219 80.234375 33.179688 C 79.753906 33.65625 79.300781 34.160156 78.871094 34.683594 C 78.441406 35.207031 78.039062 35.75 77.664062 36.3125 C 77.289062 36.875 76.941406 37.453125 76.621094 38.050781 C 76.300781 38.648438 76.011719 39.261719 75.753906 39.886719 C 75.496094 40.511719 75.265625 41.148438 75.070312 41.796875 C 74.875 42.445312 74.710938 43.101562 74.578125 43.765625 C 74.445312 44.429688 74.347656 45.097656 74.28125 45.769531 C 74.214844 46.445312 74.179688 47.121094 74.179688 47.796875 L 74.179688 327.789062 C 74.179688 328.464844 74.214844 329.140625 74.28125 329.8125 C 74.347656 330.488281 74.445312 331.15625 74.578125 331.820312 C 74.710938 332.484375 74.875 333.140625 75.070312 333.789062 C 75.265625 334.4375 75.496094 335.074219 75.753906 335.699219 C 76.011719 336.324219 76.300781 336.9375 76.621094 337.535156 C 76.941406 338.132812 77.289062 338.710938 77.664062 339.273438 C 78.039062 339.835938 78.441406 340.378906 78.871094 340.902344 C 79.300781 341.425781 79.753906 341.929688 80.234375 342.40625 C 80.710938 342.886719 81.210938 343.339844 81.734375 343.769531 C 82.257812 344.199219 82.800781 344.601562 83.363281 344.976562 C 83.925781 345.355469 84.507812 345.703125 85.105469 346.019531 C 85.699219 346.339844 86.3125 346.628906 86.9375 346.890625 C 87.5625 347.148438 88.199219 347.375 88.847656 347.574219 C 89.492188 347.769531 90.148438 347.933594 90.8125 348.066406 C 91.476562 348.199219 92.144531 348.296875 92.820312 348.363281 C 93.492188 348.429688 94.167969 348.460938 94.84375 348.460938 L 276.945312 348.460938 C 277.621094 348.460938 278.296875 348.429688 278.96875 348.363281 C 279.644531 348.296875 280.3125 348.199219 280.976562 348.066406 C 281.640625 347.933594 282.296875 347.769531 282.941406 347.574219 C 283.589844 347.375 284.226562 347.148438 284.851562 346.890625 C 285.476562 346.628906 286.089844 346.339844 286.6875 346.019531 C 287.28125 345.703125 287.863281 345.355469 288.425781 344.976562 C 288.988281 344.601562 289.53125 344.199219 290.054688 343.769531 C 290.578125 343.339844 291.078125 342.886719 291.554688 342.40625 C 292.035156 341.929688 292.488281 341.425781 292.917969 340.902344 C 293.347656 340.378906 293.75 339.835938 294.125 339.273438 C 294.5 338.710938 294.847656 338.132812 295.167969 337.535156 C 295.488281 336.9375 295.777344 336.324219 296.035156 335.699219 C 296.292969 335.074219 296.523438 334.4375 296.71875 333.789062 C 296.914062 333.140625 297.078125 332.484375 297.210938 331.820312 C 297.34375 331.15625 297.441406 330.488281 297.507812 329.8125 C 297.574219 329.140625 297.609375 328.464844 297.609375 327.789062 L 297.609375 47.789062 C 297.609375 47.113281 297.574219 46.4375 297.507812 45.761719 C 297.441406 45.089844 297.34375 44.421875 297.210938 43.757812 C 297.078125 43.09375 296.914062 42.4375 296.71875 41.789062 C 296.523438 41.140625 296.292969 40.503906 296.035156 39.878906 C 295.777344 39.253906 295.488281 38.640625 295.167969 38.042969 C 294.847656 37.445312 294.5 36.867188 294.125 36.304688 C 293.75 35.742188 293.347656 35.199219 292.917969 34.675781 C 292.488281 34.152344 292.035156 33.648438 291.554688 33.171875 C 291.078125 32.691406 290.578125 32.238281 290.054688 31.808594 C 289.53125 31.378906 288.988281 30.976562 288.425781 30.601562 C 287.863281 30.222656 287.28125 29.875 286.6875 29.554688 C 286.089844 29.238281 285.476562 28.949219 284.851562 28.6875 C 284.226562 28.429688 283.589844 28.203125 282.941406 28.003906 C 282.296875 27.808594 281.640625 27.644531 280.976562 27.511719 C 280.3125 27.378906 279.644531 27.28125 278.96875 27.214844 C 278.296875 27.148438 277.621094 27.117188 276.945312 27.117188 Z M 94.84375 27.121094 " fill-opacity="1" fill-rule="nonzero"/></g><path fill="#000000" d="M 283.246094 310.609375 L 88.558594 310.609375 C 88.050781 310.609375 87.5625 310.511719 87.09375 310.316406 C 86.625 310.121094 86.210938 309.847656 85.851562 309.488281 C 85.492188 309.128906 85.214844 308.714844 85.023438 308.246094 C 84.828125 307.777344 84.730469 307.289062 84.730469 306.78125 L 84.730469 68.789062 C 84.730469 68.28125 84.828125 67.792969 85.023438 67.324219 C 85.214844 66.855469 85.492188 66.441406 85.851562 66.082031 C 86.210938 65.722656 86.625 65.449219 87.09375 65.253906 C 87.5625 65.058594 88.050781 64.960938 88.558594 64.960938 L 283.246094 64.960938 C 283.753906 64.960938 284.242188 65.058594 284.710938 65.253906 C 285.179688 65.449219 285.59375 65.722656 285.953125 66.082031 C 286.3125 66.441406 286.589844 66.855469 286.78125 67.324219 C 286.976562 67.792969 287.074219 68.28125 287.074219 68.789062 L 287.074219 306.78125 C 287.074219 307.289062 286.976562 307.777344 286.78125 308.246094 C 286.589844 308.714844 286.3125 309.128906 285.953125 309.488281 C 285.59375 309.847656 285.179688 310.121094 284.710938 310.316406 C 284.242188 310.511719 283.753906 310.609375 283.246094 310.609375 Z M 92.382812 302.953125 L 279.421875 302.953125 L 279.421875 72.617188 L 92.382812 72.617188 Z M 92.382812 302.953125 " fill-opacity="1" fill-rule="nonzero"/><path fill="#000000" d="M 214.460938 50.449219 L 157.328125 50.449219 C 156.820312 50.449219 156.332031 50.355469 155.863281 50.160156 C 155.394531 49.964844 154.980469 49.6875 154.621094 49.328125 C 154.261719 48.96875 153.988281 48.554688 153.792969 48.085938 C 153.597656 47.617188 153.5 47.128906 153.5 46.621094 C 153.5 46.113281 153.597656 45.625 153.792969 45.15625 C 153.988281 44.6875 154.261719 44.273438 154.621094 43.914062 C 154.980469 43.554688 155.394531 43.28125 155.863281 43.085938 C 156.332031 42.890625 156.820312 42.792969 157.328125 42.792969 L 214.460938 42.792969 C 214.96875 42.792969 215.457031 42.890625 215.925781 43.085938 C 216.394531 43.28125 216.808594 43.554688 217.167969 43.914062 C 217.527344 44.273438 217.804688 44.6875 217.996094 45.15625 C 218.191406 45.625 218.289062 46.113281 218.289062 46.621094 C 218.289062 47.128906 218.191406 47.617188 217.996094 48.085938 C 217.804688 48.554688 217.527344 48.96875 217.167969 49.328125 C 216.808594 49.6875 216.394531 49.964844 215.925781 50.160156 C 215.457031 50.355469 214.96875 50.449219 214.460938 50.449219 Z M 214.460938 50.449219 " fill-opacity="1" fill-rule="nonzero"/><path fill="#000000" d="M 143.261719 50.449219 L 136.707031 50.449219 C 136.199219 50.449219 135.710938 50.355469 135.242188 50.160156 C 134.773438 49.964844 134.359375 49.6875 134 49.328125 C 133.640625 48.96875 133.367188 48.554688 133.171875 48.085938 C 132.976562 47.617188 132.878906 47.128906 132.878906 46.621094 C 132.878906 46.113281 132.976562 45.625 133.171875 45.15625 C 133.367188 44.6875 133.640625 44.273438 134 43.914062 C 134.359375 43.554688 134.773438 43.28125 135.242188 43.085938 C 135.710938 42.890625 136.199219 42.792969 136.707031 42.792969 L 143.261719 42.792969 C 143.769531 42.792969 144.257812 42.890625 144.726562 43.085938 C 145.195312 43.28125 145.609375 43.554688 145.96875 43.914062 C 146.324219 44.273438 146.601562 44.6875 146.796875 45.15625 C 146.992188 45.625 147.089844 46.113281 147.089844 46.621094 C 147.089844 47.128906 146.992188 47.617188 146.796875 48.085938 C 146.601562 48.554688 146.324219 48.96875 145.96875 49.328125 C 145.609375 49.6875 145.195312 49.964844 144.726562 50.160156 C 144.257812 50.355469 143.769531 50.449219 143.261719 50.449219 Z M 143.261719 50.449219 " fill-opacity="1" fill-rule="nonzero"/><path fill="#000000" d="M 185.894531 344.023438 C 184.921875 344.027344 183.960938 343.929688 183.011719 343.742188 C 182.058594 343.554688 181.136719 343.273438 180.238281 342.902344 C 179.34375 342.53125 178.492188 342.074219 177.683594 341.535156 C 176.878906 340.996094 176.132812 340.382812 175.445312 339.699219 C 174.761719 339.011719 174.148438 338.265625 173.609375 337.460938 C 173.070312 336.652344 172.613281 335.800781 172.242188 334.902344 C 171.871094 334.007812 171.59375 333.082031 171.402344 332.132812 C 171.214844 331.179688 171.117188 330.21875 171.117188 329.246094 C 171.117188 328.277344 171.214844 327.316406 171.402344 326.363281 C 171.589844 325.414062 171.871094 324.488281 172.242188 323.589844 C 172.613281 322.695312 173.070312 321.84375 173.609375 321.035156 C 174.148438 320.230469 174.757812 319.484375 175.445312 318.796875 C 176.128906 318.109375 176.875 317.496094 177.683594 316.957031 C 178.488281 316.417969 179.339844 315.964844 180.238281 315.59375 C 181.132812 315.222656 182.058594 314.941406 183.007812 314.75 C 183.960938 314.5625 184.921875 314.46875 185.890625 314.46875 C 186.859375 314.46875 187.820312 314.5625 188.773438 314.753906 C 189.722656 314.941406 190.648438 315.222656 191.542969 315.59375 C 192.4375 315.964844 193.289062 316.421875 194.097656 316.960938 C 194.902344 317.5 195.648438 318.113281 196.335938 318.796875 C 197.019531 319.484375 197.632812 320.230469 198.171875 321.039062 C 198.710938 321.84375 199.164062 322.699219 199.535156 323.59375 C 199.90625 324.492188 200.1875 325.414062 200.375 326.367188 C 200.566406 327.320312 200.660156 328.28125 200.660156 329.25 C 200.660156 330.21875 200.5625 331.179688 200.375 332.132812 C 200.183594 333.082031 199.902344 334.007812 199.53125 334.902344 C 199.160156 335.796875 198.703125 336.648438 198.167969 337.457031 C 197.628906 338.261719 197.015625 339.007812 196.328125 339.695312 C 195.644531 340.378906 194.898438 340.992188 194.09375 341.53125 C 193.289062 342.070312 192.4375 342.523438 191.542969 342.898438 C 190.644531 343.269531 189.722656 343.550781 188.773438 343.738281 C 187.820312 343.929688 186.863281 344.023438 185.894531 344.023438 Z M 185.894531 322.125 C 185.425781 322.125 184.960938 322.171875 184.503906 322.261719 C 184.046875 322.351562 183.601562 322.488281 183.167969 322.664062 C 182.738281 322.84375 182.328125 323.0625 181.9375 323.324219 C 181.550781 323.582031 181.191406 323.878906 180.859375 324.207031 C 180.527344 324.539062 180.234375 324.898438 179.972656 325.285156 C 179.714844 325.675781 179.492188 326.085938 179.316406 326.519531 C 179.136719 326.949219 179 327.394531 178.910156 327.855469 C 178.816406 328.3125 178.773438 328.773438 178.773438 329.242188 C 178.769531 329.710938 178.816406 330.171875 178.90625 330.632812 C 179 331.089844 179.132812 331.535156 179.3125 331.96875 C 179.492188 332.402344 179.710938 332.8125 179.96875 333.199219 C 180.226562 333.589844 180.523438 333.949219 180.855469 334.28125 C 181.183594 334.609375 181.542969 334.90625 181.933594 335.164062 C 182.320312 335.425781 182.730469 335.644531 183.160156 335.824219 C 183.59375 336.003906 184.039062 336.140625 184.496094 336.230469 C 184.953125 336.320312 185.417969 336.367188 185.886719 336.367188 C 186.351562 336.367188 186.816406 336.324219 187.273438 336.230469 C 187.730469 336.140625 188.175781 336.007812 188.609375 335.828125 C 189.042969 335.648438 189.453125 335.429688 189.839844 335.167969 C 190.230469 334.910156 190.589844 334.617188 190.917969 334.285156 C 191.25 333.953125 191.542969 333.59375 191.804688 333.207031 C 192.066406 332.816406 192.285156 332.40625 192.464844 331.976562 C 192.640625 331.542969 192.777344 331.097656 192.867188 330.640625 C 192.960938 330.179688 193.007812 329.71875 193.007812 329.25 C 193.007812 328.78125 192.960938 328.320312 192.867188 327.863281 C 192.777344 327.402344 192.644531 326.957031 192.464844 326.527344 C 192.285156 326.09375 192.066406 325.683594 191.808594 325.296875 C 191.546875 324.90625 191.253906 324.546875 190.921875 324.214844 C 190.59375 323.886719 190.234375 323.589844 189.84375 323.328125 C 189.457031 323.070312 189.046875 322.851562 188.613281 322.671875 C 188.183594 322.492188 187.738281 322.355469 187.28125 322.265625 C 186.824219 322.171875 186.359375 322.125 185.894531 322.125 Z M 185.894531 322.125 " fill-opacity="1" fill-rule="nonzero"/><path fill="#000000" d="M 159.519531 124.996094 C 158.878906 124.707031 158.257812 124.375 157.667969 123.996094 C 157.074219 123.617188 156.511719 123.195312 155.980469 122.734375 C 155.449219 122.269531 154.957031 121.769531 154.5 121.234375 C 154.046875 120.699219 153.632812 120.128906 153.261719 119.53125 C 152.890625 118.933594 152.566406 118.3125 152.289062 117.664062 C 152.007812 117.015625 151.78125 116.355469 151.601562 115.671875 C 151.421875 114.992188 151.292969 114.300781 151.21875 113.601562 C 151.144531 112.902344 151.121094 112.199219 151.148438 111.496094 L 151.148438 89.433594 C 151.136719 88.730469 151.375 88.125 151.871094 87.625 C 152.351562 87.101562 152.949219 86.847656 153.65625 86.859375 C 154 86.859375 154.324219 86.921875 154.640625 87.054688 C 154.953125 87.183594 155.230469 87.367188 155.472656 87.609375 C 155.714844 87.847656 155.898438 88.125 156.027344 88.441406 C 156.160156 88.753906 156.226562 89.082031 156.226562 89.421875 L 156.226562 111.65625 C 156.160156 113.707031 156.671875 115.605469 157.757812 117.34375 C 158.765625 118.910156 160.113281 120.082031 161.800781 120.867188 C 163.5 121.652344 165.285156 122.042969 167.15625 122.042969 C 169.03125 122.042969 170.816406 121.652344 172.515625 120.867188 C 174.203125 120.082031 175.550781 118.910156 176.558594 117.34375 C 177.644531 115.605469 178.152344 113.707031 178.089844 111.65625 L 178.089844 89.433594 C 178.078125 88.730469 178.320312 88.125 178.8125 87.625 C 179.296875 87.101562 179.890625 86.847656 180.601562 86.859375 C 180.941406 86.859375 181.269531 86.921875 181.582031 87.054688 C 181.898438 87.183594 182.175781 87.367188 182.414062 87.609375 C 182.65625 87.847656 182.839844 88.125 182.972656 88.441406 C 183.101562 88.753906 183.167969 89.082031 183.167969 89.421875 L 183.167969 111.484375 C 183.21875 112.972656 183.042969 114.4375 182.644531 115.875 C 182.246094 117.3125 181.640625 118.65625 180.828125 119.90625 C 179.304688 122.171875 177.296875 123.871094 174.8125 124.996094 C 173.613281 125.546875 172.367188 125.96875 171.074219 126.25 C 169.785156 126.535156 168.480469 126.675781 167.15625 126.675781 C 165.835938 126.675781 164.53125 126.535156 163.242188 126.25 C 161.949219 125.96875 160.703125 125.546875 159.503906 124.996094 Z M 159.519531 124.996094 " fill-opacity="1" fill-rule="nonzero"/><path fill="#000000" d="M 167.164062 127.449219 C 164.386719 127.449219 161.730469 126.867188 159.203125 125.707031 C 158.527344 125.40625 157.875 125.054688 157.253906 124.652344 C 156.628906 124.253906 156.039062 123.8125 155.480469 123.324219 C 154.921875 122.835938 154.402344 122.308594 153.921875 121.746094 C 153.441406 121.179688 153.007812 120.582031 152.617188 119.953125 C 152.226562 119.324219 151.882812 118.667969 151.589844 117.988281 C 151.296875 117.308594 151.054688 116.609375 150.867188 115.890625 C 150.675781 115.175781 150.542969 114.449219 150.460938 113.710938 C 150.378906 112.976562 150.355469 112.234375 150.382812 111.496094 L 150.382812 89.433594 C 150.375 88.761719 150.558594 88.148438 150.925781 87.589844 C 151.296875 87.027344 151.789062 86.617188 152.40625 86.359375 C 153.027344 86.101562 153.664062 86.039062 154.324219 86.171875 C 154.980469 86.304688 155.542969 86.609375 156.015625 87.085938 C 156.679688 87.730469 157.003906 88.511719 156.992188 89.433594 L 156.992188 111.667969 C 156.933594 113.574219 157.410156 115.335938 158.417969 116.953125 C 159.351562 118.394531 160.59375 119.476562 162.148438 120.203125 C 163.75 120.933594 165.425781 121.296875 167.183594 121.296875 C 168.941406 121.296875 170.621094 120.933594 172.21875 120.203125 C 173.773438 119.476562 175.015625 118.394531 175.949219 116.957031 C 176.945312 115.34375 177.414062 113.585938 177.355469 111.6875 L 177.355469 89.433594 C 177.347656 88.761719 177.53125 88.148438 177.898438 87.589844 C 178.269531 87.027344 178.761719 86.617188 179.382812 86.359375 C 180 86.101562 180.636719 86.039062 181.296875 86.171875 C 181.953125 86.304688 182.515625 86.609375 182.988281 87.085938 C 183.652344 87.730469 183.976562 88.511719 183.964844 89.433594 L 183.964844 111.496094 C 183.992188 112.234375 183.96875 112.972656 183.886719 113.710938 C 183.808594 114.445312 183.671875 115.171875 183.484375 115.890625 C 183.292969 116.605469 183.054688 117.304688 182.761719 117.984375 C 182.46875 118.664062 182.128906 119.320312 181.738281 119.949219 C 181.347656 120.578125 180.914062 121.175781 180.433594 121.742188 C 179.957031 122.304688 179.4375 122.832031 178.882812 123.320312 C 178.324219 123.808594 177.734375 124.253906 177.109375 124.652344 C 176.488281 125.050781 175.839844 125.402344 175.164062 125.707031 C 172.625 126.871094 169.957031 127.453125 167.164062 127.449219 Z M 153.65625 87.632812 C 153.164062 87.613281 152.753906 87.789062 152.421875 88.152344 C 152.070312 88.503906 151.898438 88.933594 151.910156 89.429688 L 151.910156 111.492188 C 151.816406 114.378906 152.554688 117.035156 154.117188 119.460938 C 155.566406 121.617188 157.46875 123.234375 159.835938 124.304688 C 160.984375 124.832031 162.175781 125.230469 163.410156 125.5 C 164.648438 125.769531 165.898438 125.90625 167.160156 125.90625 C 168.425781 125.90625 169.675781 125.769531 170.910156 125.5 C 172.148438 125.230469 173.339844 124.832031 174.488281 124.304688 C 176.851562 123.234375 178.757812 121.617188 180.203125 119.460938 C 180.96875 118.277344 181.539062 117.003906 181.914062 115.644531 C 182.292969 114.285156 182.457031 112.902344 182.410156 111.492188 L 182.410156 89.433594 C 182.410156 89.074219 182.3125 88.746094 182.113281 88.445312 C 181.914062 88.148438 181.648438 87.925781 181.316406 87.789062 C 180.988281 87.648438 180.644531 87.613281 180.292969 87.679688 C 179.9375 87.746094 179.632812 87.90625 179.375 88.15625 C 179.023438 88.507812 178.851562 88.9375 178.863281 89.433594 L 178.863281 111.667969 C 178.925781 113.871094 178.371094 115.90625 177.203125 117.773438 C 176.113281 119.460938 174.664062 120.726562 172.84375 121.574219 C 171.953125 121.980469 171.027344 122.289062 170.070312 122.5 C 169.113281 122.707031 168.144531 122.8125 167.160156 122.8125 C 166.179688 122.8125 165.210938 122.707031 164.253906 122.5 C 163.296875 122.289062 162.371094 121.980469 161.480469 121.574219 C 159.660156 120.726562 158.207031 119.457031 157.117188 117.769531 C 155.945312 115.902344 155.390625 113.867188 155.453125 111.664062 L 155.453125 89.433594 C 155.460938 88.933594 155.285156 88.511719 154.925781 88.167969 C 154.582031 87.800781 154.15625 87.621094 153.65625 87.636719 Z M 153.65625 87.632812 " fill-opacity="1" fill-rule="nonzero"/><path fill="#000000" d="M 191.46875 125.710938 C 190.996094 125.261719 190.761719 124.710938 190.769531 124.058594 C 190.757812 123.480469 190.925781 122.957031 191.273438 122.496094 L 204.164062 106.617188 L 191.382812 90.871094 C 191.039062 90.40625 190.871094 89.886719 190.882812 89.308594 C 190.871094 88.980469 190.929688 88.664062 191.046875 88.355469 C 191.167969 88.050781 191.347656 87.78125 191.578125 87.550781 C 191.8125 87.316406 192.078125 87.140625 192.386719 87.019531 C 192.691406 86.898438 193.007812 86.84375 193.335938 86.855469 C 193.75 86.851562 194.140625 86.945312 194.511719 87.128906 C 194.863281 87.300781 195.164062 87.542969 195.402344 87.855469 L 207.179688 102.828125 L 218.957031 87.746094 C 219.164062 87.445312 219.433594 87.21875 219.761719 87.058594 C 220.089844 86.898438 220.433594 86.832031 220.796875 86.855469 C 221.472656 86.84375 222.046875 87.078125 222.527344 87.550781 C 223.023438 88.011719 223.265625 88.578125 223.253906 89.253906 C 223.261719 89.769531 223.113281 90.238281 222.808594 90.652344 L 209.910156 106.566406 L 222.808594 122.425781 C 223.164062 122.84375 223.332031 123.328125 223.308594 123.878906 C 223.328125 124.570312 223.09375 125.167969 222.613281 125.664062 C 222.480469 125.792969 222.339844 125.90625 222.183594 126.003906 C 222.03125 126.101562 221.867188 126.179688 221.695312 126.242188 C 221.523438 126.304688 221.347656 126.347656 221.164062 126.371094 C 220.984375 126.394531 220.804688 126.398438 220.621094 126.382812 C 220.4375 126.367188 220.261719 126.328125 220.085938 126.273438 C 219.914062 126.21875 219.746094 126.148438 219.585938 126.058594 C 219.429688 125.964844 219.28125 125.859375 219.148438 125.734375 C 219.011719 125.613281 218.890625 125.476562 218.785156 125.328125 L 206.84375 110.304688 L 195.066406 125.390625 C 194.574219 126.039062 193.925781 126.375 193.109375 126.390625 C 192.464844 126.398438 191.917969 126.171875 191.46875 125.710938 Z M 191.46875 125.710938 " fill-opacity="1" fill-rule="nonzero"/><path fill="#000000" d="M 220.789062 127.167969 C 220.265625 127.171875 219.773438 127.050781 219.308594 126.808594 C 218.84375 126.566406 218.460938 126.226562 218.164062 125.796875 L 206.851562 111.554688 L 195.667969 125.875 C 195.539062 126.058594 195.386719 126.226562 195.21875 126.375 C 195.050781 126.527344 194.867188 126.660156 194.667969 126.769531 C 194.472656 126.878906 194.265625 126.96875 194.050781 127.035156 C 193.832031 127.101562 193.613281 127.144531 193.386719 127.160156 C 193.160156 127.179688 192.9375 127.171875 192.714844 127.144531 C 192.488281 127.113281 192.269531 127.058594 192.058594 126.980469 C 191.847656 126.902344 191.644531 126.800781 191.453125 126.679688 C 191.265625 126.558594 191.089844 126.417969 190.929688 126.257812 C 190.300781 125.660156 189.992188 124.929688 190.003906 124.066406 C 189.992188 123.316406 190.210938 122.640625 190.660156 122.042969 L 203.1875 106.617188 L 190.792969 91.351562 C 190.335938 90.75 190.113281 90.066406 190.125 89.308594 C 190.101562 88.410156 190.410156 87.644531 191.050781 87.011719 C 191.300781 86.769531 191.582031 86.574219 191.894531 86.421875 C 192.203125 86.265625 192.53125 86.167969 192.875 86.117188 C 193.21875 86.066406 193.558594 86.070312 193.902344 86.125 C 194.246094 86.183594 194.570312 86.292969 194.878906 86.453125 C 195.335938 86.679688 195.71875 86.996094 196.027344 87.402344 L 207.183594 101.589844 L 218.359375 87.273438 C 218.5 87.105469 218.65625 86.949219 218.832031 86.808594 C 219.003906 86.671875 219.1875 86.550781 219.382812 86.453125 C 219.582031 86.351562 219.785156 86.273438 220 86.214844 C 220.214844 86.15625 220.429688 86.121094 220.652344 86.109375 C 220.871094 86.09375 221.09375 86.105469 221.3125 86.136719 C 221.53125 86.167969 221.742188 86.222656 221.949219 86.300781 C 222.160156 86.378906 222.355469 86.476562 222.542969 86.59375 C 222.730469 86.710938 222.90625 86.847656 223.0625 87 C 223.71875 87.609375 224.039062 88.363281 224.027344 89.257812 C 224.035156 89.9375 223.835938 90.554688 223.433594 91.105469 L 210.90625 106.570312 L 223.40625 121.949219 C 223.882812 122.5 224.105469 123.136719 224.085938 123.863281 C 224.105469 124.761719 223.800781 125.535156 223.171875 126.179688 C 222.527344 126.867188 221.734375 127.195312 220.789062 127.167969 Z M 206.835938 109.082031 L 219.378906 124.867188 C 219.585938 125.195312 219.871094 125.425781 220.234375 125.5625 C 220.59375 125.695312 220.960938 125.707031 221.332031 125.59375 C 221.703125 125.476562 222 125.261719 222.222656 124.945312 C 222.445312 124.632812 222.550781 124.28125 222.535156 123.890625 C 222.558594 123.539062 222.457031 123.226562 222.230469 122.953125 L 208.929688 106.582031 L 222.210938 90.183594 C 222.402344 89.910156 222.496094 89.605469 222.488281 89.269531 C 222.503906 88.8125 222.339844 88.429688 222 88.121094 C 221.667969 87.789062 221.269531 87.628906 220.796875 87.640625 C 220.285156 87.585938 219.882812 87.773438 219.589844 88.199219 L 207.183594 104.085938 L 194.800781 88.351562 C 194.632812 88.125 194.421875 87.953125 194.164062 87.835938 C 193.832031 87.660156 193.476562 87.597656 193.101562 87.648438 C 192.726562 87.695312 192.398438 87.851562 192.121094 88.109375 C 191.785156 88.445312 191.628906 88.851562 191.648438 89.328125 C 191.632812 89.734375 191.75 90.101562 191.996094 90.429688 L 205.152344 106.617188 L 191.871094 122.960938 C 191.636719 123.285156 191.527344 123.644531 191.535156 124.042969 C 191.53125 124.480469 191.6875 124.851562 192.007812 125.152344 C 192.175781 125.328125 192.375 125.457031 192.601562 125.539062 C 192.828125 125.621094 193.0625 125.652344 193.304688 125.625 C 193.542969 125.601562 193.765625 125.527344 193.972656 125.398438 C 194.179688 125.269531 194.347656 125.105469 194.476562 124.898438 Z M 206.835938 109.082031 " fill-opacity="1" fill-rule="nonzero"/><path fill="#000000" d="M 165.226562 197.804688 C 164.582031 197.515625 163.964844 197.183594 163.371094 196.804688 C 162.777344 196.425781 162.214844 196.003906 161.683594 195.539062 C 161.152344 195.078125 160.660156 194.574219 160.203125 194.039062 C 159.75 193.5 159.335938 192.933594 158.964844 192.335938 C 158.59375 191.734375 158.265625 191.113281 157.988281 190.464844 C 157.710938 189.816406 157.480469 189.152344 157.304688 188.46875 C 157.125 187.789062 156.996094 187.097656 156.921875 186.398438 C 156.84375 185.695312 156.820312 184.992188 156.847656 184.289062 L 156.847656 162.234375 C 156.835938 161.523438 157.078125 160.917969 157.578125 160.414062 C 158.058594 159.894531 158.652344 159.640625 159.359375 159.648438 C 159.699219 159.648438 160.027344 159.714844 160.34375 159.84375 C 160.65625 159.976562 160.9375 160.160156 161.175781 160.402344 C 161.417969 160.644531 161.601562 160.921875 161.734375 161.238281 C 161.863281 161.550781 161.929688 161.878906 161.925781 162.222656 L 161.925781 184.425781 C 161.863281 186.484375 162.371094 188.382812 163.457031 190.128906 C 164.464844 191.691406 165.8125 192.863281 167.503906 193.644531 C 169.203125 194.421875 170.988281 194.8125 172.859375 194.8125 C 174.730469 194.8125 176.515625 194.421875 178.21875 193.644531 C 179.90625 192.863281 181.253906 191.691406 182.261719 190.128906 C 183.347656 188.382812 183.855469 186.480469 183.792969 184.425781 L 183.792969 162.222656 C 183.78125 161.511719 184.023438 160.90625 184.519531 160.402344 C 185 159.882812 185.59375 159.628906 186.300781 159.636719 C 186.644531 159.636719 186.972656 159.703125 187.285156 159.832031 C 187.601562 159.964844 187.878906 160.148438 188.121094 160.390625 C 188.359375 160.632812 188.546875 160.910156 188.675781 161.226562 C 188.804688 161.539062 188.871094 161.867188 188.871094 162.210938 L 188.871094 184.265625 C 188.917969 185.757812 188.746094 187.222656 188.34375 188.65625 C 187.945312 190.09375 187.339844 191.4375 186.527344 192.691406 C 185.003906 194.964844 182.996094 196.667969 180.5 197.796875 C 179.300781 198.347656 178.054688 198.765625 176.765625 199.050781 C 175.476562 199.332031 174.167969 199.472656 172.847656 199.472656 C 171.527344 199.472656 170.222656 199.332031 168.929688 199.050781 C 167.640625 198.765625 166.394531 198.347656 165.195312 197.796875 Z M 165.226562 197.804688 " fill-opacity="1" fill-rule="nonzero"/><path fill="#000000" d="M 172.871094 200.242188 C 170.097656 200.238281 167.445312 199.660156 164.921875 198.503906 C 162.300781 197.320312 160.1875 195.53125 158.578125 193.144531 C 157.726562 191.832031 157.089844 190.421875 156.664062 188.914062 C 156.242188 187.40625 156.054688 185.871094 156.097656 184.304688 L 156.097656 162.234375 C 156.089844 161.558594 156.269531 160.941406 156.636719 160.378906 C 157.003906 159.816406 157.496094 159.40625 158.117188 159.148438 C 158.738281 158.886719 159.375 158.824219 160.035156 158.953125 C 160.695312 159.085938 161.261719 159.390625 161.730469 159.871094 C 162.398438 160.515625 162.726562 161.304688 162.710938 162.234375 L 162.710938 184.4375 C 162.652344 186.339844 163.121094 188.101562 164.121094 189.71875 C 165.050781 191.15625 166.292969 192.238281 167.847656 192.957031 C 169.445312 193.6875 171.125 194.054688 172.882812 194.054688 C 174.640625 194.054688 176.320312 193.6875 177.917969 192.957031 C 179.472656 192.234375 180.71875 191.15625 181.648438 189.714844 C 182.648438 188.097656 183.117188 186.335938 183.058594 184.433594 L 183.058594 162.230469 C 183.046875 161.554688 183.226562 160.9375 183.59375 160.375 C 183.960938 159.8125 184.457031 159.402344 185.074219 159.144531 C 185.695312 158.882812 186.335938 158.820312 186.992188 158.949219 C 187.652344 159.082031 188.21875 159.386719 188.691406 159.867188 C 189.355469 160.511719 189.679688 161.300781 189.664062 162.230469 L 189.664062 184.285156 C 189.710938 185.851562 189.523438 187.386719 189.101562 188.894531 C 188.679688 190.398438 188.042969 191.808594 187.191406 193.121094 C 185.582031 195.507812 183.46875 197.296875 180.847656 198.484375 C 178.316406 199.648438 175.660156 200.238281 172.871094 200.242188 Z M 159.359375 160.425781 C 158.867188 160.414062 158.457031 160.589844 158.125 160.949219 C 157.773438 161.304688 157.601562 161.734375 157.613281 162.234375 L 157.613281 184.289062 C 157.523438 187.179688 158.261719 189.835938 159.828125 192.265625 C 161.273438 194.421875 163.175781 196.03125 165.539062 197.105469 C 166.6875 197.632812 167.882812 198.03125 169.117188 198.304688 C 170.351562 198.574219 171.601562 198.710938 172.867188 198.710938 C 174.132812 198.710938 175.382812 198.574219 176.617188 198.304688 C 177.855469 198.03125 179.046875 197.632812 180.195312 197.105469 C 182.558594 196.035156 184.464844 194.417969 185.90625 192.261719 C 187.472656 189.832031 188.207031 187.175781 188.117188 184.289062 L 188.117188 162.234375 C 188.128906 161.730469 187.953125 161.304688 187.589844 160.957031 C 187.425781 160.785156 187.234375 160.652344 187.015625 160.558594 C 186.796875 160.464844 186.570312 160.417969 186.332031 160.417969 C 186.09375 160.417969 185.867188 160.464844 185.648438 160.558594 C 185.433594 160.652344 185.242188 160.785156 185.078125 160.957031 C 184.726562 161.3125 184.558594 161.742188 184.570312 162.242188 L 184.570312 184.445312 C 184.632812 186.65625 184.078125 188.699219 182.90625 190.574219 C 181.820312 192.257812 180.367188 193.519531 178.546875 194.363281 C 177.65625 194.773438 176.730469 195.082031 175.773438 195.292969 C 174.8125 195.5 173.84375 195.605469 172.863281 195.605469 C 171.882812 195.605469 170.914062 195.5 169.957031 195.292969 C 168.996094 195.082031 168.074219 194.773438 167.179688 194.363281 C 165.359375 193.523438 163.910156 192.261719 162.824219 190.578125 C 161.652344 188.703125 161.09375 186.660156 161.15625 184.449219 L 161.15625 162.246094 C 161.171875 161.742188 160.996094 161.316406 160.628906 160.96875 C 160.285156 160.601562 159.863281 160.421875 159.359375 160.425781 Z M 159.359375 160.425781 " fill-opacity="1" fill-rule="nonzero"/><path fill="#000000" d="M 200.160156 198.476562 C 199.664062 197.984375 199.417969 197.390625 199.433594 196.691406 L 199.433594 162.234375 C 199.421875 161.523438 199.664062 160.917969 200.160156 160.414062 C 200.640625 159.894531 201.238281 159.636719 201.945312 159.648438 C 202.285156 159.648438 202.613281 159.714844 202.925781 159.847656 C 203.242188 159.976562 203.519531 160.164062 203.761719 160.40625 C 204 160.644531 204.1875 160.921875 204.316406 161.238281 C 204.445312 161.554688 204.511719 161.878906 204.511719 162.222656 L 204.511719 196.679688 C 204.523438 197.386719 204.269531 197.984375 203.746094 198.464844 C 203.242188 198.957031 202.640625 199.199219 201.933594 199.191406 C 201.242188 199.203125 200.652344 198.964844 200.160156 198.476562 Z M 200.160156 198.476562 " fill-opacity="1" fill-rule="nonzero"/><path fill="#000000" d="M 201.945312 199.96875 C 201.035156 199.984375 200.261719 199.667969 199.621094 199.019531 C 198.972656 198.378906 198.65625 197.601562 198.671875 196.691406 L 198.671875 162.234375 C 198.65625 161.316406 198.972656 160.53125 199.613281 159.878906 C 199.925781 159.566406 200.285156 159.328125 200.691406 159.160156 C 201.097656 158.996094 201.519531 158.910156 201.960938 158.910156 C 202.398438 158.910156 202.824219 158.996094 203.230469 159.160156 C 203.636719 159.328125 203.996094 159.566406 204.304688 159.878906 C 204.972656 160.523438 205.296875 161.3125 205.28125 162.242188 L 205.28125 196.699219 C 205.296875 197.625 204.96875 198.402344 204.292969 199.039062 C 203.640625 199.671875 202.855469 199.980469 201.945312 199.96875 Z M 200.699219 197.933594 C 200.867188 198.097656 201.0625 198.226562 201.28125 198.3125 C 201.5 198.402344 201.726562 198.445312 201.964844 198.445312 C 202.199219 198.445312 202.429688 198.402344 202.648438 198.3125 C 202.867188 198.226562 203.0625 198.097656 203.230469 197.933594 C 203.589844 197.601562 203.761719 197.191406 203.746094 196.703125 L 203.746094 162.246094 C 203.761719 161.742188 203.585938 161.316406 203.21875 160.96875 C 202.964844 160.710938 202.664062 160.542969 202.308594 160.472656 C 201.953125 160.402344 201.609375 160.4375 201.277344 160.578125 C 200.941406 160.71875 200.675781 160.941406 200.480469 161.246094 C 200.285156 161.550781 200.191406 161.882812 200.199219 162.246094 L 200.199219 196.703125 C 200.191406 197.183594 200.355469 197.59375 200.699219 197.933594 Z M 200.699219 197.933594 " fill-opacity="1" fill-rule="nonzero"/><path fill="#000000" d="M 260.585938 145.351562 L 111.1875 145.351562 C 110.679688 145.351562 110.191406 145.253906 109.722656 145.0625 C 109.253906 144.867188 108.839844 144.589844 108.480469 144.230469 C 108.121094 143.871094 107.847656 143.457031 107.652344 142.988281 C 107.457031 142.519531 107.359375 142.03125 107.359375 141.523438 C 107.359375 141.015625 107.457031 140.527344 107.652344 140.058594 C 107.847656 139.589844 108.121094 139.175781 108.480469 138.816406 C 108.839844 138.457031 109.253906 138.179688 109.722656 137.984375 C 110.191406 137.792969 110.679688 137.695312 111.1875 137.695312 L 260.585938 137.695312 C 261.09375 137.695312 261.582031 137.792969 262.050781 137.984375 C 262.519531 138.179688 262.933594 138.457031 263.292969 138.816406 C 263.652344 139.175781 263.929688 139.589844 264.121094 140.058594 C 264.316406 140.527344 264.414062 141.015625 264.414062 141.523438 C 264.414062 142.03125 264.316406 142.519531 264.121094 142.988281 C 263.929688 143.457031 263.652344 143.871094 263.292969 144.230469 C 262.933594 144.589844 262.519531 144.867188 262.050781 145.0625 C 261.582031 145.253906 261.09375 145.351562 260.585938 145.351562 Z M 260.585938 145.351562 " fill-opacity="1" fill-rule="nonzero"/><path fill="#000000" d="M 257.390625 287.675781 L 114.414062 287.675781 C 113.90625 287.675781 113.417969 287.578125 112.949219 287.382812 C 112.480469 287.1875 112.066406 286.914062 111.707031 286.554688 C 111.347656 286.195312 111.070312 285.78125 110.878906 285.3125 C 110.683594 284.84375 110.585938 284.355469 110.585938 283.847656 C 110.585938 283.339844 110.683594 282.851562 110.878906 282.382812 C 111.070312 281.910156 111.347656 281.5 111.707031 281.140625 C 112.066406 280.78125 112.480469 280.503906 112.949219 280.308594 C 113.417969 280.113281 113.90625 280.019531 114.414062 280.019531 L 257.390625 280.019531 C 257.898438 280.019531 258.386719 280.113281 258.855469 280.308594 C 259.324219 280.503906 259.738281 280.78125 260.097656 281.140625 C 260.457031 281.5 260.734375 281.910156 260.925781 282.382812 C 261.121094 282.851562 261.21875 283.339844 261.21875 283.847656 C 261.21875 284.355469 261.121094 284.84375 260.925781 285.3125 C 260.734375 285.78125 260.457031 286.195312 260.097656 286.554688 C 259.738281 286.914062 259.324219 287.1875 258.855469 287.382812 C 258.386719 287.578125 257.898438 287.675781 257.390625 287.675781 Z M 257.390625 287.675781 " fill-opacity="1" fill-rule="nonzero"/><path fill="#000000" d="M 233.914062 268.5 L 137.871094 268.5 C 137.363281 268.5 136.875 268.402344 136.40625 268.210938 C 135.9375 268.015625 135.523438 267.738281 135.164062 267.378906 C 134.804688 267.019531 134.527344 266.605469 134.335938 266.136719 C 134.140625 265.667969 134.042969 265.179688 134.042969 264.671875 C 134.042969 264.164062 134.140625 263.675781 134.335938 263.207031 C 134.527344 262.738281 134.804688 262.324219 135.164062 261.964844 C 135.523438 261.605469 135.9375 261.328125 136.40625 261.136719 C 136.875 260.941406 137.363281 260.84375 137.871094 260.84375 L 233.914062 260.84375 C 234.421875 260.84375 234.910156 260.941406 235.378906 261.136719 C 235.847656 261.328125 236.261719 261.605469 236.621094 261.964844 C 236.980469 262.324219 237.257812 262.738281 237.449219 263.207031 C 237.644531 263.675781 237.742188 264.164062 237.742188 264.671875 C 237.742188 265.179688 237.644531 265.667969 237.449219 266.136719 C 237.257812 266.605469 236.980469 267.019531 236.621094 267.378906 C 236.261719 267.738281 235.847656 268.015625 235.378906 268.210938 C 234.910156 268.402344 234.421875 268.5 233.914062 268.5 Z M 233.914062 268.5 " fill-opacity="1" fill-rule="nonzero"/><path fill="#000000" d="M 213.578125 251.585938 L 158.207031 251.585938 C 157.507812 251.585938 156.8125 251.515625 156.125 251.378906 C 155.4375 251.242188 154.773438 251.039062 154.125 250.769531 C 153.476562 250.5 152.863281 250.171875 152.28125 249.78125 C 151.699219 249.390625 151.160156 248.949219 150.664062 248.453125 C 150.167969 247.957031 149.726562 247.417969 149.335938 246.835938 C 148.945312 246.253906 148.617188 245.636719 148.347656 244.988281 C 148.078125 244.34375 147.878906 243.675781 147.738281 242.988281 C 147.601562 242.300781 147.53125 241.605469 147.53125 240.902344 L 147.53125 222.910156 C 147.53125 222.207031 147.601562 221.515625 147.738281 220.828125 C 147.878906 220.140625 148.078125 219.472656 148.347656 218.824219 C 148.617188 218.175781 148.945312 217.5625 149.335938 216.976562 C 149.726562 216.394531 150.167969 215.855469 150.664062 215.359375 C 151.160156 214.863281 151.699219 214.421875 152.28125 214.03125 C 152.863281 213.644531 153.476562 213.3125 154.125 213.042969 C 154.773438 212.777344 155.4375 212.574219 156.125 212.433594 C 156.8125 212.296875 157.507812 212.226562 158.207031 212.226562 L 213.578125 212.226562 C 214.277344 212.226562 214.972656 212.296875 215.660156 212.433594 C 216.347656 212.570312 217.015625 212.773438 217.660156 213.042969 C 218.308594 213.3125 218.921875 213.640625 219.507812 214.03125 C 220.089844 214.421875 220.628906 214.863281 221.125 215.359375 C 221.617188 215.855469 222.0625 216.394531 222.449219 216.976562 C 222.839844 217.558594 223.167969 218.175781 223.4375 218.824219 C 223.707031 219.472656 223.910156 220.136719 224.046875 220.828125 C 224.183594 221.515625 224.253906 222.207031 224.253906 222.910156 L 224.253906 240.902344 C 224.253906 241.605469 224.183594 242.300781 224.046875 242.988281 C 223.910156 243.675781 223.707031 244.34375 223.4375 244.988281 C 223.167969 245.636719 222.839844 246.253906 222.449219 246.835938 C 222.0625 247.417969 221.617188 247.957031 221.125 248.453125 C 220.628906 248.949219 220.089844 249.394531 219.507812 249.78125 C 218.921875 250.171875 218.308594 250.5 217.660156 250.769531 C 217.015625 251.039062 216.347656 251.242188 215.660156 251.378906 C 214.972656 251.515625 214.277344 251.585938 213.578125 251.585938 Z M 158.207031 219.882812 C 157.808594 219.886719 157.421875 219.960938 157.050781 220.117188 C 156.679688 220.269531 156.355469 220.488281 156.070312 220.773438 C 155.789062 221.054688 155.570312 221.382812 155.417969 221.753906 C 155.261719 222.121094 155.183594 222.507812 155.183594 222.910156 L 155.183594 240.902344 C 155.183594 241.304688 155.261719 241.691406 155.417969 242.0625 C 155.570312 242.429688 155.789062 242.757812 156.070312 243.042969 C 156.355469 243.324219 156.679688 243.542969 157.050781 243.699219 C 157.421875 243.851562 157.808594 243.929688 158.207031 243.929688 L 213.578125 243.929688 C 213.976562 243.929688 214.363281 243.851562 214.734375 243.699219 C 215.105469 243.542969 215.429688 243.324219 215.714844 243.042969 C 215.996094 242.757812 216.214844 242.429688 216.371094 242.0625 C 216.523438 241.691406 216.601562 241.304688 216.601562 240.902344 L 216.601562 222.910156 C 216.601562 222.507812 216.523438 222.121094 216.371094 221.753906 C 216.214844 221.382812 215.996094 221.054688 215.714844 220.773438 C 215.429688 220.488281 215.105469 220.269531 214.734375 220.117188 C 214.363281 219.960938 213.976562 219.886719 213.578125 219.882812 Z M 158.207031 219.882812 " fill-opacity="1" fill-rule="nonzero"/><path fill="#000000" d="M 324.488281 109.15625 L 260.585938 109.15625 C 260.078125 109.15625 259.589844 109.058594 259.121094 108.863281 C 258.652344 108.671875 258.238281 108.394531 257.882812 108.035156 C 257.523438 107.675781 257.246094 107.261719 257.050781 106.792969 C 256.855469 106.324219 256.761719 105.835938 256.761719 105.328125 C 256.761719 104.820312 256.855469 104.332031 257.050781 103.863281 C 257.246094 103.394531 257.523438 102.980469 257.882812 102.621094 C 258.238281 102.261719 258.652344 101.984375 259.121094 101.789062 C 259.589844 101.597656 260.078125 101.5 260.585938 101.5 L 324.488281 101.5 C 324.996094 101.5 325.484375 101.597656 325.953125 101.789062 C 326.421875 101.984375 326.835938 102.261719 327.195312 102.621094 C 327.554688 102.980469 327.832031 103.394531 328.023438 103.863281 C 328.21875 104.332031 328.316406 104.820312 328.316406 105.328125 C 328.316406 105.835938 328.21875 106.324219 328.023438 106.792969 C 327.832031 107.261719 327.554688 107.675781 327.195312 108.035156 C 326.835938 108.394531 326.421875 108.671875 325.953125 108.863281 C 325.484375 109.058594 324.996094 109.15625 324.488281 109.15625 Z M 324.488281 109.15625 " fill-opacity="1" fill-rule="nonzero"/><path fill="#000000" d="M 371.171875 132.519531 L 324.488281 132.519531 C 323.980469 132.519531 323.496094 132.421875 323.027344 132.226562 C 322.554688 132.03125 322.144531 131.757812 321.785156 131.398438 C 321.425781 131.039062 321.148438 130.625 320.953125 130.15625 C 320.761719 129.6875 320.664062 129.199219 320.664062 128.691406 L 320.664062 81.980469 C 320.664062 81.472656 320.761719 80.984375 320.953125 80.515625 C 321.148438 80.046875 321.425781 79.632812 321.785156 79.273438 C 322.144531 78.914062 322.554688 78.636719 323.027344 78.441406 C 323.496094 78.25 323.980469 78.152344 324.488281 78.152344 L 371.171875 78.152344 C 371.679688 78.152344 372.167969 78.25 372.636719 78.441406 C 373.105469 78.636719 373.519531 78.914062 373.878906 79.273438 C 374.238281 79.632812 374.515625 80.046875 374.707031 80.515625 C 374.902344 80.984375 375 81.472656 375 81.980469 L 375 128.691406 C 375 129.199219 374.902344 129.6875 374.707031 130.15625 C 374.515625 130.625 374.238281 131.039062 373.878906 131.398438 C 373.519531 131.757812 373.105469 132.03125 372.636719 132.226562 C 372.167969 132.421875 371.679688 132.519531 371.171875 132.519531 Z M 328.316406 124.859375 L 367.347656 124.859375 L 367.347656 85.808594 L 328.316406 85.808594 Z M 328.316406 124.859375 " fill-opacity="1" fill-rule="nonzero"/><path fill="#000000" d="M 357.582031 102.332031 L 338.066406 102.332031 C 337.558594 102.332031 337.070312 102.234375 336.601562 102.042969 C 336.132812 101.847656 335.71875 101.570312 335.359375 101.210938 C 335 100.851562 334.726562 100.4375 334.53125 99.96875 C 334.335938 99.5 334.238281 99.011719 334.238281 98.503906 C 334.238281 97.996094 334.335938 97.507812 334.53125 97.039062 C 334.726562 96.570312 335 96.15625 335.359375 95.796875 C 335.71875 95.4375 336.132812 95.160156 336.601562 94.96875 C 337.070312 94.773438 337.558594 94.675781 338.066406 94.675781 L 357.582031 94.675781 C 358.089844 94.675781 358.578125 94.773438 359.046875 94.96875 C 359.515625 95.160156 359.929688 95.4375 360.289062 95.796875 C 360.644531 96.15625 360.921875 96.570312 361.117188 97.039062 C 361.3125 97.507812 361.40625 97.996094 361.40625 98.503906 C 361.40625 99.011719 361.3125 99.5 361.117188 99.96875 C 360.921875 100.4375 360.644531 100.851562 360.289062 101.210938 C 359.929688 101.570312 359.515625 101.847656 359.046875 102.042969 C 358.578125 102.234375 358.089844 102.332031 357.582031 102.332031 Z M 357.582031 102.332031 " fill-opacity="1" fill-rule="nonzero"/><path fill="#000000" d="M 357.582031 115.984375 L 338.066406 115.984375 C 337.558594 115.984375 337.070312 115.886719 336.601562 115.691406 C 336.132812 115.496094 335.71875 115.21875 335.359375 114.859375 C 335 114.503906 334.726562 114.089844 334.53125 113.617188 C 334.335938 113.148438 334.238281 112.660156 334.238281 112.152344 C 334.238281 111.644531 334.335938 111.15625 334.53125 110.6875 C 334.726562 110.21875 335 109.804688 335.359375 109.445312 C 335.71875 109.085938 336.132812 108.8125 336.601562 108.617188 C 337.070312 108.421875 337.558594 108.324219 338.066406 108.324219 L 357.582031 108.324219 C 358.089844 108.324219 358.578125 108.421875 359.046875 108.617188 C 359.515625 108.8125 359.929688 109.085938 360.289062 109.445312 C 360.644531 109.804688 360.921875 110.21875 361.117188 110.6875 C 361.3125 111.15625 361.40625 111.644531 361.40625 112.152344 C 361.40625 112.660156 361.3125 113.148438 361.117188 113.617188 C 360.921875 114.089844 360.644531 114.503906 360.289062 114.859375 C 359.929688 115.21875 359.515625 115.496094 359.046875 115.691406 C 358.578125 115.886719 358.089844 115.984375 357.582031 115.984375 Z M 357.582031 115.984375 " fill-opacity="1" fill-rule="nonzero"/><path fill="#000000" d="M 114.414062 182.378906 L 50.511719 182.378906 C 50.003906 182.378906 49.515625 182.28125 49.046875 182.085938 C 48.578125 181.894531 48.164062 181.617188 47.804688 181.257812 C 47.445312 180.898438 47.167969 180.484375 46.976562 180.015625 C 46.78125 179.546875 46.683594 179.058594 46.683594 178.550781 C 46.683594 178.042969 46.78125 177.554688 46.976562 177.085938 C 47.167969 176.617188 47.445312 176.203125 47.804688 175.84375 C 48.164062 175.484375 48.578125 175.207031 49.046875 175.011719 C 49.515625 174.820312 50.003906 174.722656 50.511719 174.722656 L 114.414062 174.722656 C 114.921875 174.722656 115.410156 174.820312 115.878906 175.011719 C 116.347656 175.207031 116.761719 175.484375 117.117188 175.84375 C 117.476562 176.203125 117.753906 176.617188 117.949219 177.085938 C 118.144531 177.554688 118.238281 178.042969 118.238281 178.550781 C 118.238281 179.058594 118.144531 179.546875 117.949219 180.015625 C 117.753906 180.484375 117.476562 180.898438 117.117188 181.257812 C 116.761719 181.617188 116.347656 181.894531 115.878906 182.085938 C 115.410156 182.28125 114.921875 182.378906 114.414062 182.378906 Z M 114.414062 182.378906 " fill-opacity="1" fill-rule="nonzero"/><path fill="#000000" d="M 50.511719 205.742188 L 3.828125 205.742188 C 3.320312 205.742188 2.832031 205.644531 2.363281 205.449219 C 1.894531 205.253906 1.480469 204.980469 1.121094 204.621094 C 0.761719 204.261719 0.484375 203.847656 0.292969 203.378906 C 0.0976562 202.910156 0 202.421875 0 201.914062 L 0 155.203125 C 0 154.695312 0.0976562 154.207031 0.292969 153.738281 C 0.484375 153.269531 0.761719 152.855469 1.121094 152.496094 C 1.480469 152.136719 1.894531 151.859375 2.363281 151.667969 C 2.832031 151.472656 3.320312 151.375 3.828125 151.375 L 50.511719 151.375 C 51.019531 151.375 51.503906 151.472656 51.972656 151.667969 C 52.441406 151.859375 52.855469 152.136719 53.214844 152.496094 C 53.574219 152.855469 53.851562 153.269531 54.046875 153.738281 C 54.238281 154.207031 54.335938 154.695312 54.335938 155.203125 L 54.335938 201.914062 C 54.335938 202.421875 54.238281 202.910156 54.046875 203.378906 C 53.851562 203.847656 53.574219 204.261719 53.214844 204.621094 C 52.855469 204.980469 52.441406 205.257812 51.972656 205.449219 C 51.503906 205.644531 51.019531 205.742188 50.511719 205.742188 Z M 7.652344 198.085938 L 46.683594 198.085938 L 46.683594 159.03125 L 7.652344 159.03125 Z M 7.652344 198.085938 " fill-opacity="1" fill-rule="nonzero"/><path fill="#000000" d="M 38.382812 175.550781 L 15.964844 175.550781 C 15.457031 175.550781 14.96875 175.457031 14.5 175.261719 C 14.03125 175.066406 13.617188 174.789062 13.257812 174.429688 C 12.898438 174.070312 12.625 173.65625 12.429688 173.1875 C 12.234375 172.71875 12.136719 172.230469 12.136719 171.722656 C 12.136719 171.214844 12.234375 170.726562 12.429688 170.257812 C 12.625 169.789062 12.898438 169.375 13.257812 169.015625 C 13.617188 168.65625 14.03125 168.382812 14.5 168.1875 C 14.96875 167.992188 15.457031 167.894531 15.964844 167.894531 L 38.382812 167.894531 C 38.890625 167.894531 39.378906 167.992188 39.847656 168.1875 C 40.316406 168.382812 40.730469 168.65625 41.089844 169.015625 C 41.449219 169.375 41.726562 169.789062 41.917969 170.257812 C 42.113281 170.726562 42.210938 171.214844 42.210938 171.722656 C 42.210938 172.230469 42.113281 172.71875 41.917969 173.1875 C 41.726562 173.65625 41.449219 174.070312 41.089844 174.429688 C 40.730469 174.789062 40.316406 175.066406 39.847656 175.261719 C 39.378906 175.457031 38.890625 175.550781 38.382812 175.550781 Z M 38.382812 175.550781 " fill-opacity="1" fill-rule="nonzero"/><path fill="#000000" d="M 38.382812 189.207031 L 15.964844 189.207031 C 15.457031 189.207031 14.96875 189.109375 14.5 188.914062 C 14.03125 188.71875 13.617188 188.441406 13.257812 188.085938 C 12.898438 187.726562 12.625 187.3125 12.429688 186.84375 C 12.234375 186.371094 12.136719 185.882812 12.136719 185.378906 C 12.136719 184.871094 12.234375 184.378906 12.429688 183.910156 C 12.625 183.441406 12.898438 183.027344 13.257812 182.667969 C 13.617188 182.3125 14.03125 182.035156 14.5 181.839844 C 14.96875 181.644531 15.457031 181.546875 15.964844 181.546875 L 38.382812 181.546875 C 38.890625 181.546875 39.378906 181.644531 39.847656 181.839844 C 40.316406 182.035156 40.730469 182.3125 41.089844 182.667969 C 41.449219 183.027344 41.726562 183.441406 41.917969 183.910156 C 42.113281 184.378906 42.210938 184.871094 42.210938 185.378906 C 42.210938 185.882812 42.113281 186.371094 41.917969 186.84375 C 41.726562 187.3125 41.449219 187.726562 41.089844 188.085938 C 40.730469 188.441406 40.316406 188.71875 39.847656 188.914062 C 39.378906 189.109375 38.890625 189.207031 38.382812 189.207031 Z M 38.382812 189.207031 " fill-opacity="1" fill-rule="nonzero"/></svg>