<svg xmlns="http://www.w3.org/2000/svg" xmlns:xlink="http://www.w3.org/1999/xlink" width="500" zoomAndPan="magnify" viewBox="0 0 375 374.999991" height="500" preserveAspectRatio="xMidYMid meet" version="1.0"><defs><clipPath id="1fc47dab0e"><path d="M 1 4 L 374 4 L 374 372.609375 L 1 372.609375 Z M 1 4 " clip-rule="nonzero"/></clipPath></defs><g clip-path="url(#1fc47dab0e)"><path fill="#000000" d="M 346.171875 372.609375 L 28.828125 372.609375 C 13.558594 372.609375 1.347656 360.1875 1.347656 345.148438 L 1.347656 32.402344 C 1.347656 17.148438 13.558594 4.941406 28.828125 4.941406 L 346.171875 4.941406 C 361.222656 4.941406 373.652344 17.148438 373.652344 32.402344 L 373.652344 345.148438 C 373.652344 360.1875 361.222656 372.609375 346.171875 372.609375 Z M 28.828125 13.660156 C 18.578125 13.660156 10.070312 21.941406 10.070312 32.402344 L 10.070312 345.148438 C 10.070312 355.390625 18.578125 363.890625 28.828125 363.890625 L 346.171875 363.890625 C 356.421875 363.890625 364.929688 355.390625 364.929688 345.148438 L 364.929688 32.402344 C 364.929688 21.941406 356.421875 13.660156 346.171875 13.660156 Z M 28.828125 13.660156 " fill-opacity="1" fill-rule="evenodd"/></g><path fill="#000000" d="M 369.292969 77.300781 L 5.707031 77.300781 C 0.0390625 77.300781 0.0390625 68.582031 5.707031 68.582031 L 369.292969 68.582031 C 374.960938 68.582031 374.960938 77.300781 369.292969 77.300781 Z M 369.292969 77.300781 " fill-opacity="1" fill-rule="evenodd"/><path fill="#000000" d="M 134.390625 77.300781 C 130.464844 77.300781 128.503906 72.722656 131.121094 70.105469 L 191.316406 6.25 C 195.242188 2.109375 201.566406 7.992188 197.640625 12.132812 L 137.445312 75.992188 C 136.570312 76.863281 135.480469 77.300781 134.390625 77.300781 Z M 134.390625 77.300781 " fill-opacity="1" fill-rule="evenodd"/><path fill="#000000" d="M 339.191406 45.480469 L 209.417969 45.480469 C 203.53125 45.480469 203.53125 36.761719 209.417969 36.761719 L 339.191406 36.761719 C 344.863281 36.761719 344.863281 45.480469 339.191406 45.480469 Z M 339.191406 45.480469 " fill-opacity="1" fill-rule="evenodd"/><path fill="#000000" d="M 38.859375 53.542969 C 18.140625 53.542969 19.886719 55.503906 19.886719 34.800781 C 19.886719 26.738281 30.355469 28.699219 38.859375 28.699219 C 46.929688 28.699219 44.96875 39.160156 44.96875 47.441406 C 44.96875 50.929688 42.132812 53.542969 38.859375 53.542969 Z M 28.609375 44.824219 L 36.242188 44.824219 L 36.242188 37.414062 L 28.609375 37.414062 Z M 28.609375 44.824219 " fill-opacity="1" fill-rule="evenodd"/><path fill="#000000" d="M 79.429688 53.542969 C 58.707031 53.542969 60.453125 55.503906 60.453125 34.800781 C 60.453125 26.738281 70.921875 28.699219 79.429688 28.699219 C 87.5 28.699219 85.535156 39.160156 85.535156 47.441406 C 85.535156 50.929688 82.699219 53.542969 79.429688 53.542969 Z M 69.175781 44.824219 L 76.8125 44.824219 L 76.8125 37.414062 L 69.175781 37.414062 Z M 69.175781 44.824219 " fill-opacity="1" fill-rule="evenodd"/><path fill="#000000" d="M 119.996094 53.542969 C 99.277344 53.542969 101.019531 55.503906 101.019531 34.800781 C 101.019531 26.738281 111.488281 28.699219 119.996094 28.699219 C 127.847656 28.699219 126.101562 39.160156 126.101562 47.441406 C 126.101562 50.929688 123.269531 53.542969 119.996094 53.542969 Z M 109.746094 44.824219 L 117.378906 44.824219 L 117.378906 37.414062 L 109.746094 37.414062 Z M 109.746094 44.824219 " fill-opacity="1" fill-rule="evenodd"/><path fill="#000000" d="M 189.570312 230.949219 L 46.277344 230.949219 C 43.875 230.949219 41.914062 228.984375 41.914062 226.589844 L 41.914062 112.386719 C 41.914062 109.992188 43.875 108.027344 46.277344 108.027344 L 189.570312 108.027344 C 191.972656 108.027344 193.933594 109.992188 193.933594 112.386719 L 193.933594 226.589844 C 193.933594 228.984375 191.972656 230.949219 189.570312 230.949219 Z M 50.636719 222.230469 L 185.210938 222.230469 L 185.210938 116.746094 L 50.636719 116.746094 Z M 50.636719 222.230469 " fill-opacity="1" fill-rule="evenodd"/><path fill="#000000" d="M 146.386719 230.949219 C 144.859375 230.949219 143.332031 230.292969 142.679688 228.769531 L 96.660156 152.054688 L 49.984375 228.769531 C 46.929688 233.78125 39.515625 229.203125 42.566406 224.410156 L 92.949219 141.375 C 94.695312 138.539062 98.621094 138.539062 100.367188 141.375 L 150.09375 224.410156 C 151.839844 227.242188 149.660156 230.949219 146.386719 230.949219 Z M 146.386719 230.949219 " fill-opacity="1" fill-rule="evenodd"/><path fill="#000000" d="M 189.570312 230.949219 C 188.046875 230.949219 186.519531 230.292969 185.863281 228.769531 L 149.222656 167.746094 L 131.121094 197.382812 C 128.285156 202.398438 120.867188 197.820312 123.703125 192.808594 L 145.515625 157.066406 C 147.257812 154.230469 151.183594 154.230469 152.929688 157.066406 L 193.28125 224.410156 C 195.023438 227.242188 192.84375 230.949219 189.570312 230.949219 Z M 189.570312 230.949219 " fill-opacity="1" fill-rule="evenodd"/><path fill="#000000" d="M 330.46875 129.824219 L 232.757812 129.824219 C 226.867188 129.824219 226.867188 121.105469 232.757812 121.105469 L 330.46875 121.105469 C 336.140625 121.105469 336.140625 129.824219 330.46875 129.824219 Z M 330.46875 129.824219 " fill-opacity="1" fill-rule="evenodd"/><path fill="#000000" d="M 330.46875 173.847656 L 232.757812 173.847656 C 226.867188 173.847656 226.867188 165.128906 232.757812 165.128906 L 330.46875 165.128906 C 336.140625 165.128906 336.140625 173.847656 330.46875 173.847656 Z M 330.46875 173.847656 " fill-opacity="1" fill-rule="evenodd"/><path fill="#000000" d="M 330.46875 217.652344 L 232.757812 217.652344 C 226.867188 217.652344 226.867188 208.933594 232.757812 208.933594 L 330.46875 208.933594 C 336.140625 208.933594 336.140625 217.652344 330.46875 217.652344 Z M 330.46875 217.652344 " fill-opacity="1" fill-rule="evenodd"/><path fill="#000000" d="M 330.46875 270.175781 L 48.675781 270.175781 C 43.003906 270.175781 43.003906 261.460938 48.675781 261.460938 L 330.46875 261.460938 C 336.140625 261.460938 336.140625 270.175781 330.46875 270.175781 Z M 330.46875 270.175781 " fill-opacity="1" fill-rule="evenodd"/><path fill="#000000" d="M 330.46875 317.90625 L 48.675781 317.90625 C 43.003906 317.90625 43.003906 309.1875 48.675781 309.1875 L 330.46875 309.1875 C 336.140625 309.1875 336.140625 317.90625 330.46875 317.90625 Z M 330.46875 317.90625 " fill-opacity="1" fill-rule="evenodd"/></svg>