<svg xmlns="http://www.w3.org/2000/svg" xmlns:xlink="http://www.w3.org/1999/xlink" width="500" zoomAndPan="magnify" viewBox="0 0 375 374.999991" height="500" preserveAspectRatio="xMidYMid meet" version="1.0"><defs><clipPath id="e39cb3afab"><path d="M 0 20.796875 L 375 20.796875 L 375 353 L 0 353 Z M 0 20.796875 " clip-rule="nonzero"/></clipPath></defs><path fill="#000000" d="M 291.480469 140.992188 C 280.457031 140.695312 269.730469 140.992188 258.707031 140.992188 L 118.078125 140.992188 C 105.566406 140.992188 93.351562 140.992188 80.835938 140.992188 C 64.152344 140.695312 50.148438 154.414062 49.851562 171.117188 C 49.550781 184.539062 58.492188 196.765625 71.300781 200.644531 C 76.070312 201.835938 81.132812 202.136719 85.902344 201.835938 L 291.183594 201.835938 C 291.183594 201.835938 291.480469 201.835938 291.480469 201.835938 C 308.167969 201.835938 321.871094 188.117188 321.871094 171.414062 C 321.871094 154.714844 308.167969 140.992188 291.480469 140.992188 Z M 314.125 173.800781 C 312.933594 185.433594 303.101562 194.382812 291.480469 194.679688 C 291.480469 194.679688 291.183594 194.679688 291.183594 194.679688 L 84.113281 194.679688 C 78.15625 195.277344 72.195312 193.785156 67.132812 190.800781 C 56.703125 183.34375 54.019531 169.03125 61.46875 158.292969 C 63.257812 155.609375 65.9375 153.222656 68.621094 151.433594 C 73.386719 149.046875 79.046875 147.851562 84.410156 148.449219 L 284.035156 148.449219 C 287.011719 148.449219 290.289062 148.152344 293.269531 148.449219 C 306.082031 149.941406 315.316406 161.273438 314.125 173.800781 Z M 314.125 173.800781 " fill-opacity="1" fill-rule="nonzero"/><path fill="#000000" d="M 285.226562 174.996094 C 288.503906 170.820312 288.800781 165.152344 285.820312 160.378906 C 285.523438 159.785156 285.226562 159.484375 284.925781 159.1875 C 283.4375 157.695312 281.648438 156.203125 279.5625 155.609375 C 277.179688 154.714844 274.796875 154.714844 272.414062 155.308594 C 270.03125 155.90625 267.945312 157.398438 266.15625 159.1875 C 264.371094 161.273438 263.476562 163.660156 263.175781 166.644531 C 262.878906 171.714844 265.5625 176.484375 270.03125 178.574219 C 272.414062 179.765625 275.09375 180.066406 277.777344 179.765625 C 278.074219 179.765625 278.671875 179.46875 278.96875 179.46875 L 282.84375 185.136719 L 283.734375 186.328125 C 284.332031 187.222656 284.925781 187.820312 286.121094 188.117188 C 287.011719 188.417969 288.203125 188.417969 289.097656 187.820312 C 289.992188 187.222656 290.589844 186.625 290.886719 185.730469 C 291.183594 184.835938 291.183594 183.644531 290.589844 182.75 Z M 279.5625 170.519531 C 279.265625 170.820312 278.96875 171.117188 279.5625 170.519531 Z M 276.285156 172.011719 C 275.988281 172.011719 275.988281 172.011719 276.285156 172.011719 C 275.988281 172.011719 275.988281 172.011719 276.285156 172.011719 L 274.5 172.011719 L 273.902344 171.714844 C 273.902344 171.714844 273.605469 171.414062 273.605469 171.714844 C 273.605469 171.714844 273.308594 171.714844 273.308594 171.414062 L 272.710938 171.117188 C 272.117188 170.519531 272.117188 170.519531 271.816406 170.222656 C 271.816406 169.925781 271.519531 169.925781 271.519531 169.625 C 271.519531 169.625 271.222656 169.328125 271.222656 169.328125 C 271.222656 169.03125 270.925781 168.730469 270.925781 168.132812 C 270.925781 168.132812 270.925781 167.835938 270.925781 167.835938 C 270.925781 167.539062 270.925781 167.238281 270.925781 166.941406 C 270.925781 166.941406 270.925781 166.644531 270.925781 166.644531 C 270.925781 166.34375 270.925781 166.046875 271.222656 165.75 C 271.222656 165.449219 271.519531 165.449219 271.519531 165.152344 L 271.816406 164.554688 C 271.222656 165.152344 271.816406 164.554688 271.816406 164.257812 C 271.816406 163.960938 272.117188 163.960938 272.414062 163.660156 L 272.710938 163.363281 C 273.007812 163.0625 273.308594 163.0625 273.605469 162.765625 C 273.902344 162.765625 273.902344 162.765625 274.203125 162.46875 L 274.796875 162.46875 C 275.09375 162.46875 275.394531 162.46875 275.691406 162.46875 L 276.285156 162.46875 L 276.882812 162.765625 C 277.480469 162.765625 277.777344 163.0625 278.074219 163.363281 L 278.371094 163.660156 C 278.671875 163.960938 278.671875 163.960938 278.96875 164.257812 C 279.265625 164.554688 279.265625 164.855469 279.5625 165.152344 C 279.5625 165.449219 279.863281 165.449219 279.863281 165.75 C 279.863281 166.046875 279.863281 166.941406 280.160156 166.941406 C 280.160156 166.941406 280.160156 167.238281 280.160156 167.238281 C 280.160156 167.238281 280.160156 167.238281 280.160156 167.539062 C 280.160156 167.539062 280.160156 167.835938 280.160156 167.835938 C 280.160156 167.835938 280.160156 167.835938 280.160156 168.132812 L 279.863281 168.730469 L 279.863281 169.03125 C 279.5625 169.625 279.5625 169.625 279.265625 169.925781 C 279.265625 169.925781 278.96875 170.222656 278.96875 170.222656 L 278.671875 170.519531 C 278.671875 170.519531 278.671875 170.519531 278.371094 170.820312 C 278.371094 170.820312 278.074219 170.820312 278.074219 170.820312 L 277.480469 171.117188 C 277.480469 171.117188 277.480469 171.117188 277.179688 171.117188 C 277.179688 171.117188 276.882812 171.117188 276.882812 171.117188 C 277.179688 172.011719 276.882812 172.011719 276.285156 172.011719 Z M 276.285156 172.011719 " fill-opacity="1" fill-rule="nonzero"/><path fill="#000000" d="M 117.183594 160.976562 C 116.886719 161.273438 116.292969 161.871094 116.292969 162.46875 C 115.992188 163.0625 115.695312 163.660156 115.695312 164.554688 L 113.609375 171.117188 L 112.121094 165.152344 C 111.824219 163.957031 111.523438 163.0625 111.226562 162.765625 C 110.929688 162.167969 110.332031 161.273438 109.738281 160.976562 C 107.949219 159.484375 105.566406 159.484375 103.777344 160.976562 C 103.183594 161.574219 102.585938 162.167969 102.289062 162.765625 C 101.992188 163.363281 101.691406 163.957031 101.394531 165.449219 L 99.90625 171.117188 L 98.117188 164.554688 C 97.820312 163.660156 97.519531 162.46875 96.925781 161.574219 C 96.328125 160.378906 94.839844 159.785156 93.648438 160.082031 C 92.457031 160.082031 91.5625 160.378906 90.667969 161.273438 C 89.773438 161.871094 89.476562 163.0625 89.476562 163.960938 C 89.476562 164.855469 89.773438 166.046875 90.074219 166.941406 L 94.542969 179.765625 L 95.136719 181.257812 C 95.433594 181.855469 95.734375 182.449219 96.03125 183.046875 C 96.328125 183.644531 96.925781 184.242188 97.519531 184.539062 C 98.117188 184.835938 99.011719 185.136719 99.90625 185.136719 C 101.394531 185.433594 103.183594 184.539062 104.074219 183.347656 C 104.671875 182.152344 105.269531 180.960938 105.566406 179.765625 L 107.054688 174.695312 L 108.546875 179.765625 C 108.84375 180.660156 109.140625 181.554688 109.4375 182.152344 C 109.738281 183.046875 110.332031 183.644531 110.929688 184.242188 C 112.714844 185.433594 115.101562 185.433594 116.886719 184.242188 C 117.484375 183.644531 118.078125 183.046875 118.378906 182.449219 C 118.675781 181.855469 118.972656 181.257812 119.269531 180.066406 L 123.738281 167.238281 C 124.039062 166.34375 124.335938 165.152344 124.335938 164.257812 C 124.335938 163.0625 123.738281 162.167969 122.847656 161.273438 C 121.355469 159.484375 118.972656 159.484375 117.183594 160.976562 Z M 117.183594 160.976562 " fill-opacity="1" fill-rule="nonzero"/><path fill="#000000" d="M 155.621094 160.976562 C 155.023438 161.273438 154.726562 161.871094 154.429688 162.765625 C 154.429688 163.0625 154.128906 163.960938 153.832031 164.855469 L 151.746094 171.414062 L 150.257812 165.449219 C 149.960938 164.554688 149.660156 163.660156 149.363281 163.0625 C 149.066406 162.46875 148.46875 161.574219 147.875 161.273438 C 146.085938 160.082031 143.703125 160.082031 141.914062 161.273438 C 141.320312 161.871094 140.722656 162.46875 140.425781 163.0625 C 140.425781 163.660156 139.828125 164.257812 139.53125 165.75 L 138.042969 171.414062 L 136.253906 164.855469 C 135.957031 163.957031 135.65625 162.765625 135.0625 161.871094 C 134.464844 160.679688 132.976562 160.082031 131.785156 160.378906 C 130.59375 160.378906 129.699219 160.679688 128.804688 161.574219 C 128.210938 161.871094 127.910156 162.765625 127.910156 163.660156 C 127.910156 164.554688 128.210938 165.75 128.507812 166.644531 L 132.976562 179.46875 L 133.574219 180.960938 C 133.871094 181.554688 134.167969 182.152344 134.464844 182.75 C 135.359375 184.242188 136.851562 184.835938 138.339844 184.835938 C 139.828125 184.835938 141.320312 184.242188 142.210938 183.046875 C 142.808594 181.855469 143.40625 180.660156 143.703125 179.46875 L 145.191406 174.398438 L 146.683594 179.46875 C 146.980469 180.363281 147.277344 181.257812 147.574219 181.855469 C 147.875 182.75 148.46875 183.347656 149.066406 183.941406 C 150.851562 185.136719 153.238281 185.136719 155.023438 183.941406 C 155.621094 183.347656 156.214844 182.75 156.515625 182.152344 C 156.8125 181.554688 157.109375 180.960938 157.40625 179.765625 L 161.875 166.941406 C 162.175781 166.046875 162.472656 164.855469 162.472656 163.960938 C 162.472656 163.0625 162.175781 162.167969 161.28125 161.273438 C 159.492188 159.785156 157.40625 159.785156 155.621094 160.976562 Z M 155.621094 160.976562 " fill-opacity="1" fill-rule="nonzero"/><path fill="#000000" d="M 199.417969 161.273438 C 197.929688 159.785156 195.246094 159.785156 193.757812 161.273438 C 193.457031 161.574219 192.863281 162.167969 192.863281 162.765625 C 192.863281 163.0625 192.566406 163.960938 192.265625 164.855469 L 190.179688 171.414062 L 188.394531 165.449219 C 188.097656 164.554688 187.796875 163.660156 187.5 163.0625 C 187.203125 162.46875 186.605469 161.574219 186.011719 161.273438 C 184.222656 160.082031 181.839844 160.082031 180.050781 161.273438 C 179.457031 161.871094 178.859375 162.46875 178.5625 163.0625 C 178.265625 163.660156 178.265625 164.257812 177.667969 165.75 L 175.878906 171.414062 L 174.09375 164.855469 C 173.792969 163.957031 173.496094 162.765625 172.902344 161.871094 C 172.304688 160.679688 170.816406 160.082031 169.625 160.378906 C 168.429688 160.378906 167.539062 160.679688 166.644531 161.574219 C 165.75 162.167969 165.453125 163.363281 165.453125 164.257812 C 165.453125 165.152344 165.75 166.34375 166.046875 167.238281 L 170.515625 180.066406 L 171.113281 181.554688 C 171.410156 182.152344 171.707031 182.75 172.007812 183.347656 C 172.902344 184.835938 174.390625 185.433594 175.878906 185.433594 C 177.371094 185.433594 178.859375 184.835938 179.753906 183.644531 C 180.347656 182.449219 180.945312 181.257812 181.242188 180.066406 L 182.734375 174.996094 L 184.222656 180.066406 C 184.519531 180.960938 184.820312 181.855469 185.117188 182.449219 C 185.414062 183.347656 186.011719 183.941406 186.605469 184.539062 C 187.5 185.136719 188.394531 185.730469 189.585938 185.433594 C 190.777344 185.433594 191.671875 185.136719 192.566406 184.539062 C 193.160156 183.941406 193.757812 183.347656 194.054688 182.75 C 194.351562 182.152344 194.652344 181.257812 194.949219 180.363281 L 199.417969 167.539062 C 199.714844 166.644531 200.011719 165.449219 200.011719 164.554688 C 200.609375 162.765625 200.3125 161.871094 199.417969 161.273438 Z M 199.417969 161.273438 " fill-opacity="1" fill-rule="nonzero"/><path fill="#000000" d="M 201.503906 177.378906 C 200.609375 178.273438 200.011719 179.46875 200.3125 180.660156 C 200.3125 181.855469 200.90625 183.347656 201.800781 184.242188 C 202.695312 185.136719 203.886719 185.433594 205.078125 185.433594 C 206.269531 185.433594 207.460938 185.136719 208.355469 184.242188 C 209.25 183.34375 209.847656 182.152344 209.847656 180.660156 C 209.847656 179.46875 209.25 178.273438 208.355469 177.378906 C 205.972656 175.589844 203.289062 175.589844 201.503906 177.378906 Z M 201.503906 177.378906 " fill-opacity="1" fill-rule="nonzero"/><g clip-path="url(#e39cb3afab)"><path fill="#000000" d="M 358.816406 21.691406 C 355.242188 21.09375 351.367188 20.796875 347.792969 21.09375 L 27.207031 21.09375 C 23.332031 20.796875 19.757812 21.09375 15.882812 21.988281 C 5.160156 24.972656 0.09375 34.8125 0.09375 45.253906 L 0.09375 265.367188 C 0.09375 275.507812 4.265625 284.753906 14.394531 288.332031 C 18.863281 289.523438 23.632812 290.121094 28.398438 289.523438 L 266.453125 289.523438 L 272.117188 337.84375 L 273.308594 348.878906 C 273.605469 352.160156 278.671875 354.546875 280.160156 350.667969 L 297.441406 313.085938 L 337.367188 316.964844 C 338.257812 317.5625 339.152344 317.261719 340.046875 316.964844 C 341.835938 316.367188 342.429688 314.578125 342.132812 312.789062 C 342.132812 311.894531 341.535156 311 340.644531 310.105469 L 312.636719 289.226562 L 348.390625 289.226562 C 352.558594 289.523438 357.03125 288.929688 360.902344 287.734375 C 370.734375 283.859375 374.90625 274.613281 374.90625 264.769531 L 374.90625 44.953125 C 374.90625 34.21875 369.542969 24.375 358.816406 21.691406 Z M 7.542969 42.566406 C 7.542969 35.113281 13.203125 28.847656 20.652344 28.25 C 28.996094 27.65625 37.335938 28.25 45.382812 28.25 L 327.234375 28.25 C 335.875 28.25 344.515625 27.953125 353.453125 28.25 C 361.199219 28.25 367.457031 34.515625 367.753906 42.566406 L 367.753906 70.007812 L 48.957031 70.007812 C 35.25 70.007812 21.246094 69.410156 7.542969 70.007812 L 7.542969 46.148438 C 7.542969 44.953125 7.542969 43.761719 7.542969 42.566406 Z M 292.078125 307.121094 L 279.265625 334.859375 L 271.816406 270.734375 L 271.519531 267.753906 L 298.632812 288.035156 C 298.632812 288.035156 298.929688 288.332031 299.230469 288.332031 L 325.746094 308.015625 L 295.058594 305.035156 C 293.867188 305.332031 292.675781 305.929688 292.078125 307.121094 Z M 367.457031 267.15625 C 367.457031 273.417969 363.285156 279.085938 357.328125 281.175781 C 353.753906 281.769531 350.175781 282.070312 346.601562 281.769531 L 302.507812 281.769531 L 277.480469 263.277344 L 268.539062 256.71875 C 266.753906 255.820312 264.371094 256.417969 263.476562 258.207031 C 263.175781 258.804688 262.878906 259.402344 262.878906 259.996094 L 265.261719 282.070312 L 30.484375 282.070312 C 27.503906 282.070312 24.523438 282.070312 21.84375 282.070312 C 14.097656 282.070312 7.839844 275.804688 7.542969 267.753906 C 7.542969 266.859375 7.542969 265.664062 7.542969 264.769531 L 7.542969 77.464844 L 326.042969 77.464844 C 339.75 77.464844 353.753906 78.0625 367.457031 77.464844 L 367.457031 263.277344 C 367.457031 264.769531 367.457031 265.964844 367.457031 267.15625 Z M 367.457031 267.15625 " fill-opacity="1" fill-rule="nonzero"/></g><path fill="#000000" d="M 47.167969 58.972656 C 49.253906 56.585938 50.148438 53.902344 50.148438 50.917969 C 50.148438 45.550781 46.871094 40.777344 41.804688 38.988281 C 37.039062 37.199219 31.378906 38.691406 28.101562 42.566406 C 23.632812 47.9375 24.226562 55.691406 29.292969 60.464844 C 34.65625 64.9375 42.402344 64.339844 47.167969 58.972656 Z M 42.699219 50.023438 C 42.699219 50.324219 42.699219 50.324219 42.699219 50.324219 C 42.699219 50.324219 42.699219 50.324219 42.699219 50.023438 Z M 32.273438 50.324219 C 32.273438 50.023438 32.273438 50.023438 32.273438 49.726562 C 32.273438 49.429688 32.570312 48.832031 32.570312 48.535156 C 32.570312 48.234375 32.867188 48.234375 32.867188 47.9375 C 32.867188 47.636719 33.164062 47.636719 33.164062 47.339844 C 33.464844 47.042969 33.761719 46.742188 34.058594 46.445312 L 34.355469 46.445312 C 34.058594 46.742188 34.355469 46.445312 34.65625 46.445312 C 34.953125 46.148438 35.550781 46.148438 35.847656 45.847656 C 35.847656 45.847656 34.953125 46.148438 35.550781 45.847656 L 36.144531 45.550781 L 36.441406 45.550781 C 36.441406 45.550781 36.441406 45.550781 36.742188 45.550781 C 36.742188 45.550781 37.039062 45.550781 37.039062 45.550781 L 38.230469 45.550781 L 39.71875 45.847656 C 40.316406 46.148438 40.316406 46.148438 40.316406 46.148438 L 41.507812 47.339844 L 41.804688 47.9375 C 41.804688 48.234375 42.105469 48.234375 42.105469 48.535156 C 42.105469 49.128906 42.402344 49.128906 42.402344 49.429688 C 42.402344 49.726562 42.105469 50.023438 42.105469 50.324219 C 42.105469 50.621094 42.105469 50.621094 42.105469 50.917969 C 42.105469 50.917969 41.804688 51.8125 41.804688 52.113281 C 41.804688 52.113281 41.804688 52.410156 41.804688 52.410156 C 41.804688 52.410156 41.804688 52.410156 41.507812 52.710938 C 41.210938 53.007812 40.910156 53.605469 40.910156 53.902344 C 40.910156 53.902344 40.613281 54.199219 40.613281 54.199219 C 40.613281 54.199219 40.316406 54.5 40.316406 54.5 C 40.019531 54.5 39.71875 55.09375 39.421875 55.09375 L 39.125 55.394531 L 37.933594 55.691406 C 37.933594 55.691406 37.632812 55.691406 37.632812 55.691406 C 37.632812 55.691406 37.335938 55.691406 37.335938 55.691406 C 37.039062 55.691406 36.742188 55.691406 36.144531 55.691406 L 35.550781 55.691406 L 34.953125 55.394531 C 34.355469 55.09375 35.25 55.394531 35.25 55.394531 C 34.953125 55.09375 34.65625 55.09375 34.355469 54.796875 L 33.761719 54.5 C 33.164062 53.902344 33.164062 53.902344 32.867188 53.605469 L 32.570312 53.007812 L 32.570312 52.410156 C 32.273438 52.113281 32.570312 52.113281 32.570312 52.710938 C 32.570312 52.410156 32.273438 51.8125 32.273438 51.515625 L 32.273438 50.917969 C 32.273438 50.917969 32.273438 50.621094 32.273438 50.324219 Z M 32.273438 50.324219 " fill-opacity="1" fill-rule="nonzero"/><path fill="#000000" d="M 32.273438 50.324219 C 32.570312 49.429688 32.273438 50.023438 32.273438 50.324219 Z M 32.273438 50.324219 " fill-opacity="1" fill-rule="nonzero"/><path fill="#000000" d="M 37.632812 55.988281 L 37.933594 55.988281 C 37.933594 55.691406 37.632812 55.691406 37.632812 55.988281 Z M 37.632812 55.988281 " fill-opacity="1" fill-rule="nonzero"/><path fill="#000000" d="M 62.363281 50.023438 C 62.660156 49.128906 62.363281 49.726562 62.363281 50.023438 Z M 62.363281 50.023438 " fill-opacity="1" fill-rule="nonzero"/><path fill="#000000" d="M 77.261719 58.972656 C 79.347656 56.585938 80.242188 53.902344 80.242188 50.917969 C 80.242188 45.550781 76.664062 40.777344 71.898438 38.988281 C 67.132812 37.199219 61.46875 38.691406 58.191406 42.566406 C 53.722656 47.9375 54.320312 55.691406 59.382812 60.464844 C 64.746094 64.9375 72.792969 64.339844 77.261719 58.972656 Z M 72.792969 50.023438 C 72.792969 50.324219 72.792969 50.324219 72.792969 50.324219 C 72.792969 50.023438 72.792969 50.023438 72.792969 50.023438 Z M 62.363281 50.023438 C 62.363281 49.726562 62.363281 49.726562 62.363281 49.429688 C 62.363281 49.128906 62.660156 48.535156 62.660156 48.234375 L 62.960938 47.636719 L 63.257812 47.042969 C 63.554688 46.445312 63.257812 47.042969 63.257812 47.042969 C 63.554688 46.742188 63.855469 46.445312 64.152344 46.148438 C 64.152344 46.148438 64.449219 46.148438 64.449219 46.148438 C 64.746094 45.847656 65.34375 45.847656 65.640625 45.550781 C 65.640625 45.550781 64.746094 45.847656 65.34375 45.550781 L 65.9375 45.253906 L 66.238281 45.253906 C 66.238281 45.253906 66.238281 45.253906 66.535156 45.253906 C 66.535156 45.253906 66.832031 45.253906 66.832031 45.253906 L 68.324219 45.253906 L 69.8125 45.550781 C 70.410156 45.847656 70.410156 45.847656 70.410156 45.847656 L 70.707031 46.148438 L 71.003906 46.148438 L 71.898438 47.042969 L 72.195312 47.636719 L 72.492188 48.234375 C 72.792969 48.832031 72.792969 49.128906 72.792969 49.429688 C 72.792969 49.726562 72.492188 50.023438 72.492188 50.324219 C 72.492188 50.621094 72.492188 50.621094 72.492188 50.917969 C 72.492188 51.21875 72.195312 51.8125 72.195312 52.113281 C 72.195312 52.113281 72.195312 52.410156 72.195312 52.410156 C 72.195312 52.410156 72.195312 52.410156 71.898438 52.710938 C 71.601562 53.304688 71.300781 53.605469 71.300781 53.902344 C 71.300781 53.902344 71.003906 54.199219 71.003906 54.199219 L 70.707031 54.5 C 70.410156 54.5 69.8125 55.09375 69.8125 55.09375 L 69.515625 55.09375 L 68.324219 55.691406 C 68.324219 55.691406 68.023438 55.691406 68.023438 55.691406 C 68.023438 55.691406 67.726562 55.691406 67.726562 55.691406 C 67.429688 55.691406 66.832031 55.691406 66.535156 55.691406 L 65.9375 55.394531 L 65.34375 55.394531 C 64.746094 55.09375 65.640625 55.394531 65.640625 55.394531 C 65.34375 55.09375 65.046875 55.09375 64.449219 54.796875 C 64.449219 54.796875 64.152344 54.5 63.855469 54.5 C 63.855469 54.5 62.960938 53.605469 62.960938 53.605469 L 62.363281 53.007812 C 62.363281 53.007812 62.066406 52.113281 62.066406 51.8125 C 62.066406 51.515625 62.066406 51.515625 62.066406 51.21875 C 62.363281 50.917969 62.363281 50.324219 62.363281 50.023438 Z M 62.363281 50.023438 " fill-opacity="1" fill-rule="nonzero"/><path fill="#000000" d="M 107.652344 58.972656 C 109.738281 56.585938 110.628906 53.902344 110.628906 50.917969 C 110.628906 45.550781 107.351562 40.777344 102.289062 38.988281 C 97.519531 37.199219 91.859375 38.691406 88.582031 42.566406 C 84.113281 47.9375 84.710938 55.691406 89.773438 60.464844 C 95.136719 64.9375 102.882812 64.339844 107.652344 58.972656 Z M 103.183594 50.023438 Z M 92.753906 50.023438 L 92.753906 49.429688 C 92.753906 49.128906 93.050781 48.535156 93.050781 48.234375 L 93.351562 47.636719 C 93.351562 47.339844 93.648438 47.339844 93.648438 47.042969 C 93.945312 46.742188 94.242188 46.445312 94.542969 46.148438 L 94.839844 45.847656 C 94.542969 46.148438 94.839844 45.847656 95.136719 45.847656 C 95.433594 45.550781 96.03125 45.550781 96.328125 45.253906 C 96.328125 45.253906 95.433594 45.550781 96.03125 45.253906 L 96.628906 44.953125 L 96.925781 44.953125 C 96.925781 44.953125 96.925781 44.953125 97.222656 44.953125 C 97.222656 44.953125 97.519531 44.953125 97.519531 44.953125 L 98.714844 44.953125 L 100.203125 45.253906 C 100.5 45.253906 100.796875 45.550781 100.796875 45.550781 L 101.097656 46.445312 L 101.992188 47.339844 L 102.585938 48.535156 C 102.882812 49.128906 102.882812 49.429688 102.882812 49.726562 C 102.882812 50.023438 102.585938 50.324219 102.585938 50.621094 C 102.585938 50.917969 102.585938 50.917969 102.585938 51.21875 C 102.585938 51.515625 102.289062 52.113281 102.289062 52.410156 C 102.289062 52.410156 102.289062 52.710938 102.289062 52.710938 L 101.691406 53.902344 C 101.691406 53.902344 101.394531 54.199219 101.394531 54.199219 C 101.394531 54.199219 101.097656 54.5 101.097656 54.5 C 100.796875 54.5 100.5 55.09375 100.203125 55.09375 L 99.605469 55.394531 L 98.414062 55.691406 C 98.414062 55.691406 98.117188 55.691406 98.117188 55.691406 C 98.117188 55.691406 98.117188 55.691406 97.820312 55.691406 C 97.519531 55.691406 97.222656 55.691406 96.628906 55.691406 L 96.03125 55.394531 L 95.734375 55.394531 C 95.136719 55.09375 96.03125 55.394531 96.03125 55.394531 C 95.734375 55.09375 95.433594 55.09375 95.136719 54.796875 L 94.542969 54.5 C 93.945312 53.902344 93.945312 53.902344 93.648438 53.605469 L 93.351562 53.007812 L 93.050781 52.710938 L 93.050781 52.410156 C 93.050781 52.113281 93.050781 52.113281 93.050781 52.410156 C 93.050781 52.113281 92.753906 51.8125 92.753906 51.515625 C 92.753906 51.21875 92.753906 51.21875 92.753906 50.917969 C 92.753906 50.917969 92.753906 50.324219 92.753906 50.023438 Z M 93.648438 47.339844 C 93.648438 47.042969 93.648438 47.042969 93.648438 47.339844 Z M 93.648438 47.339844 " fill-opacity="1" fill-rule="nonzero"/><path fill="#000000" d="M 98.117188 55.988281 C 98.414062 55.988281 98.414062 55.988281 98.117188 55.988281 L 98.414062 55.988281 C 98.414062 55.691406 98.117188 55.691406 98.117188 55.988281 Z M 98.117188 55.988281 " fill-opacity="1" fill-rule="nonzero"/></svg>