<svg xmlns="http://www.w3.org/2000/svg" xmlns:xlink="http://www.w3.org/1999/xlink" width="500" zoomAndPan="magnify" viewBox="0 0 375 374.999991" height="500" preserveAspectRatio="xMidYMid meet" version="1.0"><defs><clipPath id="949167e55c"><path d="M 309 365 L 375 365 L 375 374.25 L 309 374.25 Z M 309 365 " clip-rule="nonzero"/></clipPath><clipPath id="201d5b39bd"><path d="M 365 309 L 375 309 L 375 374.25 L 365 374.25 Z M 365 309 " clip-rule="nonzero"/></clipPath><clipPath id="4abfbf1bbb"><path d="M 0 365 L 66 365 L 66 374.25 L 0 374.25 Z M 0 365 " clip-rule="nonzero"/></clipPath><clipPath id="7a611691d4"><path d="M 0 309 L 10 309 L 10 374.25 L 0 374.25 Z M 0 309 " clip-rule="nonzero"/></clipPath></defs><path fill="#000000" d="M 187.507812 281.847656 C 85.925781 281.847656 5.066406 200.242188 1.675781 196.765625 C 0.0078125 195.054688 0.0078125 192.332031 1.675781 190.621094 C 5.066406 187.148438 85.925781 105.539062 187.507812 105.539062 C 289.089844 105.539062 369.949219 187.144531 373.339844 190.621094 C 375.007812 192.332031 375.007812 195.054688 373.339844 196.765625 C 369.949219 200.238281 289.089844 281.847656 187.507812 281.847656 Z M 11.144531 193.691406 C 27.058594 208.660156 100.617188 273.054688 187.507812 273.054688 C 274.398438 273.054688 347.976562 208.660156 363.875 193.695312 C 347.964844 178.738281 274.40625 114.335938 187.507812 114.335938 C 100.609375 114.335938 27.058594 178.730469 11.144531 193.691406 Z M 11.144531 193.691406 " fill-opacity="1" fill-rule="nonzero"/><path fill="#000000" d="M 187.507812 245.261719 C 159.074219 245.261719 135.9375 222.128906 135.9375 193.691406 C 135.9375 165.257812 159.074219 142.125 187.507812 142.125 C 215.941406 142.125 239.074219 165.261719 239.074219 193.691406 C 239.074219 222.125 215.945312 245.261719 187.507812 245.261719 Z M 187.507812 150.917969 C 163.921875 150.917969 144.734375 170.105469 144.734375 193.691406 C 144.734375 217.277344 163.921875 236.46875 187.507812 236.46875 C 211.09375 236.46875 230.28125 217.277344 230.28125 193.691406 C 230.28125 170.105469 211.09375 150.917969 187.507812 150.917969 Z M 187.507812 150.917969 " fill-opacity="1" fill-rule="nonzero"/><path fill="#000000" d="M 187.507812 208.78125 C 179.1875 208.78125 172.417969 202.011719 172.417969 193.691406 C 172.417969 185.371094 179.1875 178.605469 187.507812 178.605469 C 195.828125 178.605469 202.597656 185.371094 202.597656 193.691406 C 202.597656 202.011719 195.828125 208.78125 187.507812 208.78125 Z M 187.507812 187.398438 C 184.035156 187.398438 181.210938 190.21875 181.210938 193.691406 C 181.210938 197.164062 184.035156 199.988281 187.507812 199.988281 C 190.980469 199.988281 193.800781 197.164062 193.800781 193.691406 C 193.800781 190.21875 190.980469 187.398438 187.507812 187.398438 Z M 187.507812 187.398438 " fill-opacity="1" fill-rule="nonzero"/><g clip-path="url(#949167e55c)"><path fill="#000000" d="M 370.195312 374.210938 L 313.835938 374.210938 C 311.40625 374.210938 309.441406 372.242188 309.441406 369.8125 C 309.441406 367.382812 311.40625 365.414062 313.835938 365.414062 L 370.195312 365.414062 C 372.625 365.414062 374.59375 367.382812 374.59375 369.8125 C 374.59375 372.242188 372.625 374.210938 370.195312 374.210938 Z M 370.195312 374.210938 " fill-opacity="1" fill-rule="nonzero"/></g><g clip-path="url(#201d5b39bd)"><path fill="#000000" d="M 370.195312 374.210938 C 367.765625 374.210938 365.796875 372.242188 365.796875 369.8125 L 365.796875 313.449219 C 365.796875 311.019531 367.765625 309.054688 370.195312 309.054688 C 372.625 309.054688 374.59375 311.019531 374.59375 313.449219 L 374.59375 369.8125 C 374.59375 372.242188 372.625 374.210938 370.195312 374.210938 Z M 370.195312 374.210938 " fill-opacity="1" fill-rule="nonzero"/></g><path fill="#000000" d="M 61.183594 8.832031 L 4.820312 8.832031 C 2.390625 8.832031 0.421875 6.863281 0.421875 4.433594 C 0.421875 2.003906 2.390625 0.0351562 4.820312 0.0351562 L 61.183594 0.0351562 C 63.613281 0.0351562 65.578125 2.003906 65.578125 4.433594 C 65.578125 6.863281 63.613281 8.832031 61.183594 8.832031 Z M 61.183594 8.832031 " fill-opacity="1" fill-rule="nonzero"/><path fill="#000000" d="M 4.820312 65.191406 C 2.390625 65.191406 0.421875 63.226562 0.421875 60.796875 L 0.421875 4.433594 C 0.421875 2.003906 2.390625 0.0351562 4.820312 0.0351562 C 7.25 0.0351562 9.21875 2.003906 9.21875 4.433594 L 9.21875 60.796875 C 9.21875 63.226562 7.25 65.191406 4.820312 65.191406 Z M 4.820312 65.191406 " fill-opacity="1" fill-rule="nonzero"/><path fill="#000000" d="M 370.195312 8.832031 L 313.835938 8.832031 C 311.40625 8.832031 309.441406 6.863281 309.441406 4.433594 C 309.441406 2.003906 311.40625 0.0351562 313.835938 0.0351562 L 370.195312 0.0351562 C 372.625 0.0351562 374.59375 2.003906 374.59375 4.433594 C 374.59375 6.863281 372.625 8.832031 370.195312 8.832031 Z M 370.195312 8.832031 " fill-opacity="1" fill-rule="nonzero"/><path fill="#000000" d="M 370.195312 65.191406 C 367.765625 65.191406 365.796875 63.226562 365.796875 60.796875 L 365.796875 4.433594 C 365.796875 2.003906 367.765625 0.0351562 370.195312 0.0351562 C 372.625 0.0351562 374.59375 2.003906 374.59375 4.433594 L 374.59375 60.796875 C 374.59375 63.226562 372.625 65.191406 370.195312 65.191406 Z M 370.195312 65.191406 " fill-opacity="1" fill-rule="nonzero"/><g clip-path="url(#4abfbf1bbb)"><path fill="#000000" d="M 61.183594 374.210938 L 4.820312 374.210938 C 2.390625 374.210938 0.421875 372.242188 0.421875 369.8125 C 0.421875 367.382812 2.390625 365.414062 4.820312 365.414062 L 61.183594 365.414062 C 63.613281 365.414062 65.578125 367.382812 65.578125 369.8125 C 65.578125 372.242188 63.613281 374.210938 61.183594 374.210938 Z M 61.183594 374.210938 " fill-opacity="1" fill-rule="nonzero"/></g><g clip-path="url(#7a611691d4)"><path fill="#000000" d="M 4.820312 374.210938 C 2.390625 374.210938 0.421875 372.242188 0.421875 369.8125 L 0.421875 313.449219 C 0.421875 311.019531 2.390625 309.054688 4.820312 309.054688 C 7.25 309.054688 9.21875 311.019531 9.21875 313.449219 L 9.21875 369.8125 C 9.21875 372.242188 7.25 374.210938 4.820312 374.210938 Z M 4.820312 374.210938 " fill-opacity="1" fill-rule="nonzero"/></g></svg>