<svg xmlns="http://www.w3.org/2000/svg" xmlns:xlink="http://www.w3.org/1999/xlink" width="500" zoomAndPan="magnify" viewBox="0 0 375 374.999991" height="500" preserveAspectRatio="xMidYMid meet" version="1.0"><defs><clipPath id="5570e58d73"><path d="M 0 47.109375 L 375 47.109375 L 375 327.609375 L 0 327.609375 Z M 0 47.109375 " clip-rule="nonzero"/></clipPath></defs><g clip-path="url(#5570e58d73)"><path fill="#000000" d="M 168.710938 84.027344 L 175.609375 103.683594 C 175.898438 103.585938 176.183594 103.527344 176.472656 103.453125 L 170.09375 83.664062 C 169.632812 83.78125 169.171875 83.894531 168.710938 84.027344 Z M 373.289062 138.914062 C 374.269531 138.914062 375.058594 138.109375 375.058594 137.128906 C 375.058594 136.148438 374.269531 135.34375 373.289062 135.34375 L 327.472656 135.34375 L 327.472656 117.304688 L 187.539062 47.257812 L 47.585938 117.304688 L 47.585938 135.34375 L 1.785156 135.34375 C 0.808594 135.34375 0 136.148438 0 137.128906 C 0 138.109375 0.808594 138.914062 1.785156 138.914062 Z M 324.609375 135.34375 L 50.449219 135.34375 L 50.449219 119.070312 L 187.539062 50.46875 L 324.609375 119.070312 Z M 373.289062 236.105469 L 1.785156 236.105469 C 0.808594 236.105469 0 236.910156 0 237.890625 C 0 238.871094 0.808594 239.675781 1.785156 239.675781 L 47.585938 239.675781 L 47.585938 257.714844 L 186.886719 327.433594 L 187.539062 327.761719 L 327.472656 257.714844 L 327.472656 239.675781 L 373.289062 239.675781 C 374.269531 239.675781 375.058594 238.871094 375.058594 237.890625 C 375.058594 236.910156 374.269531 236.105469 373.289062 236.105469 Z M 50.449219 239.675781 L 324.609375 239.675781 L 324.609375 255.949219 L 187.539062 324.550781 L 50.449219 255.949219 Z M 236.738281 271.394531 L 217.96875 259.117188 C 217.796875 259.332031 217.605469 259.542969 217.429688 259.753906 L 235.855469 272.394531 C 236.160156 272.066406 236.449219 271.722656 236.738281 271.394531 Z M 223.5 282.941406 L 209.707031 266.34375 C 209.476562 266.496094 209.226562 266.648438 208.976562 266.804688 L 222.328125 283.671875 C 222.734375 283.441406 223.117188 283.191406 223.5 282.941406 Z M 188.59375 293.390625 L 187.980469 272.835938 C 187.691406 272.835938 187.382812 272.855469 187.078125 272.855469 L 187.171875 293.410156 C 187.652344 293.410156 188.132812 293.410156 188.59375 293.390625 Z M 206.941406 290.507812 L 199.429688 271.050781 C 199.140625 271.125 198.871094 271.203125 198.585938 271.296875 L 205.578125 290.914062 C 206.039062 290.777344 206.5 290.644531 206.941406 290.507812 Z M 139.242188 273.625 L 157.242188 260.519531 C 157.050781 260.308594 156.859375 260.097656 156.683594 259.90625 L 138.320312 272.644531 C 138.628906 272.96875 138.933594 273.296875 139.242188 273.625 Z M 153.132812 284.535156 L 165.90625 267.339844 C 165.65625 267.1875 165.40625 267.054688 165.175781 266.898438 L 151.921875 283.84375 C 152.324219 284.074219 152.726562 284.324219 153.132812 284.535156 Z M 176.472656 271.566406 C 176.183594 271.492188 175.898438 271.433594 175.609375 271.355469 L 168.710938 290.988281 C 169.171875 291.125 169.632812 291.238281 170.09375 291.355469 Z M 235.855469 102.625 L 217.429688 115.265625 C 217.605469 115.476562 217.796875 115.6875 217.96875 115.898438 L 236.738281 103.644531 C 236.449219 103.296875 236.160156 102.953125 235.855469 102.625 Z M 222.328125 91.347656 L 208.976562 108.234375 C 209.226562 108.371094 209.476562 108.523438 209.707031 108.695312 L 223.5 92.078125 C 223.117188 91.828125 222.734375 91.597656 222.328125 91.347656 Z M 187.078125 102.164062 C 187.382812 102.164062 187.691406 102.183594 187.980469 102.183594 L 188.59375 81.628906 C 188.132812 81.609375 187.652344 81.609375 187.171875 81.609375 Z M 198.585938 103.738281 C 198.871094 103.816406 199.140625 103.894531 199.429688 103.96875 L 206.941406 84.507812 C 206.5 84.375 206.039062 84.242188 205.578125 84.105469 Z M 138.320312 102.394531 L 156.683594 115.113281 C 156.859375 114.921875 157.050781 114.710938 157.242188 114.496094 L 139.242188 101.394531 C 138.933594 101.722656 138.628906 102.050781 138.320312 102.394531 Z M 151.921875 91.175781 L 165.175781 108.121094 C 165.40625 107.984375 165.65625 107.832031 165.90625 107.679688 L 153.132812 90.484375 C 152.726562 90.714844 152.324219 90.945312 151.921875 91.175781 Z M 151.921875 91.175781 " fill-opacity="1" fill-rule="nonzero"/></g></svg>