<svg xmlns="http://www.w3.org/2000/svg" xmlns:xlink="http://www.w3.org/1999/xlink" width="500" zoomAndPan="magnify" viewBox="0 0 375 374.999991" height="500" preserveAspectRatio="xMidYMid meet" version="1.0"><defs><clipPath id="83f80abed7"><path d="M 11.121094 0.0429688 L 363.621094 0.0429688 L 363.621094 374.953125 L 11.121094 374.953125 Z M 11.121094 0.0429688 " clip-rule="nonzero"/></clipPath></defs><g clip-path="url(#83f80abed7)"><path fill="#000000" d="M 149.175781 0.0429688 C 149.410156 0.1875 149.640625 0.332031 149.953125 0.523438 C 149.621094 1.15625 149.777344 2.121094 148.578125 2.097656 C 147.941406 2.082031 147.652344 3.113281 146.316406 6.339844 C 146.667969 6.804688 146.3125 6.636719 183.960938 6.636719 C 183.691406 3.957031 183.488281 3.871094 185.402344 3.972656 C 185.539062 5.199219 185.597656 6.789062 186.074219 6.796875 C 188.070312 6.835938 190.0625 6.824219 192.238281 6.824219 C 191.964844 5.613281 191.726562 4.550781 191.527344 3.679688 C 190.71875 3.714844 190.09375 3.742188 189.339844 3.773438 C 189.433594 3.292969 189.46875 2.992188 189.554688 2.707031 C 190.140625 0.707031 192.175781 1 192.6875 2.265625 C 194.214844 6.015625 193.324219 6.894531 195.023438 6.875 C 246.390625 6.320312 232.363281 6.757812 246.609375 6.757812 C 246.21875 4.859375 244.300781 3.382812 242.527344 3.570312 C 241.402344 3.691406 241.828125 2.65625 241.367188 2.164062 C 242.796875 1.511719 244.082031 1.664062 245.3125 2.402344 C 248.050781 4.039062 248.164062 6.707031 249.46875 6.800781 C 249.628906 6.8125 259.398438 7.527344 259.957031 7.316406 C 258.996094 6.535156 258.101562 5.808594 257.152344 5.035156 C 257.410156 4.609375 257.679688 4.167969 257.996094 3.652344 C 261.554688 5.84375 262 7.675781 263.25 7.953125 C 264.105469 8.140625 275.648438 10.671875 276.578125 10.765625 C 275.707031 9.9375 274.964844 9.234375 274.191406 8.496094 C 274.539062 8.070312 274.867188 7.671875 275.402344 7.023438 C 279.078125 10.960938 279.476562 11.535156 280.214844 11.722656 C 280.242188 11.730469 307.800781 18.753906 308.554688 18.753906 C 305.230469 13.832031 301.527344 9.457031 296.515625 6.296875 C 296.824219 5.785156 297.09375 5.34375 297.394531 4.847656 C 302.78125 8.128906 307.121094 13.347656 310.535156 18.652344 C 311.351562 19.921875 310.34375 19.320312 334.390625 25.539062 C 335.238281 25.761719 335.3125 26.425781 332.324219 19.203125 C 332.847656 18.960938 333.3125 18.75 333.878906 18.492188 C 338.59375 29.882812 334.304688 24.566406 353.007812 30.800781 C 352.777344 31.417969 353.09375 32.300781 351.914062 32.414062 C 352.996094 32.832031 354.011719 33.222656 355.117188 33.648438 C 354.921875 34.183594 354.738281 34.679688 354.554688 35.183594 C 336.164062 28.664062 338.179688 29.085938 338.648438 30.355469 C 350.632812 62.625 342.929688 54.234375 354.910156 62.15625 C 354.53125 62.683594 354.226562 63.101562 353.882812 63.570312 C 351.976562 62.273438 350.105469 61 348.007812 59.570312 C 353.539062 81.644531 353.058594 80.785156 354.179688 81.464844 C 356.703125 82.988281 358.855469 84.972656 360.984375 87.109375 C 360.535156 87.523438 360.140625 87.894531 359.773438 88.238281 C 354.195312 83.503906 354.359375 83.472656 354.007812 83.746094 C 354.59375 87.136719 357.042969 102.453125 357.773438 107.101562 C 358.136719 109.414062 363.046875 110.765625 363.863281 115.582031 C 361.3125 116.699219 362.792969 116.589844 360.5625 113.488281 C 359.945312 112.628906 359.171875 111.882812 358.46875 111.09375 C 358.191406 115.03125 357.953125 118.835938 357.644531 122.632812 C 357.039062 130.042969 355.734375 128.300781 359.957031 130.300781 C 359.371094 130.875 358.964844 131.589844 358.414062 131.726562 C 357.914062 131.851562 357.253906 131.351562 356.550781 131.082031 C 354.695312 141.632812 352.851562 152.113281 350.996094 162.664062 C 353.339844 163.183594 355.621094 163.242188 357.441406 164.703125 C 356.246094 166.296875 356.0625 165.820312 350.789062 164.347656 C 350.058594 171.386719 349.347656 178.210938 348.605469 185.332031 C 350.292969 184.882812 351.839844 185.398438 353.105469 184.28125 C 353.277344 184.128906 353.632812 184.125 353.894531 184.152344 C 358.535156 184.640625 358.441406 184.613281 358.484375 184.933594 C 355.71875 185.648438 353.722656 186.347656 349.667969 186.714844 C 348.90625 186.785156 348.667969 187.082031 348.671875 187.804688 C 348.878906 209.679688 348.660156 201.617188 349.167969 210.300781 C 350.761719 210.089844 352.136719 209.589844 353.15625 208.546875 C 354.121094 207.554688 354.585938 207.941406 356.367188 208.386719 C 355.230469 209.511719 355.457031 210.167969 350.28125 211.878906 C 349.554688 212.117188 349.277344 212.351562 349.382812 213.136719 C 350.113281 218.511719 353.773438 247.007812 355.027344 252.164062 C 357.359375 250.515625 359.472656 247.023438 357.6875 244.726562 C 359.792969 243.648438 360.03125 244.769531 360.402344 245.902344 C 361.582031 249.457031 360.6875 252.523438 358.230469 255.222656 C 356.777344 256.820312 355.496094 256.707031 355.6875 259.839844 C 356.378906 271.382812 352.617188 293.214844 352.910156 295.679688 C 356.582031 292.847656 359.339844 289.445312 361.339844 285.339844 C 361.941406 285.664062 362.472656 285.949219 363.046875 286.257812 C 359.867188 294.226562 352.460938 297.394531 352.25 299.621094 C 352.160156 300.566406 352.019531 301.507812 352.09375 302.667969 C 354.246094 301.164062 356.402344 299.65625 358.644531 298.085938 C 358.980469 298.445312 359.375 298.863281 359.902344 299.425781 C 352.5625 305.039062 351.535156 304.601562 351.347656 305.789062 C 349.082031 320.066406 344.703125 333.890625 343.753906 337.710938 C 348.085938 335.578125 352.21875 333.546875 356.457031 331.464844 C 356.695312 331.886719 356.957031 332.355469 357.277344 332.925781 C 343.019531 340.089844 343.183594 339.5625 343.011719 340.101562 C 342.222656 342.523438 341.488281 344.960938 340.679688 347.589844 C 343.777344 346.523438 346.703125 345.511719 349.742188 344.460938 C 349.925781 344.972656 350.109375 345.472656 350.324219 346.066406 C 347.753906 346.957031 345.296875 347.996094 342.746094 348.644531 C 340.613281 349.183594 339.492188 350.265625 339.015625 352.414062 C 338.59375 354.320312 337.773438 356.140625 337.105469 358.074219 C 336.535156 357.878906 336.054688 357.714844 335.5 357.523438 C 336.3125 355.140625 337.105469 352.820312 337.945312 350.367188 C 336.363281 350.730469 322.332031 355.011719 320.777344 355.492188 C 319.644531 355.839844 318.972656 357.5625 318.066406 359.214844 C 317.570312 358.945312 317.125 358.699219 316.582031 358.402344 C 316.921875 357.757812 317.246094 357.144531 317.660156 356.371094 L 288.90625 363.527344 C 287.164062 363.964844 286.308594 366.675781 281.578125 369.148438 C 281.320312 368.667969 281.082031 368.222656 280.847656 367.773438 C 286.050781 363.902344 286.511719 364.035156 280.957031 365.273438 C 260.597656 369.8125 261.625 369.480469 260.273438 370.363281 C 258.589844 371.460938 256.804688 372.207031 254.707031 372.296875 C 254.648438 371.847656 254.601562 371.460938 254.539062 370.992188 C 252.238281 370.992188 243.082031 371.851562 231.402344 372.597656 C 184.609375 375.59375 175.933594 372.488281 173.890625 374.402344 C 172.242188 375.949219 170.535156 373.742188 169.253906 373.695312 C 130.925781 372.277344 118.992188 372.574219 100.519531 368.996094 C 93.34375 367.605469 94.582031 368.023438 92.945312 368.667969 C 91.59375 366.847656 89.238281 367.390625 87.210938 366.84375 C 87.164062 366.9375 87.117188 367.035156 87.070312 367.128906 C 92.171875 370.195312 91.960938 369.503906 91.0625 371.355469 C 89.566406 370.726562 90.992188 371.457031 84.066406 366.828125 C 82.515625 365.792969 47.09375 361.195312 46.496094 361.148438 C 46.617188 361.589844 46.710938 361.9375 46.832031 362.378906 C 46.386719 362.605469 45.9375 362.832031 45.394531 363.105469 C 44.667969 361.40625 44.863281 360.867188 43.203125 360.605469 C 41.480469 360.335938 18.164062 356.671875 16.464844 356.269531 C 16.566406 355.714844 16.660156 355.210938 16.746094 354.753906 C 25.6875 356.167969 34.570312 357.574219 43.679688 359.011719 C 42.984375 356.878906 41.871094 354.039062 40.28125 349.511719 C 39.691406 347.839844 33.628906 347.097656 24.363281 343.691406 C 24.546875 343.144531 24.71875 342.636719 24.890625 342.113281 C 29.648438 343.628906 34.332031 345.117188 39.179688 346.660156 C 38.683594 344.109375 35.800781 337.433594 31.574219 316.867188 C 31.441406 316.203125 31.148438 315.875 30.546875 315.617188 C 23.6875 312.65625 17.277344 309.066406 12.734375 303.160156 C 13.152344 302.730469 13.546875 302.324219 14.042969 301.820312 C 18.480469 307.472656 24.402344 310.746094 30.878906 313.636719 C 29.664062 306.839844 27.347656 293.644531 26.1875 286.835938 C 25.734375 284.183594 21.851562 284.265625 17.007812 278.058594 C 15.117188 275.632812 13.800781 272.945312 13.222656 269.804688 C 13.734375 269.625 14.246094 269.449219 14.886719 269.226562 C 16.160156 275.523438 20.339844 279.507812 25.5 282.800781 C 23.851562 272.148438 24.0625 272.511719 22.988281 272.058594 C 18.953125 270.347656 17.058594 268.632812 14.984375 266.207031 C 15.441406 265.808594 15.867188 265.441406 16.375 265.007812 C 18.253906 267.339844 20.578125 268.945312 23.367188 270.171875 C 23.132812 268.363281 22.570312 264.765625 22.511719 261.511719 C 22.476562 259.546875 19.933594 260.484375 15.957031 256.941406 C 10.648438 252.210938 12.996094 248.285156 13.894531 245.347656 C 14.613281 245.648438 15.078125 245.847656 15.578125 246.058594 C 15.289062 246.726562 15.015625 247.308594 14.78125 247.902344 C 12.820312 252.914062 17.3125 256.414062 22.3125 258.457031 C 23.539062 245.921875 24.761719 233.4375 25.988281 220.917969 C 21.46875 221.636719 16.445312 222.6875 14.507812 219.03125 C 15.171875 218.691406 15.769531 218.386719 16.402344 218.0625 C 17.722656 220.199219 19.273438 219.667969 25.652344 219.113281 C 26.949219 219 26.453125 219.257812 30.601562 191.84375 C 26.160156 193.417969 21.921875 195.085938 17.300781 195.4375 C 17.886719 192.429688 17.207031 195.195312 30.339844 190.296875 C 30.65625 190.175781 30.917969 189.550781 30.96875 189.132812 C 33.378906 169.15625 32.933594 171.648438 33.308594 165.808594 C 28.9375 167.355469 23.300781 169.125 19.773438 171.695312 C 18.976562 172.273438 18.421875 171.589844 17.777344 171.367188 C 17.738281 171.273438 17.699219 171.179688 17.660156 171.085938 C 21.882812 168.625 18.40625 169.90625 32.546875 164.589844 C 33.871094 164.089844 33.453125 164.601562 32.769531 147.664062 C 32.746094 147.121094 32.597656 146.582031 32.480469 145.863281 C 32.460938 145.871094 22.84375 149.597656 19.664062 153.027344 C 18.542969 154.234375 18.496094 154.253906 16.59375 153.554688 C 17.78125 152.253906 19.570312 148.917969 31.671875 144.5625 C 32.226562 144.363281 32.363281 144.058594 32.277344 143.523438 C 28.078125 116.84375 26.320312 115.125 26.921875 104.628906 C 22.300781 106.410156 18.195312 108.570312 15.625 113.007812 C 15.144531 112.75 14.671875 112.496094 14.113281 112.195312 C 16.527344 107.5625 21.738281 104.171875 26.402344 102.75 C 26.859375 102.613281 27.214844 102.476562 27.289062 101.871094 C 27.832031 97.433594 28.332031 94.554688 28.425781 93.015625 C 22.347656 96.398438 17.011719 100.269531 15.03125 107.398438 C 14.507812 107.25 14.015625 107.113281 13.375 106.933594 C 17.523438 93.839844 28.445312 92.554688 29.007812 89.765625 C 31.804688 75.828125 34.332031 66.046875 37.613281 53.882812 C 29.191406 58.046875 21.601562 62.917969 15.726562 70.175781 C 14.988281 69.609375 15.335938 69.917969 14.375 69.019531 C 21.398438 60.039062 29.839844 55.976562 37.636719 51.785156 C 38.582031 51.273438 38.160156 51.976562 43.464844 35.886719 C 43.5 35.773438 43.515625 35.652344 43.59375 35.28125 C 31.898438 40.578125 20.988281 46.664062 12.457031 56.472656 C 12.027344 56.089844 11.625 55.734375 11.121094 55.292969 C 20.898438 44.078125 30.621094 39.492188 43.773438 33.210938 C 44.898438 32.675781 44.625 32.710938 47.355469 26.023438 C 38.65625 29.050781 30.25 32.421875 22.03125 36.476562 C 21.769531 35.945312 21.539062 35.484375 21.265625 34.933594 C 29.171875 31.078125 36.898438 27.777344 47.535156 24.15625 C 50.117188 23.277344 51.265625 14.121094 62.632812 1.039062 C 63.074219 1.410156 63.484375 1.757812 63.933594 2.136719 C 58.460938 8.414062 54.359375 15.476562 50.714844 23.054688 C 52.953125 22.347656 55.003906 21.71875 57.035156 21.023438 C 57.730469 20.785156 61.023438 13.023438 62.789062 9.992188 C 63.28125 10.265625 63.730469 10.511719 64.199219 10.769531 C 62.640625 13.914062 61.117188 16.988281 59.476562 20.296875 C 81.386719 13.953125 94.09375 11.484375 95.0625 10.1875 C 98.210938 5.953125 100.679688 4 103.585938 2.207031 C 103.863281 2.6875 104.121094 3.128906 104.441406 3.675781 C 101.691406 5.3125 99.398438 7.414062 97.316406 10.117188 C 111.96875 6.730469 109.277344 8.378906 112.140625 4.28125 C 112.621094 4.667969 113.023438 4.992188 113.460938 5.34375 C 113.125 5.847656 112.808594 6.320312 112.484375 6.804688 C 125.269531 5.546875 143.609375 6.902344 144.386719 6.363281 C 145.269531 5.753906 145.242188 0.0429688 149.175781 0.0429688 Z M 205.988281 107.5 C 207.574219 107.5 212.753906 106.367188 214.558594 105.722656 C 224.433594 102.191406 228.519531 97.597656 240.664062 87.824219 C 243.207031 85.777344 241.160156 82.960938 245.847656 63.667969 C 249.664062 47.972656 250.109375 42.722656 250.746094 33.832031 C 249.105469 33.832031 250.683594 33.808594 197.660156 39.921875 C 196.28125 40.082031 196.261719 40.054688 196.421875 41.382812 C 199.972656 70.902344 202.875 75.539062 205.988281 107.5 Z M 270.28125 315.625 C 269.78125 307.351562 265.34375 292.601562 262.238281 283.617188 C 259.359375 275.296875 255.25 267.554688 251.113281 259.824219 C 250.253906 258.21875 251.082031 260.152344 217.4375 257.757812 C 211.675781 257.347656 212.183594 256.679688 212.617188 258.457031 C 216.96875 276.191406 225.335938 291.136719 228.4375 308.140625 C 228.546875 308.730469 228.875 308.875 229.355469 308.992188 C 243.765625 312.53125 254.863281 315.625 270.28125 315.625 Z M 266.082031 214.171875 C 270.253906 227.058594 280.082031 237.503906 287.359375 252.871094 C 287.515625 253.207031 288.019531 253.503906 288.40625 253.585938 C 307.8125 257.714844 319.539062 258.109375 333.308594 257.5 C 332.507812 253.714844 329.859375 245.664062 320.183594 214.339844 C 319.769531 213.003906 320.28125 213.359375 303.273438 212.550781 C 290.453125 211.941406 288.476562 211.511719 266.082031 214.171875 Z M 198.730469 107.660156 C 194.441406 76.914062 188.621094 59.554688 186.335938 42.699219 C 186.042969 40.550781 185.988281 40.558594 183.804688 40.589844 C 167.597656 40.800781 156.3125 39.441406 146.441406 38.574219 C 150.492188 56.894531 162.121094 76.960938 168.8125 97.664062 C 168.925781 98.007812 169.304688 98.378906 169.648438 98.523438 C 181.023438 103.246094 186.601562 105.53125 198.730469 107.660156 Z M 167.53125 97.582031 C 162.996094 82.566406 148.269531 54.488281 144.976562 39.414062 C 144.789062 38.550781 144.449219 38.28125 143.601562 38.191406 C 118.53125 35.617188 114.757812 34.761719 105.984375 35.125 C 105.984375 49.726562 109.25 58.042969 123.472656 81.8125 C 123.707031 82.203125 124.226562 82.578125 124.667969 82.664062 C 143.464844 86.375 161.347656 95.484375 167.53125 97.585938 Z M 154.121094 294.636719 C 150.164062 278.246094 147.921875 261.988281 149.640625 245.277344 C 138.160156 244.101562 127.710938 244.066406 114.808594 247.175781 C 114.082031 247.351562 113.511719 247.511719 113.4375 248.445312 C 113.300781 250.1875 110.066406 277.1875 113.359375 295.292969 C 126.882812 292.550781 140.371094 292.691406 154.121094 294.636719 Z M 112.675781 134.886719 C 109.613281 119.652344 109.5 120.566406 99.003906 99.382812 C 98.703125 98.777344 98.324219 98.484375 97.609375 98.394531 C 79.660156 96.207031 64.390625 97.292969 48.988281 99.441406 C 53.863281 113.433594 61.535156 123.175781 66.117188 134.546875 C 66.386719 135.214844 66.707031 135.351562 67.429688 135.273438 C 89.097656 132.914062 91.320312 132.453125 112.675781 134.886719 Z M 299.644531 314.488281 C 299.777344 312.800781 299.863281 288.222656 289.070312 262.421875 C 288.933594 262.097656 288.511719 261.734375 288.171875 261.679688 C 275.199219 259.503906 271.097656 259.132812 252.816406 259.132812 C 255.628906 264.707031 268.5625 286.984375 272.152344 314.894531 C 272.308594 316.121094 272.167969 315.847656 299.644531 314.488281 Z M 301.746094 314.378906 C 309.96875 314.378906 324.882812 309.601562 332.410156 306.683594 C 332.917969 306.488281 333.121094 306.207031 333.164062 305.675781 C 334.625 286.757812 334.699219 268.457031 334.441406 264.136719 C 318.699219 265.75 307.890625 264.019531 291.484375 262.410156 C 298.421875 278.96875 301.394531 296.359375 301.746094 314.378906 Z M 328.601562 130.222656 C 323.820312 130.605469 312.796875 132.136719 303.664062 134.144531 C 288.007812 137.59375 286.007812 138.53125 273.3125 144.949219 C 272.949219 145.132812 272.582031 145.546875 272.453125 145.933594 C 267.992188 159.566406 266.605469 162.8125 264.011719 175.273438 C 297.1875 165.023438 293.707031 165.9375 316.828125 164.105469 C 318.625 163.964844 317.640625 164.261719 323.128906 146.71875 C 324.644531 141.882812 325.617188 139.414062 328.601562 130.222656 Z M 150.839844 245.460938 C 148.792969 260.820312 151.859375 278.804688 155.375 293.898438 C 155.742188 295.464844 155.277344 294.40625 177.789062 298.546875 C 191.613281 301.089844 190.128906 301.035156 191.636719 301.035156 C 185.816406 284.195312 180.171875 269.472656 178.972656 251.589844 C 178.90625 250.566406 179.070312 250.902344 154.339844 245.917969 C 153.226562 245.695312 152.085938 245.621094 150.839844 245.460938 Z M 225.171875 366.765625 C 226.25 366.851562 250.894531 365.289062 261.242188 363.695312 C 264.550781 363.183594 264.496094 363.050781 265.820312 359.996094 C 269.410156 351.726562 271.964844 339.460938 271.28125 325.539062 C 271.1875 323.605469 269.757812 326.625 230.597656 326.625 C 230.597656 363.089844 226.035156 362.164062 225.171875 366.765625 Z M 112.054688 247.972656 C 104.359375 248.574219 80.335938 261.875 76.039062 264.097656 C 75.460938 264.394531 75.269531 264.773438 75.226562 265.394531 C 74.535156 275.59375 74.554688 285.808594 74.695312 296.023438 C 74.703125 296.699219 74.972656 296.84375 75.582031 296.847656 C 86.949219 296.941406 99.507812 297.523438 110.539062 295.65625 C 113.949219 295.078125 107.390625 285.777344 112.054688 247.972656 Z M 116.050781 334.527344 C 116.050781 342.515625 119.792969 355.953125 125.03125 364.449219 C 125.882812 365.832031 124.972656 365.3125 166.238281 367.1875 C 162.300781 355.316406 162.539062 358.242188 160.777344 329.667969 C 145.816406 331.292969 130.980469 332.90625 116.050781 334.527344 Z M 77.960938 243.511719 C 80.347656 242.511719 85.082031 240.109375 89.375 238.3125 C 131.414062 220.710938 103.183594 251.171875 130.214844 194.480469 C 115.757812 192.261719 102.5 194.402344 97.097656 194.960938 C 96.464844 195.027344 96.125 195.324219 95.855469 195.882812 C 86.84375 214.675781 82.484375 222.511719 77.960938 243.511719 Z M 273.316406 143.398438 C 280.03125 140.027344 287.078125 136.144531 298.058594 133.648438 C 327.230469 127.015625 328.921875 129.730469 329.605469 127.226562 C 330.511719 123.886719 336.855469 103.242188 333.398438 103.113281 C 327.542969 102.902344 316.289062 101.257812 287.40625 108.144531 C 286.992188 108.242188 286.5 108.695312 286.339844 109.101562 C 276.65625 133.820312 276.179688 135.566406 273.316406 143.398438 Z M 83.902344 38.757812 C 78.726562 39.996094 73.644531 40.269531 68.839844 41.992188 C 63.035156 44.074219 57.191406 46.050781 51.363281 48.054688 C 50.460938 48.363281 50.472656 48.554688 49.742188 52.214844 C 48.035156 60.785156 46.152344 65.003906 47.007812 83.625 C 47.019531 83.882812 47.09375 84.136719 47.152344 84.476562 C 61.136719 81.367188 75.183594 79.652344 89.589844 79.550781 C 82.320312 62.40625 81.574219 52.066406 83.902344 38.757812 Z M 199.964844 367.738281 C 199.964844 367.71875 199.648438 352.808594 197.835938 328.441406 C 197.6875 326.4375 197.792969 327.058594 163.648438 329.445312 C 161.691406 329.582031 162.652344 329.441406 163.617188 348.167969 C 163.945312 354.503906 165.59375 360.515625 167.808594 366.410156 C 168.054688 367.066406 168.390625 367.292969 169.078125 367.300781 C 199.640625 367.78125 188.328125 367.738281 199.964844 367.738281 Z M 160.5625 326.003906 C 158.984375 314.796875 160.550781 324.523438 155.253906 299.464844 C 155.023438 298.359375 154.457031 298.113281 153.503906 298.039062 C 129.175781 296.183594 132.238281 296.957031 114.65625 298.707031 C 111.839844 298.988281 115.667969 302.027344 115.667969 332.015625 C 130.738281 329.996094 145.558594 328.011719 160.5625 326.003906 Z M 194.605469 11.589844 C 194.605469 12.917969 195.320312 18.832031 195.671875 24.207031 C 196.46875 36.414062 195.488281 37.179688 197.230469 36.945312 C 197.242188 36.945312 210.441406 35.5625 236.824219 32.800781 C 250.882812 31.3125 250.871094 31.988281 250.792969 30.496094 C 250.679688 28.324219 251.082031 20.28125 248.519531 10.972656 C 248.269531 10.066406 247.882812 9.761719 246.929688 9.796875 L 194.609375 11.589844 Z M 60.148438 206.914062 C 47.683594 212.726562 39.171875 216.976562 30.101562 219.679688 C 28.902344 220.035156 28.460938 220.585938 28.324219 221.792969 C 24.082031 259.253906 23.875 259.195312 24.835938 259.347656 C 27.4375 259.761719 36.054688 262.394531 51.230469 256.734375 C 53.6875 255.816406 50.085938 253.800781 60.148438 206.914062 Z M 334.082031 100.957031 C 334.082031 97.871094 333.039062 83.726562 331.105469 74.769531 C 330.972656 74.140625 330.703125 73.824219 330.066406 73.691406 C 327.433594 73.15625 316.449219 69.851562 297.082031 71.117188 C 295.242188 71.238281 296.285156 72.082031 294.285156 82.578125 C 292.304688 92.964844 289.179688 100.972656 287.578125 105.84375 C 302.453125 102.210938 318.910156 99.527344 334.082031 100.957031 Z M 319.191406 211.699219 C 315.949219 196.640625 317.03125 202.910156 315.035156 187.636719 C 315.054688 187.644531 315.414062 187.554688 311.074219 187.628906 C 291.1875 187.960938 295.738281 187.785156 262.816406 194.191406 C 262.300781 194.292969 262.058594 194.484375 262.117188 195.03125 C 263.082031 204.21875 261.828125 197.105469 265.34375 212.28125 C 265.523438 213.042969 265.859375 213.140625 266.566406 213.050781 C 299.765625 208.789062 295.9375 211.699219 319.191406 211.699219 Z M 113.914062 332.035156 C 113.824219 320.882812 113.097656 310.035156 111.90625 299.035156 C 99.523438 301.292969 87.1875 300.089844 74.835938 299.714844 C 74.199219 310.070312 76.085938 324.117188 76.34375 326.460938 C 76.378906 326.785156 76.746094 327.277344 77.039062 327.34375 C 99.488281 332.371094 97.863281 332.289062 113.910156 332.035156 Z M 54.171875 255.519531 C 56.761719 254.464844 54.203125 255.570312 75.226562 245.042969 C 76.707031 244.300781 76.300781 240.980469 79.898438 228.960938 C 83.550781 216.773438 88.554688 206.8125 93.925781 195.601562 C 88.101562 196.457031 76.441406 199.742188 63.722656 205.335938 C 63.152344 205.585938 62.859375 205.921875 62.726562 206.527344 C 61.753906 210.980469 56.828125 230.847656 54.171875 255.519531 Z M 237.390625 216.9375 C 237.390625 220.644531 239.332031 228.261719 240.402344 231.808594 C 242.375 238.332031 245.195312 244.496094 248.234375 250.574219 C 249.3125 252.730469 252.707031 250.050781 280.542969 252.351562 C 285.363281 252.75 285.269531 253.691406 284.453125 251.976562 C 278.074219 238.589844 269.046875 228.976562 264.527344 216.316406 C 263.328125 212.949219 264.511719 215.507812 237.390625 216.9375 Z M 161.242188 201.238281 C 151.722656 198.589844 143.207031 196.246094 132.382812 194.703125 C 131.898438 194.632812 131.542969 194.632812 131.273438 195.203125 C 122.363281 214.140625 120.15625 221.277344 117.136719 231.019531 C 128.789062 229.875 140.167969 230.761719 151.453125 233.296875 C 153.769531 222.253906 157.316406 211.734375 161.242188 201.238281 Z M 101.519531 98.90625 C 104.703125 106.972656 111.648438 115.835938 114.796875 134.480469 C 114.996094 135.648438 115.441406 135.390625 118.832031 136.023438 C 131.101562 138.308594 141.113281 141.964844 144.421875 142.90625 C 143.320312 133.316406 143.488281 125.15625 136.105469 108.441406 C 135.816406 107.785156 135.402344 107.4375 134.75 107.199219 C 122.488281 102.691406 112.464844 100.578125 101.519531 98.90625 Z M 189.933594 253.398438 C 191.445312 266.964844 200.429688 287.859375 206.644531 303.59375 C 206.753906 303.875 207.195312 304.140625 207.523438 304.210938 C 208.765625 304.480469 225.285156 308.03125 226.75 308.222656 C 222.445312 289.46875 214.207031 272.53125 210.996094 257.734375 C 210.714844 256.441406 211.0625 257.402344 189.933594 253.398438 Z M 123.554688 365.246094 C 119.414062 358.371094 115.164062 347.289062 114.140625 334.378906 C 101.359375 335.617188 89.226562 332.40625 76.984375 329.441406 C 77.160156 332.058594 80.8125 345.902344 85.640625 355.964844 C 86.519531 357.796875 87.644531 358.808594 89.6875 359.324219 C 111.179688 364.722656 106.046875 363.917969 123.554688 365.246094 Z M 211.363281 215.144531 C 209.386719 225.003906 208.863281 236.285156 210.476562 247.664062 C 210.546875 248.164062 210.738281 248.355469 211.203125 248.421875 C 217.144531 249.285156 227.804688 251.339844 246.707031 251.339844 C 239.273438 236.910156 236.785156 226.054688 235.835938 216.90625 C 227.597656 217.054688 219.5 216.4375 211.363281 215.144531 Z M 103.949219 35.488281 C 102.582031 35.488281 86.652344 38.355469 86.625 38.363281 C 85.824219 38.503906 85.824219 39.527344 85.359375 42.773438 C 83.503906 55.777344 86.742188 66.789062 91.859375 78.832031 C 92.304688 79.878906 92.539062 79.496094 97.699219 79.683594 C 107.816406 80.042969 113.953125 80.8125 121.597656 82.046875 C 111.515625 64.910156 103.949219 53.011719 103.949219 35.488281 Z M 255.964844 121.023438 C 257.375 120.308594 257.917969 119.804688 263.300781 116.449219 C 282.464844 104.503906 283.882812 109.039062 285.542969 104.398438 C 290.488281 90.535156 293.820312 75.359375 293.5625 71.492188 C 289.691406 71.492188 278.097656 73.46875 268.789062 76.046875 C 266.949219 76.558594 259.628906 106.75 255.96875 121.023438 Z M 315.277344 186.28125 C 315.128906 179.160156 316.105469 172.378906 317.585938 165.578125 C 296.117188 165.578125 286.085938 169.984375 264.941406 176.035156 C 263.992188 176.304688 263.589844 176.742188 263.480469 177.695312 C 261.707031 193.242188 262.089844 187.117188 262.089844 193.28125 C 263.871094 193.082031 262.097656 193.328125 282.019531 189.171875 C 291.402344 187.214844 297.410156 186.28125 315.277344 186.28125 Z M 145.699219 12.496094 C 145.3125 14.183594 144.625 25.699219 145.664062 34.660156 C 145.84375 36.199219 145.679688 35.71875 157.457031 36.675781 C 168.179688 37.546875 180.175781 37.714844 185.710938 37.4375 C 184.109375 11.859375 185.328125 11.882812 183.453125 11.917969 C 179.675781 11.992188 153.1875 12.496094 145.699219 12.496094 Z M 293.753906 354.78125 C 294.332031 354.8125 322.246094 346.078125 322.261719 346.074219 C 323.679688 345.632812 329.925781 329.21875 332.324219 312.257812 C 302.355469 318.507812 301.746094 316.605469 301.628906 318.496094 C 300.351562 338.847656 298.574219 342.648438 293.753906 354.78125 Z M 206.355469 110.546875 C 206.21875 118.90625 206.082031 127.195312 205.945312 135.589844 C 206.058594 135.617188 206.378906 135.738281 206.707031 135.757812 C 215.933594 136.300781 221.171875 137.265625 233.132812 133.074219 C 235.519531 132.238281 240.851562 93.695312 241.1875 91.1875 C 229.914062 100.550781 221.351562 109.078125 206.355469 110.546875 Z M 174.074219 153.785156 C 174.199219 151.542969 175.855469 126.515625 173.386719 125.25 C 164.453125 120.679688 147.257812 112.089844 137.925781 108.390625 C 137.6875 109.648438 145.203125 122.320312 145.527344 142.664062 C 145.546875 143.8125 145.5625 143.335938 174.074219 153.785156 Z M 243.382812 85.277344 C 243.691406 85.363281 243.476562 85.441406 244.480469 84.667969 C 259.613281 73.054688 266.425781 75.828125 267.128906 72.542969 C 268.90625 64.304688 273.09375 51.574219 270.355469 34.007812 C 270.242188 33.273438 269.992188 32.980469 269.222656 32.886719 C 263.835938 32.242188 258.503906 32.910156 253.160156 33.445312 C 252.621094 33.5 252.539062 33.804688 252.519531 34.257812 C 251.738281 51.394531 246.492188 65.996094 243.382812 85.277344 Z M 63.183594 135.785156 C 59.78125 127.605469 55.300781 119.640625 51.042969 111.777344 C 45.660156 101.824219 47.386719 99.625 45.746094 100.003906 C 29.027344 103.875 29.453125 103.230469 29.285156 104.773438 C 28.125 115.492188 32.332031 122.550781 35.085938 142.238281 C 35.335938 144.015625 34 143.066406 49.109375 139.082031 C 53.746094 137.855469 58.453125 136.882812 63.183594 135.785156 Z M 299.703125 318.15625 L 273.753906 324.316406 C 271.996094 324.730469 274.761719 329.773438 272 345.058594 C 269.902344 356.65625 267.230469 360.707031 266.792969 362.257812 C 267.191406 362.3125 290.90625 355.703125 290.925781 355.699219 C 291.203125 355.621094 291.503906 355.328125 291.625 355.058594 C 296.058594 345.242188 298.671875 338.035156 299.707031 318.15625 Z M 323.214844 213.496094 C 323.714844 215.484375 324.710938 218.683594 326.261719 224.117188 C 335.789062 257.4375 335.195312 257.402344 336.433594 257.238281 C 339.460938 256.84375 346.308594 256.523438 352.1875 253.835938 C 353.289062 253.335938 352.945312 253.464844 351.699219 245.976562 C 346.164062 212.71875 347.179688 214.683594 346.660156 212.640625 C 338.886719 213.722656 331.109375 213.363281 323.214844 213.496094 Z M 321.550781 163.671875 C 324.261719 163.671875 328.320312 163.398438 347.730469 162.621094 C 349.121094 162.566406 348.453125 162.796875 350.859375 149.753906 C 354.46875 130.203125 355.0625 130.304688 353.695312 130.085938 C 350.953125 129.652344 347.613281 128.210938 332.144531 129.824219 C 331.359375 129.90625 331.15625 130.972656 330.039062 134.660156 C 321.269531 163.589844 323.3125 156.652344 321.550781 163.671875 Z M 33.476562 316.902344 C 33.417969 317.707031 36.726562 333.542969 41 346.445312 C 41.402344 347.65625 40.816406 347.113281 72.316406 355.003906 C 73.140625 355.210938 73.964844 355.390625 75.003906 355.628906 C 50.105469 311.839844 79.363281 334.078125 33.476562 316.902344 Z M 235.027344 132.355469 C 241.609375 129.847656 247.589844 126.464844 253.511719 122.65625 C 255.296875 121.507812 257.144531 106.191406 265.84375 76.992188 C 264.042969 77.152344 258.40625 79.292969 254.625 81.324219 C 250.496094 83.542969 246.835938 86.429688 243.261719 89.425781 C 241.539062 90.875 242.402344 99.222656 235.027344 132.355469 Z M 66.0625 179.019531 C 64.378906 179.457031 34.007812 190.542969 33.941406 190.5625 C 33.097656 190.875 33.347656 190.453125 29.316406 215.234375 C 29.160156 216.199219 29.046875 217.167969 28.902344 218.230469 C 35.617188 216.699219 56.117188 207.171875 59.539062 205.648438 C 61.019531 204.988281 60.453125 205.886719 65.382812 183.234375 C 65.675781 181.890625 65.824219 180.515625 66.0625 179.019531 Z M 156.585938 298.503906 C 157.125 301.734375 160.726562 313.871094 162.082031 325.015625 C 162.296875 326.773438 162.6875 325.5625 177.773438 324.585938 C 198.632812 323.234375 197.402344 324.472656 197.128906 322.367188 C 196.378906 316.5625 194.824219 310.949219 193.078125 305.375 C 192.699219 304.164062 193.25 304.328125 170.089844 300.5 C 158.898438 298.648438 159.910156 298.902344 156.585938 298.503906 Z M 162.101562 201.519531 C 158.257812 212.019531 154.710938 222.523438 152.597656 233.308594 C 161.363281 235.699219 170.035156 238.066406 178.769531 240.449219 C 179.136719 229.5625 181.234375 218.957031 183.953125 208.402344 C 176.617188 206.09375 169.382812 203.8125 162.101562 201.519531 Z M 292.675781 37.824219 C 293.457031 40.871094 296.738281 49.632812 296.472656 62.261719 C 296.34375 68.355469 295.863281 68.714844 297.019531 68.609375 C 313.003906 67.113281 329.820312 71.539062 330.402344 71.621094 C 329.371094 66.328125 326.625 56.855469 322.96875 47.824219 C 322.820312 47.460938 322.398438 47.085938 322.023438 46.960938 C 294.542969 37.828125 299.726562 39.65625 292.675781 37.824219 Z M 246.199219 156.183594 C 250.792969 154.90625 270.53125 145.65625 271.1875 143.851562 C 283.820312 109.105469 283.46875 110.015625 283.703125 109.058594 C 273.355469 112.503906 268.460938 115.386719 255.699219 123.675781 C 254.691406 124.332031 255.375 123.988281 246.199219 156.183594 Z M 125.628906 84.972656 C 125.1875 85.671875 129.6875 91.191406 136.511719 105.617188 C 136.804688 106.234375 137.222656 106.546875 137.824219 106.792969 C 153.597656 113.152344 160.523438 117.664062 173.742188 123.867188 C 174.03125 121.65625 169.601562 101.101562 167.898438 100.324219 C 143.644531 89.289062 134.574219 87.222656 125.628906 84.972656 Z M 143.839844 12.578125 C 141.691406 12.46875 143.835938 12.558594 118.625 12.480469 C 115.105469 12.472656 109.425781 12.382812 108.796875 14.246094 C 106.648438 20.636719 106.351562 26.824219 105.875 32.578125 C 118.769531 32.476562 131.34375 34.695312 144.105469 35.472656 C 143.113281 27.839844 143.316406 20.257812 143.839844 12.578125 Z M 67.039062 136.816406 C 69.308594 142.441406 70.574219 148.324219 71.105469 154.386719 C 72.847656 154.246094 90.289062 150.792969 110.527344 153.210938 C 111.554688 153.332031 111.8125 153.066406 111.902344 152.15625 C 113.179688 138.890625 112.996094 144.449219 112.734375 136.1875 C 103.066406 133.886719 72.867188 134.296875 67.039062 136.816406 Z M 105.25 172.714844 C 92.167969 172.714844 80.480469 174.871094 70.015625 177.808594 C 69.46875 177.960938 69.199219 178.210938 69.09375 178.789062 C 68.121094 184.179688 68.179688 183.503906 63.363281 203.945312 C 67.371094 202.367188 78.648438 197.195312 93.953125 194.25 C 94.90625 194.066406 94.742188 194.472656 105.25 172.714844 Z M 269.066406 73.023438 C 270.980469 72.683594 279.882812 69.941406 293.0625 68.882812 C 293.808594 68.820312 294.015625 68.511719 294.023438 67.863281 C 294.164062 58.203125 295.078125 51.507812 290.824219 38.160156 C 290.671875 37.679688 290.53125 37.285156 289.910156 37.152344 C 272.171875 33.332031 274.109375 33.554688 272.15625 33.402344 C 274.476562 47.179688 272.761719 59.472656 269.066406 73.023438 Z M 69.5 176.671875 C 80.332031 173.960938 90.566406 171.648438 104.574219 171.699219 C 105.4375 171.699219 105.890625 171.472656 106.1875 170.621094 C 111.464844 155.558594 109.398438 162.722656 111.457031 154.3125 C 96.253906 152.667969 83.058594 153.636719 72.03125 155.496094 C 69.894531 155.855469 72.65625 155.574219 69.5 176.671875 Z M 67.84375 156.25 C 56.824219 158.6875 67.761719 155.992188 37.5 164.460938 C 35.742188 164.953125 36.421875 164.289062 34.136719 185.335938 C 33.675781 189.601562 33.023438 189.273438 34.703125 188.683594 C 66.65625 177.449219 66.351562 177.988281 66.464844 176.84375 C 68.300781 158.214844 67.84375 165.378906 67.84375 156.25 Z M 61.210938 323.480469 C 60.730469 321.441406 56.910156 310.117188 55.386719 297.769531 C 55.152344 295.867188 49.574219 297.195312 34.566406 290.226562 C 27.8125 287.09375 27.921875 286.542969 28.070312 287.378906 C 32.953125 314.96875 32.425781 314.324219 33.652344 314.828125 C 43.324219 318.789062 52.683594 321.183594 61.210938 323.480469 Z M 191.433594 210.777344 C 191.035156 212.410156 189.4375 223.8125 189.160156 225.957031 C 188.457031 231.449219 188.554688 236.980469 188.65625 242.503906 C 188.667969 243.132812 188.902344 243.4375 189.519531 243.582031 C 209.148438 248.203125 203.726562 247.082031 209.179688 248.066406 C 207.613281 236.875 208.164062 225.90625 210.289062 215.121094 C 203.976562 213.664062 197.746094 212.230469 191.433594 210.777344 Z M 346.367188 211.078125 C 346.144531 202.953125 345.929688 195.039062 345.710938 187.054688 C 316.449219 187.054688 318.828125 187.390625 318.914062 188.433594 C 319.726562 198.203125 318.207031 188.550781 322.519531 210.976562 C 322.667969 211.746094 323 211.960938 323.75 211.949219 C 345.410156 211.550781 336.683594 211.957031 346.367188 211.078125 Z M 233.355469 134.902344 C 224.144531 137.941406 214.921875 138.53125 205.691406 137.070312 C 204.542969 145.121094 203.414062 153.046875 202.257812 161.164062 C 218.390625 162.296875 211.855469 161.992188 224.734375 161.457031 C 226.046875 161.402344 225.617188 161.765625 231.1875 142.960938 C 231.964844 140.34375 232.609375 137.6875 233.355469 134.902344 Z M 336.914062 263.828125 C 337.394531 277.796875 336.5625 291.574219 335.292969 305.421875 C 337 304.925781 344.183594 301.664062 349.625 298.160156 C 350.351562 297.695312 350.664062 297.15625 350.746094 296.3125 C 351.058594 293.046875 353.707031 269.613281 353.46875 258.835938 C 348.125 261.605469 342.589844 262.929688 336.914062 263.828125 Z M 138.03125 176.679688 C 137.363281 176.457031 127.082031 174.457031 122.339844 173.835938 C 117.667969 173.226562 112.9375 173.082031 108.234375 172.722656 C 107.730469 172.6875 107.40625 172.804688 107.144531 173.320312 C 100.738281 186.136719 97.722656 191.941406 96.910156 193.75 C 99.871094 193.402344 106.664062 192.210938 114.824219 192.472656 C 130.101562 192.957031 130.386719 194.363281 131.296875 192.210938 C 133.863281 186.136719 132.742188 189.441406 138.03125 176.679688 Z M 97.539062 96.671875 C 96.769531 94.878906 94.0625 89.351562 90.890625 82.539062 C 90.582031 81.886719 90.253906 81.625 89.515625 81.632812 C 68.59375 81.847656 57.121094 84.679688 48.039062 86.390625 C 47.550781 86.484375 47.140625 86.589844 47.230469 87.246094 C 48.648438 97.558594 48.308594 97.738281 49.371094 97.558594 C 65.417969 94.855469 81.6875 95.300781 97.539062 96.671875 Z M 169.933594 101.160156 C 170.378906 103.066406 173.21875 111.265625 174.789062 123.773438 C 174.832031 124.097656 175.125 124.523438 175.417969 124.667969 C 183.507812 128.695312 190.730469 131.894531 199.128906 134.082031 C 199.6875 127.929688 199.332031 122.660156 198.980469 111.167969 C 198.945312 109.921875 198.246094 110.375 194.410156 109.632812 C 185.105469 107.835938 178.015625 104.5625 169.933594 101.160156 Z M 175.109375 126.089844 C 176.671875 152.195312 173.621094 153.683594 175.585938 154.273438 C 189.511719 158.460938 182.222656 156.539062 195.976562 160.078125 C 198.246094 145.511719 196.765625 155.125 199.019531 136.75 C 199.3125 134.351562 198.519531 137.238281 175.109375 126.089844 Z M 318.953125 186.058594 C 321.09375 186.058594 324.742188 185.878906 329.632812 185.78125 C 346.1875 185.445312 345.984375 186.015625 346.128906 184.613281 C 347.378906 172.351562 348.171875 166.144531 348.261719 164.246094 C 344.121094 164.246094 348.253906 164.207031 321.84375 165.21875 C 320.816406 165.257812 321.136719 165.78125 320.488281 168.984375 C 319.011719 176.273438 318.953125 181.21875 318.953125 186.058594 Z M 36.382812 163.363281 C 46.109375 160.425781 55.304688 157.484375 66.515625 155.292969 C 67.945312 155.011719 67.816406 155.246094 67.65625 153.6875 C 67.121094 148.449219 66.023438 143.335938 64.136719 138.394531 C 63.757812 137.40625 63.320312 137.226562 62.398438 137.441406 C 48.640625 140.628906 60.101562 137.378906 36.089844 144.601562 C 35.554688 144.765625 35.4375 145.0625 35.5 145.558594 C 36.34375 152.308594 36 159.542969 36.382812 163.363281 Z M 321.890625 45.003906 C 318.597656 36.773438 314.921875 28.941406 310.335938 21.558594 C 310.15625 21.269531 309.734375 21.042969 309.386719 20.957031 C 285.472656 15.214844 286.800781 15.617188 282.023438 14.566406 C 282.230469 15.996094 285.328125 17.800781 291.695312 35.109375 C 292.285156 36.710938 298.816406 36.921875 321.890625 45.003906 Z M 214.425781 367.351562 C 222.828125 366.925781 222.945312 367.046875 223.222656 366.402344 C 224.0625 364.449219 225.054688 362.535156 225.636719 360.503906 C 228.683594 349.871094 229.230469 338.984375 228.742188 328.003906 C 228.6875 326.710938 228.660156 326.730469 227.355469 326.753906 C 216.410156 326.933594 214.890625 326.886719 211.921875 326.886719 C 213.785156 340.414062 214.589844 353.769531 214.425781 367.351562 Z M 270.277344 146.550781 C 264.699219 149.277344 255.894531 154.117188 246.320312 157.429688 C 244.804688 157.953125 240.203125 178.582031 239.710938 180.667969 C 245.230469 180.171875 255.621094 177.636719 260.960938 176.15625 C 263.058594 175.574219 260.433594 175.949219 270.277344 146.550781 Z M 93.164062 81.695312 C 94.070312 83.804688 95.808594 87.234375 100.085938 96.277344 C 100.375 96.882812 100.738281 97.132812 101.398438 97.226562 C 110.851562 98.585938 120.125 100.707031 129.207031 103.664062 C 135.453125 105.699219 134.9375 105.960938 134.414062 104.859375 C 131.234375 98.15625 127.457031 91.785156 123.679688 85.410156 C 123.277344 84.734375 122.789062 84.40625 122.023438 84.277344 C 112.160156 82.59375 100.132812 81.695312 93.164062 81.695312 Z M 161.523438 200.425781 C 163.355469 195.304688 165.167969 190.222656 167 185.097656 C 157.75 182.03125 148.621094 179.113281 139.371094 176.960938 C 136.90625 182.597656 134.496094 188.117188 132.050781 193.699219 C 142.121094 195 151.796875 197.632812 161.523438 200.421875 Z M 90.085938 18.613281 C 81.214844 20.828125 66.074219 26.339844 56.414062 30.054688 C 55.394531 30.445312 55.589844 30.363281 51.382812 45.144531 C 51.304688 45.414062 51.269531 45.699219 51.191406 46.101562 C 75.835938 38.050781 62.113281 41.210938 83.5 36.5625 C 85.773438 36.070312 83.714844 31.847656 89.90625 19.125 C 89.96875 19 90 18.859375 90.085938 18.613281 Z M 115.03125 233.339844 C 114.074219 233.339844 104.609375 235.257812 100.878906 236.34375 C 93.039062 238.621094 85.601562 241.957031 78.359375 245.726562 C 77.699219 246.070312 77.394531 246.488281 77.304688 247.191406 C 75.433594 261.585938 76.015625 256.125 75.542969 261.605469 C 79.503906 259.515625 88.582031 254.34375 101.515625 249 C 109.859375 245.550781 112.582031 246.445312 112.722656 244.363281 C 112.78125 243.53125 112.789062 243.601562 115.03125 233.339844 Z M 138.449219 175.855469 C 142.894531 161.078125 143.101562 161.160156 142.386719 160.945312 C 133.242188 158.1875 123.992188 155.914062 114.515625 154.640625 C 113.84375 154.550781 113.59375 154.777344 113.460938 155.417969 C 112.257812 161.265625 110.234375 165.875 107.933594 171.695312 C 118.269531 171.957031 128.292969 173.464844 138.449219 175.855469 Z M 142.832031 160.238281 C 143.34375 158.300781 144.339844 150.695312 144.203125 144.75 C 144.1875 144.078125 143.988281 143.800781 143.351562 143.597656 C 128.132812 138.796875 124.117188 138.125 114.992188 136.4375 C 115.386719 142.289062 114.957031 147.925781 113.890625 153.605469 C 123.808594 154.90625 133.347656 157.25 142.832031 160.238281 Z M 180.15625 251.257812 C 180.15625 266.363281 189.953125 291.671875 193.160156 300.78125 C 193.289062 301.148438 193.808594 301.539062 194.203125 301.621094 C 194.363281 301.652344 203.980469 303.652344 204.960938 303.535156 C 203.957031 300.632812 199.910156 290.371094 198.835938 287.675781 C 185.996094 255.480469 190.976562 253.261719 186.820312 252.675781 C 184.601562 252.363281 182.425781 251.757812 180.15625 251.257812 Z M 253.519531 124.964844 C 249.921875 127.007812 243.699219 131.058594 235.03125 134.253906 C 234.320312 134.515625 234.59375 134.195312 227.578125 158.140625 C 226.742188 160.988281 226.515625 161.167969 226.867188 161.125 C 232.800781 160.417969 238.550781 158.949219 244.175781 156.972656 C 245.40625 156.539062 253.394531 125.453125 253.519531 124.964844 Z M 345.019531 55.730469 C 344.828125 53.925781 340.152344 39.113281 336.433594 29.417969 C 336.109375 28.574219 336.601562 28.894531 313.339844 21.964844 C 313.125 21.898438 312.894531 21.898438 312.636719 21.867188 C 312.679688 21.996094 312.6875 22.0625 312.714844 22.109375 C 322.820312 39.089844 322.582031 45.140625 324.878906 46.179688 C 344.480469 55.070312 335.980469 50.933594 345.019531 55.730469 Z M 171.230469 170.054688 C 171.691406 168.144531 171.402344 170.082031 173.796875 155.496094 C 173.875 155.027344 173.960938 154.621094 173.25 154.367188 C 156.183594 148.21875 151.453125 146.332031 145.855469 144.464844 C 145.355469 149.886719 144.863281 155.242188 144.359375 160.71875 C 144.316406 160.683594 141.863281 159.84375 171.230469 170.054688 Z M 354.820312 128.226562 C 355.714844 121.503906 356.59375 115.722656 356.152344 110.417969 C 356.085938 109.648438 355.820312 109.207031 355.148438 108.835938 C 349.589844 105.773438 343.507812 104.519531 337.324219 103.578125 C 336.191406 103.402344 336.890625 104.515625 336.46875 108.511719 C 335.746094 115.363281 333.925781 121.523438 332.160156 127.90625 C 339.761719 127.253906 347.222656 126.480469 354.820312 128.226562 Z M 333.097656 74.390625 C 333.613281 78.703125 334.566406 78.585938 336.445312 100.101562 C 336.523438 101.035156 336.8125 101.304688 337.714844 101.445312 C 350.664062 103.464844 353.351562 105.933594 355.890625 106.664062 C 351.734375 81.609375 352.085938 82.191406 351.128906 81.722656 C 341.261719 76.90625 344.070312 78.214844 333.097656 74.390625 Z M 237.207031 198.28125 C 236.582031 201.359375 236.636719 213.730469 237.324219 215.933594 C 246.054688 215.683594 254.714844 214.691406 263.46875 213.445312 C 261.367188 207.320312 260.273438 201.179688 260.089844 194.972656 C 252.417969 196.082031 244.875 197.175781 237.207031 198.28125 Z M 325.085938 344.980469 C 325.640625 344.980469 341.101562 338.757812 341.117188 338.75 C 341.441406 338.621094 341.742188 338.175781 341.851562 337.8125 C 346.113281 323.679688 347.761719 315.636719 349.320312 306.371094 C 348.964844 306.480469 348.78125 306.511719 348.621094 306.585938 C 337.179688 312.027344 334.597656 310.367188 334.285156 312.519531 C 332.378906 325.488281 329.382812 334.207031 325.085938 344.980469 Z M 212.695312 367.484375 C 212.695312 345.195312 210.589844 329.894531 210.40625 328.023438 C 210.265625 326.589844 210.484375 327.050781 199.625 327.050781 C 200.421875 340.726562 201.199219 354.136719 201.980469 367.484375 Z M 73.339844 265.59375 C 70.910156 266.601562 63.835938 270.761719 55.597656 273.113281 C 54.382812 273.457031 54.882812 273.15625 56.929688 294.097656 C 57.074219 295.566406 56.820312 295.027344 71.949219 296.734375 C 73.777344 296.941406 71.953125 297.632812 73.339844 265.59375 Z M 204.890625 107.578125 C 204.890625 96.367188 197.445312 61.53125 194.71875 40.4375 C 187.203125 40.4375 187.5 40.109375 187.683594 41.300781 C 191.414062 65.800781 194.167969 71.878906 197.890625 94.503906 C 199.5 104.273438 199.195312 107.515625 200.078125 107.546875 C 201.664062 107.597656 203.25 107.578125 204.886719 107.578125 Z M 139.785156 175.945312 C 148.820312 178.660156 157.988281 181.417969 167.300781 184.21875 C 168.554688 179.875 169.824219 175.460938 171.144531 170.882812 C 162.03125 167.671875 153.027344 164.5 144.191406 161.382812 C 142.667969 166.421875 141.207031 171.246094 139.785156 175.945312 Z M 25.804688 273.195312 C 27.636719 284.714844 27.277344 284.214844 28.394531 284.867188 C 37.675781 290.277344 49.785156 294.042969 54.875 294.542969 C 54.144531 287.625 53.417969 280.8125 52.6875 273.90625 C 43.636719 276.011719 34.742188 275.757812 25.804688 273.195312 Z M 202.03125 161.875 C 200.890625 167.535156 199.773438 173.078125 198.644531 178.6875 C 205.449219 180.277344 212.269531 181.324219 219.234375 181.671875 C 221.257812 175.238281 223.257812 168.871094 225.316406 162.34375 C 217.46875 163.207031 209.78125 163.019531 202.03125 161.875 Z M 235.660156 198.152344 C 235.679688 198.15625 224.652344 198.628906 216.464844 197.632812 C 214.980469 197.453125 215.414062 197.339844 212.007812 211.511719 C 211.792969 212.394531 211.679688 213.300781 211.507812 214.246094 C 219.613281 215.542969 227.613281 216.113281 235.660156 215.960938 Z M 351.214844 79.601562 C 350.921875 77.75 346.207031 59.824219 345.972656 58.925781 C 345.414062 56.800781 326.550781 48.523438 325.003906 48.191406 C 326.320312 51.863281 329.371094 59.128906 332.3125 71.359375 C 332.894531 73.769531 335.507812 71.679688 351.214844 79.601562 Z M 220.164062 181.644531 C 237.328125 181.644531 229.988281 181.695312 237.695312 181.019531 C 238.894531 180.914062 238.375 181.210938 244.003906 159.125 C 244.457031 157.355469 244.710938 158.425781 240.070312 159.433594 C 225.917969 162.503906 226.34375 161.867188 226.023438 162.945312 C 225.371094 165.128906 226 162.992188 220.164062 181.644531 Z M 167.796875 185.40625 C 165.984375 190.53125 164.195312 195.589844 162.390625 200.6875 C 169.667969 202.996094 176.863281 205.277344 184.128906 207.582031 C 185.558594 202.3125 186.957031 197.160156 188.359375 192 C 181.480469 189.792969 174.664062 187.609375 167.796875 185.40625 Z M 31.109375 89.089844 C 44.574219 85.054688 44.632812 85.289062 44.601562 84.28125 C 44.097656 68.582031 46.367188 59.648438 48.617188 49.160156 C 46.625 49.871094 44.742188 50.785156 40.632812 52.449219 C 39.992188 52.707031 39.679688 53.105469 39.496094 53.757812 C 34.5 71.605469 33.285156 78.339844 31.109375 89.089844 Z M 261.554688 177.140625 C 260.761719 177.042969 251.117188 180.117188 240.164062 181.546875 C 239.367188 181.652344 239.441406 181.507812 237.929688 191.265625 C 237.636719 193.171875 237.433594 195.09375 237.175781 197.125 C 243.742188 196.632812 237.207031 197.238281 258.976562 193.988281 C 261.207031 193.65625 259.136719 192.503906 261.554688 177.140625 Z M 151.109375 234.789062 C 130.71875 231.511719 127.84375 232.476562 117.453125 232.960938 C 116.753906 232.992188 116.511719 233.316406 116.375 233.945312 C 113.949219 245.042969 114.632812 241.023438 114.066406 245.070312 C 125.949219 242.074219 137.8125 241.742188 149.808594 243.246094 C 150.238281 240.460938 150.65625 237.730469 151.109375 234.789062 Z M 72.875 299.660156 C 67.695312 298.988281 62.609375 298.324219 57.441406 297.648438 C 57.835938 302.894531 59.660156 312.597656 63.054688 323.3125 C 63.167969 323.664062 63.601562 324.066406 63.960938 324.164062 C 65.460938 324.558594 72.976562 326.515625 74.644531 326.742188 C 72.78125 317.691406 73.011719 308.636719 72.875 299.660156 Z M 195.824219 161.109375 C 188.628906 159.054688 181.695312 157.074219 174.859375 155.125 C 173.984375 160.179688 173.09375 165.328125 172.167969 170.671875 C 178.792969 172.835938 185.484375 175.023438 192.355469 177.269531 C 193.554688 171.691406 194.707031 166.316406 195.824219 161.109375 Z M 210.316406 214.199219 C 211.714844 208.4375 213.046875 202.964844 214.332031 197.671875 C 207.886719 196.425781 201.492188 195.191406 195 193.941406 C 193.859375 199.15625 192.703125 204.4375 191.5 209.933594 C 197.867188 211.375 204.101562 212.789062 210.316406 214.199219 Z M 289.84375 35.191406 C 287.128906 28.078125 284.511719 21.160156 279.84375 14.722656 C 279.152344 13.773438 279 13.867188 269.984375 11.964844 C 264.484375 10.804688 264.707031 10.78125 264.996094 11.316406 C 268.238281 17.316406 270.105469 23.796875 271.5625 30.410156 C 271.851562 31.742188 271.4375 30.890625 289.84375 35.191406 Z M 269.855469 30.894531 C 268.457031 25.351562 266.832031 17.84375 262.929688 11.199219 C 262.183594 9.933594 262.632812 10.296875 250.394531 9.808594 C 249.085938 9.757812 252.707031 13.632812 252.609375 31.269531 C 258.328125 30.765625 263.960938 30.109375 269.855469 30.894531 Z M 24.09375 261.171875 C 25.484375 271.394531 25.175781 270.925781 26.222656 271.253906 C 34.699219 273.890625 43.234375 273.769531 51.808594 271.773438 C 53.226562 271.445312 51.976562 271.324219 51.976562 258.785156 C 42.925781 262.011719 33.851562 263.605469 24.09375 261.171875 Z M 171.902344 171.371094 C 170.628906 175.765625 169.351562 180.179688 168.039062 184.703125 C 174.902344 186.90625 181.707031 189.089844 188.609375 191.304688 C 189.824219 186.714844 190.984375 182.320312 192.132812 177.972656 C 185.339844 175.753906 178.625 173.5625 171.902344 171.371094 Z M 271.023438 322.125 C 270.757812 318.699219 271.003906 318.265625 269.523438 318.242188 C 246.9375 317.863281 228.988281 311.355469 229.109375 312.527344 C 230.300781 323.664062 229.953125 323.589844 231.015625 323.582031 C 242.332031 323.511719 259.453125 323.722656 271.023438 322.125 Z M 198.4375 179.421875 C 197.371094 184.011719 196.332031 188.476562 195.273438 193.027344 C 201.714844 194.667969 208.15625 195.914062 214.710938 196.695312 C 216.140625 191.933594 217.542969 187.246094 218.96875 182.484375 C 212 182.082031 205.234375 181.003906 198.4375 179.421875 Z M 238.078125 182.117188 C 232.046875 182.34375 225.964844 182.574219 219.757812 182.808594 C 218.433594 187.316406 217.058594 191.988281 215.648438 196.777344 C 222.492188 197.515625 229.214844 197.65625 235.863281 197.203125 C 236.617188 192.074219 237.359375 187.019531 238.078125 182.117188 Z M 75.421875 247.273438 L 54.871094 257.582031 C 53.871094 258.082031 54.015625 257.589844 54.433594 267.574219 C 54.480469 268.667969 54.605469 269.761719 54.699219 270.921875 C 60.167969 269.636719 68.566406 265.292969 73.039062 262.976562 C 73.996094 262.480469 73.34375 262.027344 75.421875 247.273438 Z M 107 13.851562 C 92.058594 18.019531 92.640625 17.546875 92.011719 18.765625 C 88.949219 24.695312 86.679688 33.90625 86.558594 35.894531 C 91.804688 34.992188 96.933594 34.089844 102.066406 33.234375 C 106.335938 32.519531 101.761719 31.941406 107 13.851562 Z M 83.632812 355.609375 C 75.585938 338.363281 76.390625 329.261719 74.375 328.785156 C 68.75 327.457031 66.09375 326.6875 64.042969 326.304688 C 64.40625 328.261719 69.003906 341.695312 75.355469 352.964844 C 76.691406 355.328125 78.25 356.851562 81.015625 357.085938 C 85.085938 357.425781 85.363281 359.308594 83.632812 355.609375 Z M 42.046875 349.339844 C 42.832031 351.929688 43.898438 354.136719 44.917969 357.449219 C 45.742188 360.140625 45.054688 359.066406 81.140625 364.078125 C 79.714844 362.1875 78.351562 360.441406 77.054688 358.644531 C 75.945312 357.105469 77.113281 358.390625 42.046875 349.339844 Z M 210.351562 317.0625 C 211.609375 322.683594 210.9375 323.558594 212.148438 323.554688 L 228.40625 323.566406 C 228.488281 322.535156 228.492188 323.558594 227.332031 312.351562 C 227.214844 311.242188 227.503906 311.691406 208.847656 307.511719 C 207.304688 307.167969 208.039062 306.738281 210.351562 317.0625 Z M 184.804688 208.691406 C 180.695312 223.089844 180.390625 233.851562 179.914062 240.28125 C 179.855469 241.066406 180.207031 240.992188 187.546875 242.996094 C 187.546875 227.78125 187.828125 226.234375 190.421875 211.238281 C 190.632812 210.039062 190.78125 210.453125 184.804688 208.691406 Z M 178.671875 248.886719 C 178.671875 242.246094 178.824219 242.144531 178.082031 241.910156 C 176.851562 241.519531 154.792969 235.585938 152.183594 235.105469 C 151.765625 237.949219 151.363281 240.671875 150.992188 243.214844 C 160.324219 245.128906 169.496094 247.007812 178.671875 248.886719 Z M 194.578125 304.9375 C 195.902344 309.628906 196.679688 312.058594 197.398438 315.082031 C 199.152344 322.4375 198.363281 323.664062 199.546875 323.644531 C 209.902344 323.480469 209.851562 323.972656 209.664062 322.585938 C 208.984375 317.566406 207.867188 312.640625 206.382812 307.800781 C 206.277344 307.453125 205.839844 307.03125 205.488281 306.960938 C 203.742188 306.597656 196.492188 305.15625 194.578125 304.9375 Z M 210.824219 249.894531 C 211.835938 255.261719 211.589844 255.46875 212.667969 255.570312 C 216.539062 255.945312 226.589844 257.464844 249.804688 257.464844 C 246.394531 250.785156 249.660156 253.554688 235.757812 252.5 C 230.113281 252.074219 218.664062 251.105469 210.824219 249.894531 Z M 187.34375 37.425781 C 193.902344 37.097656 194.523438 37.257812 194.527344 36.332031 C 194.542969 33.769531 194.339844 32.578125 192.925781 12.429688 C 192.839844 11.210938 192.488281 11.839844 187.179688 11.808594 C 185.691406 11.800781 186.089844 10.601562 187.128906 34.3125 C 187.171875 35.292969 187.261719 36.273438 187.34375 37.425781 Z M 287.972656 259.585938 C 286.058594 255.328125 286.074219 255.015625 285.292969 254.914062 C 276.335938 253.742188 274.765625 252.890625 249.429688 252.890625 C 254.230469 261.878906 249.242188 253.976562 287.972656 259.585938 Z M 44.621094 87.34375 C 43.667969 87.386719 36.21875 89.328125 31.261719 91.613281 C 30.503906 91.960938 30.597656 92.046875 29.5625 101.097656 C 29.480469 101.808594 28.492188 101.820312 45.902344 97.984375 C 45.476562 94.449219 45.050781 90.917969 44.621094 87.34375 Z M 288.617188 255.535156 C 290.328125 259.53125 290.1875 259.941406 291.585938 260.121094 C 299.445312 261.132812 312.761719 263.839844 332.34375 262.25 C 334.644531 262.0625 334.234375 262.332031 333.917969 260.167969 C 333.554688 257.683594 330.195312 263.113281 288.617188 255.535156 Z M 93.191406 12.953125 C 86.394531 14.730469 91.273438 13.351562 59.546875 22.101562 C 58.445312 22.402344 58.875 21.804688 56.410156 28.039062 C 58.898438 27.324219 69.90625 22.554688 90.617188 16.625 C 91.390625 16.40625 91.386719 16.171875 93.191406 12.953125 Z M 289.953125 361.40625 C 290.03125 361.441406 290.0625 361.46875 290.085938 361.464844 C 299.472656 359.109375 308.855469 356.757812 318.238281 354.394531 C 318.921875 354.222656 318.640625 354.550781 321.765625 348.222656 C 321.203125 348.222656 321.71875 348.078125 293.078125 356.894531 C 292.429688 357.09375 292.5 357.15625 289.953125 361.40625 Z M 210.390625 255.4375 C 209.414062 249.734375 209.703125 249.683594 208.574219 249.441406 C 191.820312 245.878906 192.292969 245.839844 188.839844 244.960938 C 189.597656 251.507812 189.25 251.5625 190.535156 251.792969 C 197.078125 252.984375 203.617188 254.191406 210.390625 255.4375 Z M 204.800781 135.46875 C 205.515625 127.085938 205.574219 118.875 205.113281 110.578125 L 199.941406 110.578125 C 199.941406 113.480469 200.292969 115.898438 200.277344 119.117188 C 200.222656 132.472656 199.65625 134.21875 200.402344 134.417969 C 201.824219 134.796875 203.261719 135.109375 204.800781 135.46875 Z M 127.082031 367.421875 C 128.066406 368.324219 129.027344 369.257812 130.054688 370.109375 C 131.140625 371.007812 164.324219 371.820312 168.550781 371.820312 C 167.222656 369.289062 167.328125 368.917969 166.015625 368.859375 C 127.09375 367.1875 127.304688 367.066406 127.082031 367.421875 Z M 200.082031 135.996094 C 199.019531 144.015625 197.953125 152.054688 196.878906 160.136719 C 198.347656 160.386719 199.824219 160.640625 201.382812 160.90625 C 202.746094 152.902344 204 144.945312 204.675781 136.894531 C 203.050781 136.578125 201.542969 136.28125 200.082031 135.996094 Z M 88.707031 360.875 C 88.414062 361.253906 88.636719 360.925781 90.671875 363.933594 C 92.355469 366.421875 93.773438 366.0625 96.082031 366.449219 C 112.855469 369.238281 113.203125 369.585938 127.667969 370.417969 C 124.859375 367.222656 125.011719 367.058594 123.65625 366.953125 C 108.765625 365.773438 111.515625 366.722656 88.707031 360.875 Z M 53.476562 31.128906 C 46.542969 33.96875 46.042969 33.984375 45.664062 35.070312 C 45.136719 36.585938 41.054688 48.390625 40.570312 50.316406 C 41.527344 50.117188 48.066406 47.328125 48.640625 47.082031 C 49.488281 46.71875 48.8125 47.132812 53.476562 31.128906 Z M 262.957031 365.117188 C 255.851562 366.238281 262.988281 365.53125 224.75 368.507812 C 223.921875 368.570312 224.195312 368.402344 222.046875 371.476562 C 246.285156 370.371094 253.710938 369.066406 258.945312 368.472656 C 260.941406 368.246094 261.691406 366.621094 262.957031 365.117188 Z M 321.125 353.546875 C 322.984375 353.113281 329.894531 350.777344 335.898438 349.191406 C 337.988281 348.636719 339.152344 347.660156 339.546875 345.519531 C 339.839844 343.9375 340.476562 342.421875 340.972656 340.832031 C 340.578125 340.863281 340.929688 340.734375 324.511719 347.136719 C 323.859375 347.390625 324.179688 346.988281 321.125 353.546875 Z M 190.699219 209.542969 C 191.90625 204.171875 193.089844 198.898438 194.289062 193.546875 C 192.558594 193.085938 190.878906 192.640625 189.113281 192.171875 C 187.707031 197.4375 186.332031 202.597656 184.9375 207.824219 C 186.957031 208.425781 188.832031 208.984375 190.699219 209.542969 Z M 199.957031 369.445312 C 189.613281 369.332031 179.386719 369.214844 169.03125 369.101562 C 171.226562 373.15625 168.726562 372.039062 198.847656 372.191406 C 199.199219 372.195312 199.554688 372.144531 199.957031 372.113281 Z M 193.105469 177.332031 C 194.695312 177.730469 196.253906 178.121094 197.914062 178.539062 C 199.050781 172.878906 200.160156 167.371094 201.285156 161.785156 C 199.632812 161.5 198.128906 161.242188 196.621094 160.984375 C 195.449219 166.433594 194.292969 171.804688 193.105469 177.332031 Z M 290.210938 357.832031 C 289.425781 357.832031 290.144531 357.679688 266 364.316406 C 265.351562 364.496094 265.550781 364.359375 263.480469 367.367188 C 264.101562 367.367188 263.511719 367.480469 286.675781 362.238281 C 287.359375 362.085938 287.023438 362.394531 290.210938 357.832031 Z M 144.207031 8.582031 C 141.585938 8.433594 112.550781 6.988281 110.976562 9.210938 C 110.574219 9.777344 110.300781 10.433594 109.953125 11.097656 C 117.792969 10.273438 141.113281 10.40625 143.160156 10.421875 C 144.34375 10.429688 144.140625 9.789062 144.207031 8.582031 Z M 189.367188 191.457031 C 191.113281 191.925781 192.765625 192.371094 194.515625 192.839844 C 195.582031 188.292969 196.636719 183.792969 197.699219 179.273438 C 196.023438 178.84375 194.488281 178.449219 192.886719 178.039062 C 191.714844 182.511719 190.554688 186.929688 189.367188 191.457031 Z M 188.300781 251.289062 C 187.722656 244.746094 187.894531 244.71875 187.027344 244.457031 C 186.214844 244.210938 180.992188 242.648438 179.933594 242.492188 C 179.933594 249.367188 179.789062 249.296875 180.621094 249.507812 C 182.453125 249.972656 185.078125 250.558594 188.300781 251.289062 Z M 145.855469 10.410156 C 152.59375 10.410156 183.734375 9.800781 183.867188 9.746094 C 184.410156 9.53125 184.101562 9.066406 183.902344 9.011719 C 183.445312 8.890625 180.171875 9 168.550781 8.875 C 145.738281 8.632812 146.039062 7.609375 145.855469 10.410156 Z M 56.472656 23.027344 C 49.726562 25.222656 49.75 25.152344 49.621094 25.4375 C 48.699219 27.472656 47.800781 29.519531 46.894531 31.5625 C 49.402344 30.800781 51.71875 29.90625 54.023438 28.984375 C 54.371094 28.847656 54.351562 28.699219 56.472656 23.027344 Z M 108.9375 9.214844 C 92.566406 13.007812 96.816406 11.277344 93.65625 15.621094 C 94.265625 15.621094 93.703125 15.769531 107.371094 11.878906 C 107.875 11.738281 107.84375 11.605469 108.9375 9.214844 Z M 334.847656 309.28125 C 337.414062 309.019531 345.105469 306.117188 349.207031 304.089844 C 349.847656 303.769531 349.703125 303.953125 350.234375 300.34375 C 348.5 301.136719 344.789062 303.894531 335.59375 307.707031 C 334.84375 308.015625 334.78125 308.527344 334.847656 309.28125 Z M 272.953125 321.859375 C 296.398438 316.300781 295.503906 317.25 272.613281 318.355469 C 272.722656 319.480469 272.828125 320.542969 272.953125 321.859375 Z M 89.550781 365.390625 C 86.015625 360.160156 86.089844 360.167969 85.761719 360.085938 C 79.09375 358.402344 79.324219 358.375 79.019531 358.761719 C 84.40625 364.839844 84 364.535156 84.621094 364.636719 C 86.230469 364.890625 87.84375 365.128906 89.550781 365.390625 Z M 201.835938 372.046875 C 202.292969 372.214844 210.679688 371.914062 211.167969 371.898438 C 211.855469 371.878906 211.859375 371.230469 212.328125 369.238281 L 201.835938 369.238281 Z M 336.566406 261.664062 C 340.226562 261.332031 350.351562 258.980469 353.320312 256.070312 C 352.535156 255.035156 353.589844 257.515625 336.148438 259.292969 C 336.289062 260.09375 336.414062 260.808594 336.566406 261.664062 Z M 221.820312 368.910156 C 221.632812 368.589844 221.816406 368.613281 214.507812 368.972656 C 214.078125 368.996094 214.078125 369.527344 213.625 371.867188 C 219.59375 371.566406 219.40625 371.625 219.582031 371.429688 C 220.335938 370.59375 221.078125 369.75 221.820312 368.910156 Z M 194.257812 8.914062 C 194.242188 9.53125 192.464844 9.683594 210.183594 8.914062 Z M 192.460938 9.375 L 192.449219 9.09375 C 192.238281 9.046875 192.027344 8.960938 191.816406 8.957031 C 185.933594 8.921875 186.753906 8.878906 185.964844 9.363281 C 186.792969 9.761719 185.953125 9.765625 191.765625 9.546875 C 192 9.535156 192.230469 9.433594 192.460938 9.375 Z M 332.808594 309.207031 C 332.449219 308.882812 332.71875 308.921875 326.699219 311.121094 C 328.582031 310.910156 330.40625 310.515625 332.210938 310.035156 C 332.464844 309.964844 332.609375 309.492188 332.808594 309.207031 Z M 332.808594 309.207031 " fill-opacity="1" fill-rule="nonzero"/></g></svg>