<svg xmlns="http://www.w3.org/2000/svg" xmlns:xlink="http://www.w3.org/1999/xlink" width="500" zoomAndPan="magnify" viewBox="0 0 375 374.999991" height="500" preserveAspectRatio="xMidYMid meet" version="1.0"><path fill="#000000" d="M 350.472656 7.363281 L 289.222656 7.363281 C 285.984375 2.90625 280.738281 0 274.820312 0 L 100.179688 0 C 94.265625 0 89.015625 2.90625 85.78125 7.363281 L 31.472656 7.363281 C 14.117188 7.363281 0 21.480469 0 38.835938 L 0 247.996094 C 0 265.347656 14.117188 279.46875 31.472656 279.46875 L 134.976562 279.46875 C 134.769531 299.808594 129.832031 320.394531 124.324219 332.527344 L 102.335938 332.527344 C 90.625 332.527344 81.097656 342.050781 81.097656 353.761719 C 81.097656 365.472656 90.625 375 102.335938 375 L 272.671875 375 C 284.382812 375 293.90625 365.472656 293.90625 353.765625 C 293.90625 342.054688 284.382812 332.527344 272.671875 332.527344 L 250.625 332.527344 C 244.863281 320.175781 239.609375 299.519531 239.21875 279.46875 L 343.527344 279.46875 C 360.882812 279.46875 375 265.351562 375 247.996094 L 375 31.894531 C 375 18.367188 363.996094 7.363281 350.472656 7.363281 Z M 93.019531 47.398438 L 281.984375 47.398438 L 281.984375 177.246094 C 281.984375 181.195312 278.769531 184.40625 274.820312 184.40625 L 100.179688 184.40625 C 96.230469 184.40625 93.019531 181.195312 93.019531 177.246094 Z M 100.179688 10.628906 L 274.820312 10.628906 C 278.769531 10.628906 281.984375 13.839844 281.984375 17.789062 L 281.984375 36.769531 L 93.019531 36.769531 L 93.019531 17.789062 C 93.019531 13.839844 96.230469 10.628906 100.179688 10.628906 Z M 31.472656 17.988281 L 82.390625 17.988281 L 82.390625 177.246094 C 82.390625 187.054688 90.371094 195.035156 100.179688 195.035156 L 274.820312 195.035156 C 284.628906 195.035156 292.609375 187.054688 292.609375 177.246094 L 292.609375 17.988281 L 350.472656 17.988281 C 358.136719 17.988281 364.375 24.226562 364.375 31.894531 L 364.375 216.808594 L 10.628906 216.808594 L 10.628906 38.835938 C 10.628906 27.339844 19.976562 17.988281 31.472656 17.988281 Z M 283.28125 353.765625 C 283.28125 359.613281 278.519531 364.371094 272.671875 364.371094 L 102.335938 364.371094 C 96.484375 364.371094 91.726562 359.613281 91.726562 353.761719 C 91.726562 347.914062 96.484375 343.152344 102.335938 343.152344 L 272.671875 343.152344 C 278.519531 343.15625 283.28125 347.914062 283.28125 353.765625 Z M 239.027344 332.527344 L 135.867188 332.527344 C 141.6875 317.714844 145.410156 297.628906 145.601562 279.46875 L 228.59375 279.46875 C 228.929688 297.410156 232.921875 317.503906 239.027344 332.527344 Z M 343.527344 268.839844 L 31.472656 268.839844 C 19.976562 268.839844 10.628906 259.488281 10.628906 247.996094 L 10.628906 227.4375 L 364.371094 227.4375 L 364.371094 247.996094 C 364.371094 259.488281 355.023438 268.839844 343.527344 268.839844 Z M 207.195312 248.136719 C 207.195312 251.074219 204.816406 253.453125 201.882812 253.453125 L 173.117188 253.453125 C 170.183594 253.453125 167.804688 251.074219 167.804688 248.136719 C 167.804688 245.203125 170.183594 242.824219 173.117188 242.824219 L 201.882812 242.824219 C 204.816406 242.824219 207.195312 245.203125 207.195312 248.136719 Z M 108.191406 23.699219 C 108.191406 20.765625 110.570312 18.386719 113.503906 18.386719 L 166.535156 18.386719 C 169.46875 18.386719 171.847656 20.765625 171.847656 23.699219 C 171.847656 26.632812 169.46875 29.011719 166.535156 29.011719 L 113.503906 29.011719 C 110.570312 29.011719 108.191406 26.632812 108.191406 23.699219 Z M 218.367188 23.699219 C 218.367188 20.859375 220.667969 18.5625 223.503906 18.5625 C 226.34375 18.5625 228.640625 20.859375 228.640625 23.699219 C 228.640625 26.535156 226.34375 28.835938 223.503906 28.835938 C 220.667969 28.835938 218.367188 26.535156 218.367188 23.699219 Z M 237.429688 23.699219 C 237.429688 20.859375 239.730469 18.5625 242.566406 18.5625 C 245.40625 18.5625 247.703125 20.859375 247.703125 23.699219 C 247.703125 26.535156 245.40625 28.835938 242.566406 28.835938 C 239.730469 28.835938 237.429688 26.535156 237.429688 23.699219 Z M 256.492188 23.699219 C 256.492188 20.859375 258.792969 18.5625 261.628906 18.5625 C 264.46875 18.5625 266.765625 20.859375 266.765625 23.699219 C 266.765625 26.535156 264.46875 28.835938 261.628906 28.835938 C 258.792969 28.835938 256.492188 26.535156 256.492188 23.699219 Z M 144.539062 155.414062 C 144.777344 155.71875 145.039062 156 145.328125 156.238281 C 155.96875 167.359375 170.933594 174.304688 187.5 174.304688 C 204.078125 174.304688 219.050781 167.347656 229.691406 156.21875 C 230.007812 155.957031 230.296875 155.660156 230.546875 155.324219 C 240.074219 144.925781 245.902344 131.082031 245.902344 115.902344 C 245.902344 100.980469 240.269531 87.351562 231.027344 77.019531 C 230.773438 76.671875 230.488281 76.359375 230.171875 76.089844 C 219.503906 64.664062 204.328125 57.5 187.5 57.5 C 170.675781 57.5 155.5 64.664062 144.832031 76.085938 C 144.511719 76.359375 144.226562 76.671875 143.972656 77.019531 C 134.730469 87.355469 129.101562 100.980469 129.101562 115.902344 C 129.097656 131.128906 134.960938 145.003906 144.539062 155.414062 Z M 149.8125 86.597656 C 152.691406 87.761719 155.765625 88.777344 158.984375 89.648438 C 157.144531 95.984375 155.957031 103.050781 155.574219 110.589844 L 140.03125 110.589844 C 141.027344 101.609375 144.527344 93.375 149.8125 86.597656 Z M 234.972656 110.589844 L 219.425781 110.589844 C 219.042969 103.050781 217.859375 95.984375 216.015625 89.648438 C 219.238281 88.777344 222.308594 87.761719 225.1875 86.597656 C 230.472656 93.375 233.972656 101.609375 234.972656 110.589844 Z M 224.785156 145.722656 C 221.96875 144.605469 218.972656 143.628906 215.835938 142.789062 C 217.78125 136.292969 219.03125 129.003906 219.425781 121.214844 L 234.972656 121.214844 C 233.949219 130.425781 230.292969 138.847656 224.785156 145.722656 Z M 192.816406 150.003906 C 195.640625 150.136719 198.414062 150.382812 201.117188 150.726562 C 198.636719 155.148438 195.769531 158.386719 192.816406 160.195312 Z M 192.816406 139.367188 L 192.816406 121.214844 L 208.785156 121.214844 C 208.378906 128.449219 207.164062 134.992188 205.398438 140.609375 C 201.332031 139.976562 197.117188 139.558594 192.816406 139.367188 Z M 192.816406 110.589844 L 192.816406 93.113281 C 197.191406 92.921875 201.46875 92.496094 205.59375 91.847656 C 207.253906 97.316406 208.398438 103.628906 208.785156 110.589844 Z M 192.816406 82.480469 L 192.816406 71.609375 C 195.90625 73.503906 198.90625 76.96875 201.464844 81.710938 C 198.648438 82.078125 195.761719 82.339844 192.816406 82.480469 Z M 182.1875 82.480469 C 179.238281 82.339844 176.351562 82.078125 173.539062 81.710938 C 176.09375 76.96875 179.09375 73.503906 182.1875 71.609375 Z M 182.1875 93.113281 L 182.1875 110.589844 L 166.214844 110.589844 C 166.605469 103.628906 167.75 97.316406 169.40625 91.847656 C 173.53125 92.496094 177.8125 92.921875 182.1875 93.113281 Z M 182.1875 121.214844 L 182.1875 139.367188 C 177.882812 139.558594 173.671875 139.976562 169.601562 140.609375 C 167.839844 134.992188 166.621094 128.449219 166.214844 121.214844 Z M 182.1875 150.003906 L 182.1875 160.195312 C 179.234375 158.386719 176.363281 155.148438 173.882812 150.726562 C 176.589844 150.382812 179.363281 150.136719 182.1875 150.003906 Z M 166.335938 158.714844 C 163.632812 157.375 161.074219 155.789062 158.6875 153.976562 C 160.085938 153.539062 161.523438 153.128906 162.996094 152.757812 C 164.023438 154.890625 165.136719 156.878906 166.335938 158.714844 Z M 212.003906 152.757812 C 213.480469 153.128906 214.914062 153.539062 216.3125 153.976562 C 213.929688 155.785156 211.371094 157.375 208.667969 158.714844 C 209.863281 156.878906 210.980469 154.890625 212.003906 152.757812 Z M 212.300781 79.652344 C 211.195312 77.285156 209.976562 75.097656 208.667969 73.089844 C 211.601562 74.546875 214.367188 76.300781 216.921875 78.304688 C 215.429688 78.792969 213.886719 79.246094 212.300781 79.652344 Z M 162.699219 79.652344 C 161.113281 79.246094 159.574219 78.792969 158.078125 78.308594 C 160.636719 76.300781 163.398438 74.546875 166.335938 73.089844 C 165.023438 75.097656 163.804688 77.289062 162.699219 79.652344 Z M 155.574219 121.214844 C 155.96875 129.003906 157.21875 136.292969 159.167969 142.789062 C 156.03125 143.628906 153.035156 144.605469 150.21875 145.722656 C 144.707031 138.847656 141.054688 130.425781 140.03125 121.214844 Z M 155.574219 121.214844 " fill-opacity="1" fill-rule="nonzero"/></svg>