<svg xmlns="http://www.w3.org/2000/svg" xmlns:xlink="http://www.w3.org/1999/xlink" width="500" zoomAndPan="magnify" viewBox="0 0 375 374.999991" height="500" preserveAspectRatio="xMidYMid meet" version="1.0"><defs><clipPath id="16e7587838"><path d="M 0 60.46875 L 6 60.46875 L 6 147 L 0 147 Z M 0 60.46875 " clip-rule="nonzero"/></clipPath><clipPath id="85990bb615"><path d="M 0 60.46875 L 86 60.46875 L 86 67 L 0 67 Z M 0 60.46875 " clip-rule="nonzero"/></clipPath><clipPath id="63ae867e57"><path d="M 289 60.46875 L 375 60.46875 L 375 67 L 289 67 Z M 289 60.46875 " clip-rule="nonzero"/></clipPath><clipPath id="cce2838100"><path d="M 369 60.46875 L 375 60.46875 L 375 147 L 369 147 Z M 369 60.46875 " clip-rule="nonzero"/></clipPath><clipPath id="807619c336"><path d="M 0 308 L 86 308 L 86 314.71875 L 0 314.71875 Z M 0 308 " clip-rule="nonzero"/></clipPath><clipPath id="7f6e174874"><path d="M 0 228 L 6 228 L 6 314.71875 L 0 314.71875 Z M 0 228 " clip-rule="nonzero"/></clipPath><clipPath id="096f414e95"><path d="M 289 308 L 375 308 L 375 314.71875 L 289 314.71875 Z M 289 308 " clip-rule="nonzero"/></clipPath><clipPath id="b1cfa71dd5"><path d="M 369 228 L 375 228 L 375 314.71875 L 369 314.71875 Z M 369 228 " clip-rule="nonzero"/></clipPath></defs><path fill="#000000" d="M 43.816406 92.214844 C 43.816406 93 43.742188 93.777344 43.589844 94.546875 C 43.433594 95.316406 43.207031 96.066406 42.910156 96.789062 C 42.609375 97.515625 42.238281 98.203125 41.804688 98.855469 C 41.367188 99.507812 40.871094 100.113281 40.316406 100.667969 C 39.761719 101.222656 39.160156 101.71875 38.507812 102.152344 C 37.855469 102.589844 37.164062 102.957031 36.441406 103.257812 C 35.714844 103.558594 34.96875 103.785156 34.199219 103.9375 C 33.429688 104.089844 32.652344 104.167969 31.867188 104.167969 C 31.082031 104.167969 30.304688 104.089844 29.535156 103.9375 C 28.765625 103.785156 28.019531 103.558594 27.292969 103.257812 C 26.570312 102.957031 25.882812 102.589844 25.230469 102.152344 C 24.574219 101.71875 23.972656 101.222656 23.417969 100.667969 C 22.863281 100.113281 22.367188 99.507812 21.929688 98.855469 C 21.496094 98.203125 21.128906 97.515625 20.828125 96.789062 C 20.527344 96.066406 20.300781 95.316406 20.148438 94.546875 C 19.992188 93.777344 19.917969 93 19.917969 92.214844 C 19.917969 91.433594 19.992188 90.65625 20.148438 89.886719 C 20.300781 89.117188 20.527344 88.367188 20.828125 87.644531 C 21.128906 86.917969 21.496094 86.230469 21.929688 85.578125 C 22.367188 84.925781 22.863281 84.320312 23.417969 83.765625 C 23.972656 83.210938 24.574219 82.714844 25.230469 82.28125 C 25.882812 81.84375 26.570312 81.476562 27.292969 81.175781 C 28.019531 80.875 28.765625 80.648438 29.535156 80.496094 C 30.304688 80.34375 31.082031 80.265625 31.867188 80.265625 C 32.652344 80.265625 33.429688 80.34375 34.199219 80.496094 C 34.96875 80.648438 35.714844 80.875 36.441406 81.175781 C 37.164062 81.476562 37.855469 81.84375 38.507812 82.28125 C 39.160156 82.714844 39.761719 83.210938 40.316406 83.765625 C 40.871094 84.320312 41.367188 84.925781 41.804688 85.578125 C 42.238281 86.230469 42.609375 86.917969 42.910156 87.644531 C 43.207031 88.367188 43.433594 89.117188 43.589844 89.886719 C 43.742188 90.65625 43.816406 91.433594 43.816406 92.214844 Z M 43.816406 92.214844 " fill-opacity="1" fill-rule="nonzero"/><g clip-path="url(#16e7587838)"><path fill="#000000" d="M 2.988281 146.152344 C 1.433594 146.152344 0.199219 144.917969 0.199219 143.363281 L 0.199219 63.296875 C 0.199219 61.742188 1.433594 60.507812 2.988281 60.507812 C 4.542969 60.507812 5.777344 61.742188 5.777344 63.296875 L 5.777344 143.363281 C 5.777344 144.878906 4.542969 146.152344 2.988281 146.152344 Z M 2.988281 146.152344 " fill-opacity="1" fill-rule="nonzero"/></g><g clip-path="url(#85990bb615)"><path fill="#000000" d="M 83.054688 66.085938 L 2.988281 66.085938 C 1.433594 66.085938 0.199219 64.851562 0.199219 63.296875 C 0.199219 61.742188 1.433594 60.507812 2.988281 60.507812 L 83.054688 60.507812 C 84.609375 60.507812 85.84375 61.742188 85.84375 63.296875 C 85.84375 64.851562 84.609375 66.085938 83.054688 66.085938 Z M 83.054688 66.085938 " fill-opacity="1" fill-rule="nonzero"/></g><g clip-path="url(#63ae867e57)"><path fill="#000000" d="M 372.089844 66.085938 L 292.023438 66.085938 C 290.472656 66.085938 289.238281 64.851562 289.238281 63.296875 C 289.238281 61.742188 290.472656 60.507812 292.023438 60.507812 L 372.089844 60.507812 C 373.644531 60.507812 374.878906 61.742188 374.878906 63.296875 C 374.878906 64.851562 373.644531 66.085938 372.089844 66.085938 Z M 372.089844 66.085938 " fill-opacity="1" fill-rule="nonzero"/></g><g clip-path="url(#cce2838100)"><path fill="#000000" d="M 372.132812 146.113281 C 370.578125 146.113281 369.34375 144.878906 369.34375 143.324219 L 369.34375 63.257812 C 369.34375 61.703125 370.578125 60.46875 372.132812 60.46875 C 373.683594 60.46875 374.917969 61.703125 374.917969 63.257812 L 374.917969 143.324219 C 374.917969 144.878906 373.644531 146.113281 372.132812 146.113281 Z M 372.132812 146.113281 " fill-opacity="1" fill-rule="nonzero"/></g><g clip-path="url(#807619c336)"><path fill="#000000" d="M 82.933594 314.53125 L 2.867188 314.53125 C 1.316406 314.53125 0.0820312 313.296875 0.0820312 311.742188 C 0.0820312 310.1875 1.316406 308.953125 2.867188 308.953125 L 82.933594 308.953125 C 84.488281 308.953125 85.722656 310.1875 85.722656 311.742188 C 85.722656 313.296875 84.449219 314.53125 82.933594 314.53125 Z M 82.933594 314.53125 " fill-opacity="1" fill-rule="nonzero"/></g><g clip-path="url(#7f6e174874)"><path fill="#000000" d="M 2.867188 314.53125 C 1.316406 314.53125 0.0820312 313.296875 0.0820312 311.742188 L 0.0820312 231.675781 C 0.0820312 230.121094 1.316406 228.886719 2.867188 228.886719 C 4.421875 228.886719 5.65625 230.121094 5.65625 231.675781 L 5.65625 311.742188 C 5.65625 313.296875 4.382812 314.53125 2.867188 314.53125 Z M 2.867188 314.53125 " fill-opacity="1" fill-rule="nonzero"/></g><g clip-path="url(#096f414e95)"><path fill="#000000" d="M 371.972656 314.53125 L 291.90625 314.53125 C 290.351562 314.53125 289.117188 313.296875 289.117188 311.742188 C 289.117188 310.1875 290.351562 308.953125 291.90625 308.953125 L 371.972656 308.953125 C 373.527344 308.953125 374.761719 310.1875 374.761719 311.742188 C 374.761719 313.296875 373.484375 314.53125 371.972656 314.53125 Z M 371.972656 314.53125 " fill-opacity="1" fill-rule="nonzero"/></g><g clip-path="url(#b1cfa71dd5)"><path fill="#000000" d="M 372.011719 314.492188 C 370.457031 314.492188 369.222656 313.257812 369.222656 311.703125 L 369.222656 231.636719 C 369.222656 230.082031 370.457031 228.847656 372.011719 228.847656 C 373.566406 228.847656 374.800781 230.082031 374.800781 231.636719 L 374.800781 311.703125 C 374.800781 313.257812 373.527344 314.492188 372.011719 314.492188 Z M 372.011719 314.492188 " fill-opacity="1" fill-rule="nonzero"/></g><path fill="#000000" d="M 347.074219 107.511719 L 284.375 107.511719 C 283.0625 107.511719 281.988281 106.4375 281.988281 105.121094 L 281.988281 79.351562 C 281.988281 78.035156 283.0625 76.960938 284.375 76.960938 L 347.074219 76.960938 C 348.390625 76.960938 349.464844 78.035156 349.464844 79.351562 L 349.464844 82.457031 L 352.53125 82.457031 C 353.847656 82.457031 354.921875 83.53125 354.921875 84.847656 L 354.921875 101.140625 C 354.921875 102.453125 353.847656 103.53125 352.53125 103.53125 L 349.464844 103.53125 L 349.464844 105.121094 C 349.464844 106.4375 348.390625 107.511719 347.074219 107.511719 Z M 286.765625 102.734375 L 344.6875 102.734375 L 344.6875 101.140625 C 344.6875 99.824219 345.761719 98.75 347.074219 98.75 L 350.144531 98.75 L 350.144531 87.238281 L 347.074219 87.238281 C 345.761719 87.238281 344.6875 86.160156 344.6875 84.847656 L 344.6875 81.738281 L 286.765625 81.738281 Z M 286.765625 102.734375 " fill-opacity="1" fill-rule="nonzero"/><path fill="#000000" d="M 301.066406 100.582031 L 289.238281 100.582031 L 289.238281 83.929688 L 301.226562 83.929688 Z M 301.066406 100.582031 " fill-opacity="1" fill-rule="nonzero"/><path fill="#000000" d="M 314.851562 100.660156 L 302.980469 100.660156 L 302.980469 84.050781 L 314.929688 84.050781 Z M 314.851562 100.660156 " fill-opacity="1" fill-rule="nonzero"/><path fill="#000000" d="M 328.554688 100.660156 L 316.722656 100.660156 L 316.722656 84.050781 L 328.671875 84.050781 Z M 328.554688 100.660156 " fill-opacity="1" fill-rule="nonzero"/></svg>